 <!DOCTYPE svg PUBLIC "-//W3C//DTD SVG 1.1//EN" "http://www.w3.org/Graphics/SVG/1.1/DTD/svg11.dtd">
<svg xmlns="http://www.w3.org/2000/svg" width="865.76" height="682.89" viewBox="0 0 865.76 682.89">
<defs>
<style xmlns="http://www.w3.org/1999/xhtml">*, ::after, ::before { box-sizing: border-box; }
img, svg { vertical-align: middle; }
</style>
<style xmlns="http://www.w3.org/1999/xhtml">*, body, html { }
img, svg { max-width: 100%; }
</style>
</defs>
<path d="M213.85,265.55c-6.49,2.69-15.09,6-25.62,9.38,0,0-67.8,11.55-80.1,91.32,0,0-13,44,45.45,68.58l46.92,22.38s65,31.87,61.62,97.74a75.12,75.12,0,0,0,8.77,39.87c10.34,19,30.55,40.77,68.93,40.87,0,0,40.79,10.28,48.73-32,0,0,16.69-87,75.3-83.73l93.44-3.25s30.29,8.66,55.12-14.8c0,0,21.58-14.44,18.33-47.28,0,0-3.71-22,13.84-30.68,0,0,70.51-45.84,56.31-71.47,0,0-60.41-44.75-61.85-64.6,0,0-6.2-15.61-8-38.78a128.83,128.83,0,0,1,.57-25c1.49-12.76,2.23-42-20.7-50.21,0,0-13.87-13.07-58.19,1.37,0,0-66.18,28.87-91.89-23.46l-18.56-35.92s-15.8-50-75.72-49.27c0,0-53,2.57-63.88,60.48,0,0-6.74,71.91-56.51,117.83A109.37,109.37,0,0,1,213.85,265.55Z" fill="#0071f2" data-primary="true"/>
<path d="M213.85,265.55c-6.49,2.69-15.09,6-25.62,9.38,0,0-67.8,11.55-80.1,91.32,0,0-13,44,45.45,68.58l46.92,22.38s65,31.87,61.62,97.74a75.12,75.12,0,0,0,8.77,39.87c10.34,19,30.55,40.77,68.93,40.87,0,0,40.79,10.28,48.73-32,0,0,16.69-87,75.3-83.73l93.44-3.25s30.29,8.66,55.12-14.8c0,0,21.58-14.44,18.33-47.28,0,0-3.71-22,13.84-30.68,0,0,70.51-45.84,56.31-71.47,0,0-60.41-44.75-61.85-64.6,0,0-6.2-15.61-8-38.78a128.83,128.83,0,0,1,.57-25c1.49-12.76,2.23-42-20.7-50.21,0,0-13.87-13.07-58.19,1.37,0,0-66.18,28.87-91.89-23.46l-18.56-35.92s-15.8-50-75.72-49.27c0,0-53,2.57-63.88,60.48,0,0-6.74,71.91-56.51,117.83A109.37,109.37,0,0,1,213.85,265.55Z" fill="#fff" opacity="0.7"/>
<path d="M313.48,496.91l-7.22-8.3L292.54,495V481.39l-13.35-4.69-8.66,13-10.47-9.75-10.47,5.78L255.25,502l-17.42,1.89v12.73l11.94,4.24-9.59,12.9,6.88,11.91,13.36-6v14.26L272,556.46l7.58-14.07,9.74,9.74,12.1-6.77-5-13.9h14.22L313.48,515l-13.72-2.16ZM275.22,531.2a14.44,14.44,0,1,1,14.43-14.44A14.44,14.44,0,0,1,275.22,531.2Z" fill="#0071f2" data-primary="true"/>
<path d="M313.48,496.91l-7.22-8.3L292.54,495V481.39l-13.35-4.69-8.66,13-10.47-9.75-10.47,5.78L255.25,502l-17.42,1.89v12.73l11.94,4.24-9.59,12.9,6.88,11.91,13.36-6v14.26L272,556.46l7.58-14.07,9.74,9.74,12.1-6.77-5-13.9h14.22L313.48,515l-13.72-2.16ZM275.22,531.2a14.44,14.44,0,1,1,14.43-14.44A14.44,14.44,0,0,1,275.22,531.2Z" opacity="0.2"/>
<line x1="505.21" y1="410.28" x2="527.69" y2="410.28" fill="none" stroke="red" stroke-miterlimit="10"/>
<path d="M330.08,369h7.22a0,0,0,0,1,0,0V563.32a3.61,3.61,0,0,1-3.61,3.61h0a3.61,3.61,0,0,1-3.61-3.61V369A0,0,0,0,1,330.08,369Z" fill="#2f2e41" data-secondary="true"/>
<path d="M522.46,369h7.22a0,0,0,0,1,0,0V563.32a3.61,3.61,0,0,1-3.61,3.61h0a3.61,3.61,0,0,1-3.61-3.61V369a0,0,0,0,1,0,0Z" fill="#2f2e41" data-secondary="true"/>
<g opacity="0.2">
<path d="M287.13,496.18a.36.36,0,0,1-.36-.36V483.19a.36.36,0,1,1,.72,0v12.63A.36.36,0,0,1,287.13,496.18Z"/>
</g>
<g opacity="0.2">
<path d="M260.78,531.2a.38.38,0,0,1-.26-.11c-10.17-10.54-3.37-23-3.3-23.17a.36.36,0,0,1,.49-.14.37.37,0,0,1,.14.49c-.07.12-6.61,12.17,3.19,22.32a.36.36,0,0,1,0,.51A.39.39,0,0,1,260.78,531.2Z"/>
</g>
<g opacity="0.2">
<path d="M269.8,552.13l-.15,0a.36.36,0,0,1-.17-.48l4.69-10.11a.36.36,0,1,1,.65.31l-4.69,10.1A.36.36,0,0,1,269.8,552.13Z"/>
</g>
<polygon points="187.15 320.77 233.35 454.32 352.23 411.1 306.62 278.18 187.15 320.77" fill="#fff"/>
<path d="M153.58,327.09h-.09a.54.54,0,0,1-.44-.62,110.9,110.9,0,0,1,8.57-25.5c6.08-13,17.47-31,37.17-43.27,26.81-16.65,61.8-18.68,104-6a.54.54,0,1,1-.31,1c-41.9-12.57-76.59-10.58-103.11,5.9-19.48,12.09-30.75,29.94-36.77,42.77a110,110,0,0,0-8.49,25.26A.56.56,0,0,1,153.58,327.09Z" fill="#0071f2" data-primary="true"/>
<path d="M279.55,255.08s11.91-6.13,23.1-2.89c0,0-5.42-7.94-19.49-11.18" fill="none" stroke="#0071f2" stroke-linecap="round" stroke-linejoin="round" stroke-width="3"/>
<path d="M167.3,273a.57.57,0,0,1-.28-.08.54.54,0,0,1-.19-.74A86.63,86.63,0,0,1,185.27,252a89.8,89.8,0,0,1,57.1-20.15.54.54,0,0,1,0,1.08A88.64,88.64,0,0,0,186,252.8a85.23,85.23,0,0,0-18.2,19.88A.54.54,0,0,1,167.3,273Z" fill="#2f2e41" data-secondary="true"/>
<path d="M579.86,489.59c-1.32,0-2.66,0-4-.08a.55.55,0,0,1-.52-.56.54.54,0,0,1,.57-.52c21.92.86,40.2-5.37,54.34-18.52,15.17-14.1,22.79-33.78,26.51-47.8a138,138,0,0,0,4.49-27.36.54.54,0,1,1,1.08,0,139,139,0,0,1-4.52,27.58c-3.75,14.17-11.45,34.05-26.82,48.34C617.49,483.24,600.31,489.59,579.86,489.59Z" fill="#0071f2" data-primary="true"/>
<path d="M594.85,494.63c-12.55,0-19-5.16-19.33-5.4a.54.54,0,0,1-.16-.6.53.53,0,0,1,.5-.36c11.3-.06,20.86-9.09,21-9.18a.53.53,0,0,1,.76,0,.54.54,0,0,1,0,.76c-.39.37-9.07,8.57-20,9.42,2.72,1.62,9.54,4.82,20.15,4.17a.54.54,0,0,1,.07,1.08C596.76,494.6,595.79,494.63,594.85,494.63Z" fill="#0071f2" data-primary="true"/>
<path d="M504.41,226.75a52.3,52.3,0,0,1-2.7,16.65,50.9,50.9,0,0,1-47.65,34.78c-27.81,0-50.35-23-50.35-51.43a52.2,52.2,0,0,1,3.62-19.2,52.84,52.84,0,0,1,3.8-7.69,50.1,50.1,0,0,1,42.93-24.54,49,49,0,0,1,18,3.39,46.41,46.41,0,0,1,5.07,2.32A51.54,51.54,0,0,1,504.41,226.75Z" fill="#2f2e41" data-secondary="true"/>
<path d="M758.87,291.9,711.59,402.34,506.22,287.93l14.07-28.52-20.95-10.15a49.84,49.84,0,0,0,2.37-5.86L522.46,253l14.43-33.64Z" fill="#0071f2" data-primary="true"/>
<line x1="716.28" y1="287.93" x2="678.74" y2="372.39" fill="none" stroke="#fff" stroke-miterlimit="10" stroke-width="2"/>
<line x1="675.13" y1="271.69" x2="639.04" y2="352.53" fill="none" stroke="#fff" stroke-miterlimit="10" stroke-width="2"/>
<line x1="641.2" y1="260.14" x2="606.19" y2="334.85" fill="none" stroke="#fff" stroke-miterlimit="10" stroke-width="2"/>
<line x1="610.89" y1="250.39" x2="580.93" y2="320.77" fill="none" stroke="#fff" stroke-miterlimit="10" stroke-width="2"/>
<line x1="585.62" y1="246.06" x2="555.66" y2="307.42" fill="none" stroke="#fff" stroke-miterlimit="10" stroke-width="2"/>
<line x1="564.33" y1="237.76" x2="537.26" y2="296.23" fill="none" stroke="#fff" stroke-miterlimit="10" stroke-width="2"/>
<line x1="519.29" y1="287.93" x2="545.2" y2="230.18" fill="none" stroke="#fff" stroke-miterlimit="10" stroke-width="2"/>
<line x1="533.83" y1="237.76" x2="733.68" y2="310.85" fill="none" stroke="#fff" stroke-miterlimit="10" stroke-width="2"/>
<line x1="526.07" y1="256.86" x2="721.92" y2="342.43" fill="none" stroke="#fff" stroke-miterlimit="10" stroke-width="2"/>
<line x1="517.74" y1="274.3" x2="707.08" y2="372.39" fill="none" stroke="#fff" stroke-miterlimit="10" stroke-width="2"/>
<path d="M488.17,201.66s14.44,14.08,7.58,32.49" fill="none" stroke="#fff" stroke-linecap="round" stroke-linejoin="round" stroke-width="2"/>
<path d="M454.06,268.5s30.54,0,38.82-25.66" fill="none" stroke="#fff" stroke-linecap="round" stroke-linejoin="round" stroke-width="2"/>
<path d="M411.13,199.86a52.84,52.84,0,0,0-3.8,7.69l-20.94-10.94-18.92,37.54L172,164.13,235.15,52.24,407.68,158.71l-17,31.4Z" fill="#0071f2" data-primary="true"/>
<line x1="191.12" y1="159.8" x2="238.4" y2="72.09" fill="none" stroke="#fff" stroke-miterlimit="10" stroke-width="2"/>
<line x1="266.56" y1="88.69" x2="224.33" y2="167.38" fill="none" stroke="#fff" stroke-miterlimit="10" stroke-width="2"/>
<line x1="295.79" y1="104.21" x2="255.73" y2="179.29" fill="none" stroke="#fff" stroke-miterlimit="10" stroke-width="2"/>
<line x1="322.14" y1="119.73" x2="283.16" y2="193" fill="none" stroke="#fff" stroke-miterlimit="10" stroke-width="2"/>
<line x1="346.32" y1="134.89" x2="309.51" y2="203.83" fill="none" stroke="#fff" stroke-miterlimit="10" stroke-width="2"/>
<line x1="367.98" y1="146.08" x2="333.33" y2="211.77" fill="none" stroke="#fff" stroke-miterlimit="10" stroke-width="2"/>
<line x1="388.61" y1="156.37" x2="354.98" y2="221.15" fill="none" stroke="#fff" stroke-miterlimit="10" stroke-width="2"/>
<line x1="228.12" y1="80.55" x2="388.61" y2="173.75" fill="none" stroke="#fff" stroke-miterlimit="10" stroke-width="2"/>
<line x1="210.25" y1="110.71" x2="376.53" y2="193" fill="none" stroke="#fff" stroke-miterlimit="10" stroke-width="2"/>
<line x1="194.44" y1="143.19" x2="363.65" y2="215.74" fill="none" stroke="#fff" stroke-miterlimit="10" stroke-width="2"/>
<path d="M493.56,142,477.14,181a46.41,46.41,0,0,0-5.07-2.32L488,140.18A15.57,15.57,0,0,0,493.56,142Z" fill="#0071f2" data-primary="true"/>
<path d="M511.27,126.41a15.7,15.7,0,0,1-15.7,15.7,14.86,14.86,0,0,1-2-.13,15.7,15.7,0,1,1,17.71-15.57Z" fill="#0071f2" data-primary="true"/>
<path d="M501.52,116.84s9.39,7,2.89,16" fill="none" stroke="#fff" stroke-linecap="round" stroke-linejoin="round" stroke-width="2"/>
<path d="M468,102.23a.57.57,0,0,1-.31-.1.55.55,0,0,1-.14-.76c.11-.14,10.56-14.76,25.55-9.61a.54.54,0,0,1-.35,1c-14.22-4.89-24.21,9.06-24.31,9.21A.54.54,0,0,1,468,102.23Z" fill="#2f2e41" data-secondary="true"/>
<path d="M524.86,127.69h-.05a.53.53,0,0,1-.49-.58c.81-10.07-2-18.18-8.13-23.45a23.46,23.46,0,0,0-9.59-5,.53.53,0,0,1-.43-.63.55.55,0,0,1,.64-.43,24.05,24.05,0,0,1,10.08,5.22c4.47,3.84,9.58,11.18,8.5,24.35A.53.53,0,0,1,524.86,127.69Z" fill="#2f2e41" data-secondary="true"/>
<path d="M511.27,82.74a.52.52,0,0,1-.38-.16c-5.84-5.69-13.43-7.42-22.56-5.15a43.39,43.39,0,0,0-12.13,5.21.53.53,0,0,1-.75-.14.54.54,0,0,1,.14-.75A43.1,43.1,0,0,1,488,76.39c9.4-2.35,17.56-.48,23.61,5.42a.55.55,0,0,1,0,.76A.56.56,0,0,1,511.27,82.74Z" fill="#2f2e41" data-secondary="true"/>
<path d="M545.58,111.25a.54.54,0,0,1-.54-.54c-.14-15.65-6.62-27.64-19.28-35.62a54.19,54.19,0,0,0-19.13-7.34.54.54,0,0,1,.14-1.07,54.9,54.9,0,0,1,19.53,7.48c9,5.63,19.65,16.54,19.82,36.54a.53.53,0,0,1-.53.55Z" fill="#2f2e41" data-secondary="true"/>
<path d="M465.07,62.52a.54.54,0,0,1-.39-.92,40.33,40.33,0,0,1,12.59-7.92c7.37-3,19.28-5.6,34.17-.51a.54.54,0,1,1-.35,1c-14.54-5-26.17-2.49-33.36.47a39.93,39.93,0,0,0-12.27,7.7A.54.54,0,0,1,465.07,62.52Z" fill="#2f2e41" data-secondary="true"/>
<path d="M555.79,91.74a.55.55,0,0,1-.54-.5c-1-12.08-9.21-19.76-15.89-24.06a54.59,54.59,0,0,0-14.49-6.55.55.55,0,0,1-.4-.66.54.54,0,0,1,.66-.39,56.16,56.16,0,0,1,14.8,6.67c9.88,6.37,15.55,15,16.4,24.9a.53.53,0,0,1-.49.58Z" fill="#2f2e41" data-secondary="true"/>
<path d="M214.58,373.65h0a.54.54,0,0,1-.5-.58,75.69,75.69,0,0,1,3.32-15.92c3.65-11.13,9.48-18.76,16.85-22.07a.59.59,0,0,1,.7.19c.24.3,1,1.2-1.39,12-.87,4.59-2.35,17.2,1.15,20.1.89.73,2,.8,3.53.21a11.44,11.44,0,0,0,6-5.58,5,5,0,0,1-2.39-1.86c-2.35-3.47-.08-9.47.09-9.92.59-1.85,1.34-2.94,2.29-3.34a2.2,2.2,0,0,1,1.88.12,3,3,0,0,1,1.61,2.64,28.88,28.88,0,0,1-1.95,11.65,8,8,0,0,0,1.34.11c.71-.24,5.88-2.29,6-10,0-.66,0-1.27,0-1.72a.54.54,0,0,1,.52-.54.53.53,0,0,1,.56.5c0,.56.06,1.1.05,1.61.14,2.26.57,4.14,1,4.28.07,0,.42-.1,1-.95a8.45,8.45,0,0,0,1.08-2.35c.68-2.34,1.88-5.22,3.79-5.59,1-.2,2,.34,3,1.62a.53.53,0,0,1-.09.76.55.55,0,0,1-.76-.09c-.73-.93-1.4-1.34-2-1.23-1,.2-2.15,2-3,4.83a9.54,9.54,0,0,1-1.22,2.66c-.29.42-1.16,1.7-2.21,1.37-.54-.16-.92-.74-1.19-1.52a10.49,10.49,0,0,1-6.38,7.42l-.15,0h0a9.36,9.36,0,0,1-1.9-.18,12.62,12.62,0,0,1-6.64,6.28c-1.87.73-3.42.6-4.62-.39-4.71-3.9-1.66-20.45-1.52-21.15,1.59-7.3,1.71-9.85,1.65-10.7-16.69,8.07-19,36.54-19,36.83A.54.54,0,0,1,214.58,373.65ZM245,347.77a1,1,0,0,0-.37.08c-.44.18-1.08.79-1.68,2.68v0c0,.06-2.29,5.88-.21,8.93a4,4,0,0,0,2,1.49,27.76,27.76,0,0,0,1.93-11.35,2,2,0,0,0-1-1.7A1.37,1.37,0,0,0,245,347.77Z" fill="#2f2e41" data-secondary="true"/>
<path d="M278.83,318.43a.59.59,0,0,1-.39-.16.55.55,0,0,1,0-.77,88.47,88.47,0,0,0,10.86-13.62,24.81,24.81,0,0,1,2.78-14.41,1.62,1.62,0,0,1,1.77-.81,1.59,1.59,0,0,1,1.27,1.43c.36,4.33-1.84,9.43-4.71,14.09a32.09,32.09,0,0,0,1.21,5.81.29.29,0,0,0,0,.09c.11.85.69,3.34,1.82,3.63.73.18,1.78-.63,3-2.28l3.26-4.34a.54.54,0,0,1,.7-.14.53.53,0,0,1,.23.67c-.69,1.74-1.35,4.59-.55,5.21.24.18,1.34.58,5.14-2.24a.54.54,0,1,1,.65.87c-3.25,2.41-5.3,3.11-6.45,2.22-.89-.68-.9-2.16-.65-3.55l-1.45,1.94c-1.53,2.12-2.88,3-4.12,2.69-2-.5-2.54-3.92-2.62-4.5a31.76,31.76,0,0,1-1.06-4.66,90.24,90.24,0,0,1-10.3,12.67A.57.57,0,0,1,278.83,318.43Zm14.67-28.72a.52.52,0,0,0-.47.28,23.42,23.42,0,0,0-2.76,12.26c2.38-4.11,4.07-8.42,3.77-12.07a.5.5,0,0,0-.41-.46Z" fill="#2f2e41" data-secondary="true"/>
<path d="M277.15,350.91a.54.54,0,0,1-.27-.07.55.55,0,0,1-.19-.75c1-1.73,10.08-16.93,15.22-17.27a2.42,2.42,0,0,1,2.13.95c.29.33,1.27,1.88-1.66,6a6.5,6.5,0,0,0-1.19,3.4c0,.77.09,1.32.33,1.48s.55.06,1-.16c.9-1.25,3.55-4.7,5.33-4.35.42.08,1,.39,1.21,1.42a7.34,7.34,0,0,0,.82,2.13c1.22,2,2.55,2.62,4,1.78a3.4,3.4,0,0,0,1.57-3.37c-.31-2.57-.36-6.05,1.19-8a3.62,3.62,0,0,1,2.55-1.39,2.26,2.26,0,0,1,2.44,1.83c.23,1.25.33,3.64-.49,7.94a.55.55,0,0,1-.63.43.53.53,0,0,1-.43-.63c.78-4.14.69-6.39.48-7.55a1.16,1.16,0,0,0-1.25-.94,2.57,2.57,0,0,0-1.83,1c-1.37,1.73-1.19,5.24-.95,7.18a4.48,4.48,0,0,1-2.09,4.43c-1.94,1.16-3.93.37-5.45-2.15a8.23,8.23,0,0,1-.94-2.44c0-.21-.17-.57-.37-.61-.77-.15-2.85,2-4.31,4a.65.65,0,0,1-.2.17,2.19,2.19,0,0,1-2.22.15c-.6-.38-.87-1.2-.82-2.43a7.47,7.47,0,0,1,1.39-4c2.51-3.58,1.73-4.69,1.72-4.71a1.35,1.35,0,0,0-1.24-.58c-3.87.26-11.68,12.17-14.36,16.74A.55.55,0,0,1,277.15,350.91Z" fill="#2f2e41" data-secondary="true"/>
<path d="M296.06,391.07a3.3,3.3,0,0,1-2.39-.89c-2.9-2.81-.21-11.41,0-12.06a5.05,5.05,0,0,0,.18-1.81,7.24,7.24,0,0,0-2,1.92,7.32,7.32,0,0,1-3.06,2.25,3.14,3.14,0,0,1-3.17-.12c-1.22-.95-1.25-3-1.06-4.57a1.85,1.85,0,0,0-.65-1.69c-2.35-1.83-8.12,3.11-10.15,5.16a.54.54,0,0,1-.77,0,.55.55,0,0,1,0-.77c.81-.82,8.06-8,11.58-5.26a2.91,2.91,0,0,1,1.06,2.68c-.21,1.79,0,3.09.66,3.59.44.34,1.15.33,2.11,0a6.26,6.26,0,0,0,2.61-1.92c2-2.45,2.78-2.53,3.3-2.28s.77,1.24.37,3.1a.43.43,0,0,1,0,.05c-.78,2.38-2.33,9-.29,11,.74.72,2,.78,3.65.18a106.08,106.08,0,0,0,17.32-14.68.54.54,0,0,1,.77,0,.53.53,0,0,1,0,.76,108,108,0,0,1-17.57,14.89l-.11.05A7.23,7.23,0,0,1,296.06,391.07Z" fill="#2f2e41" data-secondary="true"/>
<path d="M658.17,456.66a.52.52,0,0,1-.42-.2.53.53,0,0,1,.08-.76c12-9.76,15.89-24.64,17.08-35.41A86.59,86.59,0,0,0,674.6,399a.54.54,0,0,1,1.07-.18,87.9,87.9,0,0,1,.32,21.61c-1.21,11-5.22,26.16-17.48,36.16A.54.54,0,0,1,658.17,456.66Z" fill="#2f2e41" data-secondary="true"/>
<circle cx="249.77" cy="50.61" r="4.51" fill="#2f2e41" data-secondary="true"/>
<circle cx="266.37" cy="60.72" r="4.51" fill="#2f2e41" data-secondary="true"/>
<circle cx="283.16" cy="69.56" r="4.33" fill="#2f2e41" data-secondary="true"/>
<circle cx="459.34" cy="555.94" r="4.51" fill="#0071f2" data-primary="true"/>
<circle cx="483.14" cy="556.43" r="4.51" fill="#0071f2" data-primary="true"/>
<circle cx="507.15" cy="556.25" r="4.33" fill="#0071f2" data-primary="true"/>
<rect x="301.39" y="337.38" width="255.9" height="37.72" rx="3.7" fill="#0071f2" data-primary="true"/>
<path d="M312.37,342.43H545.26a3.9,3.9,0,0,1,3.9,3.9v18.91a3.9,3.9,0,0,1-3.9,3.9H312.37a1.78,1.78,0,0,1-1.78-1.78V344.21A1.78,1.78,0,0,1,312.37,342.43Z" fill="none" stroke="#fff" stroke-miterlimit="10" stroke-width="2"/>
<circle cx="339.82" cy="355.42" r="5.05" fill="#fff" opacity="0.7"/>
<circle cx="473.01" cy="355.78" r="3.25" fill="#fff" opacity="0.7"/>
<line x1="491.13" y1="355.42" x2="540.63" y2="355.42" fill="none" stroke="#fff" stroke-linecap="round" stroke-linejoin="round" stroke-width="3" opacity="0.7"/>
<rect x="301.39" y="392.24" width="255.9" height="37.72" rx="3.47" fill="#0071f2" data-primary="true"/>
<path d="M312.78,397.29H546.42a3.11,3.11,0,0,1,3.11,3.11v20.49a3.11,3.11,0,0,1-3.11,3.11H312.78a1.83,1.83,0,0,1-1.83-1.83v-23A1.83,1.83,0,0,1,312.78,397.29Z" fill="none" stroke="#fff" stroke-miterlimit="10" stroke-width="2"/>
<circle cx="340.19" cy="410.28" r="5.05" fill="#fff" opacity="0.7"/>
<circle cx="473.37" cy="410.77" r="3.25" fill="#fff" opacity="0.7"/>
<circle cx="484.38" cy="410.77" r="3.25" fill="#fff" opacity="0.7"/>
<circle cx="495.39" cy="410.77" r="3.25" fill="#fff" opacity="0.7"/>
<circle cx="538.7" cy="410.64" r="3.25" fill="#fff" opacity="0.7"/>
<rect x="301.39" y="447.1" width="255.9" height="37.72" rx="7.68" fill="#0071f2" data-primary="true"/>
<path d="M314.32,452.15H546.47a2.69,2.69,0,0,1,2.69,2.69v21.32a2.69,2.69,0,0,1-2.69,2.69H314.32a3.73,3.73,0,0,1-3.73-3.73V455.88A3.73,3.73,0,0,1,314.32,452.15Z" fill="none" stroke="#fff" stroke-miterlimit="10" stroke-width="2"/>
<circle cx="339.82" cy="465.15" r="5.05" fill="#fff" opacity="0.7"/>
<line x1="501.34" y1="466.95" x2="539.96" y2="466.95" fill="none" stroke="#fff" stroke-linecap="round" stroke-linejoin="round" stroke-width="3" opacity="0.7"/>
<line x1="470.66" y1="466.95" x2="491.6" y2="466.95" fill="none" stroke="#fff" stroke-linecap="round" stroke-linejoin="round" stroke-width="3" opacity="0.7"/>
<rect x="301.39" y="501.96" width="255.9" height="37.72" rx="9.61" fill="#0071f2" data-primary="true"/>
<path d="M313.17,507H547.48a1.69,1.69,0,0,1,1.69,1.69V532a1.69,1.69,0,0,1-1.69,1.69H313.17a2.59,2.59,0,0,1-2.59-2.59V509.6A2.59,2.59,0,0,1,313.17,507Z" fill="none" stroke="#fff" stroke-miterlimit="10" stroke-width="2"/>
<circle cx="339.82" cy="520.01" r="5.05" fill="#fff" opacity="0.7"/>
<circle cx="508.38" cy="520.73" r="3.25" fill="#fff" opacity="0.7"/>
<line x1="519.75" y1="520.37" x2="539.96" y2="520.37" fill="none" stroke="#fff" stroke-linecap="round" stroke-linejoin="round" stroke-width="3" opacity="0.7"/>
<line x1="470.66" y1="520.37" x2="498.82" y2="520.37" fill="none" stroke="#fff" stroke-linecap="round" stroke-linejoin="round" stroke-width="3" opacity="0.7"/>
</svg>