 <!DOCTYPE svg PUBLIC "-//W3C//DTD SVG 1.1//EN" "http://www.w3.org/Graphics/SVG/1.1/DTD/svg11.dtd">
<svg xmlns="http://www.w3.org/2000/svg" viewBox="0 0 865.76 682.89">
<defs>
<style xmlns="http://www.w3.org/1999/xhtml">*, ::after, ::before { box-sizing: border-box; }
img, svg { vertical-align: middle; }
</style>
<style xmlns="http://www.w3.org/1999/xhtml">*, body, html { }
img, svg { max-width: 100%; }
</style>
</defs>
<path d="M347.83,524.42H504.25s-13.84-25.17-54.09-21.48c-38.46,3.5-40.41-12.38-60-14.32S354.35,501.61,347.83,524.42Z" fill="#ebebeb"/>
<path d="M553,414h85.75s-7.59-13.79-29.66-11.78c-21.07,1.91-22.15-6.79-32.93-7.87S556.58,401.49,553,414Z" fill="#ebebeb"/>
<path d="M602.65,581.73c-19.33-12.64-24.23-36.86-24-58.71,0-3.65-.48-7.49,1.21-10.73s5.73-5.52,9.08-4.08c2.77,1.22,4,4.3,5.64,6.92a21.6,21.6,0,0,0,8.88,8c2.38,1.15,5.31,1.82,7.61.49,3.15-1.81,3.4-6.16,3.3-9.8q-.33-10.12-.63-20.27a33.32,33.32,0,0,1,.85-10.81,11.32,11.32,0,0,1,7-7.78c3.48-1.06,7.86.83,8.68,4.37a34,34,0,0,1,.21,4.51,3.83,3.83,0,0,0,2.35,3.54c1.44.4,2.94-.68,4-1.77,3.7-3.75,6.16-8.59,8.45-13.28s4.51-9.61,7.86-13.69,8-7.35,13.29-7.78,10.94,2.66,12.4,7.73-1.43,10.34-4.62,14.57a82.28,82.28,0,0,1-16.7,16.48,6.75,6.75,0,0,0-2.79,3.09c-.73,2.45,1.64,4.8,4.08,5.53,2.76.83,5.73.49,8.59.74s6,1.44,7.16,4.1c1.59,3.66-1.43,7.63-4.48,10.25a70.85,70.85,0,0,1-20.52,12.35,24.27,24.27,0,0,0-7.65,3.89c-2.13,1.93-3.36,5.23-2,7.75s4.78,3.26,7.6,2.67,5.33-2.16,8-3.23c5-2,11.54-1.81,14.89,2.42a11.44,11.44,0,0,1,1.43,10.12,26.55,26.55,0,0,1-5.36,9.11A70.73,70.73,0,0,1,636.77,580c-11.62,4.3-22.46,5.64-34.21,1.72" fill="#ebebeb"/>
<path d="M673.36,453.67,673,454l-1.08,1c-.94.86-2.35,2.14-4.08,3.81a136,136,0,0,0-13.7,15.29c-2.65,3.43-5.41,7.31-8.29,11.46s-5.9,8.75-8.92,13.62a166.45,166.45,0,0,0-8.7,15.75c-1.34,2.86-2.55,5.73-3.76,8.73s-2.44,6-3.68,9.1A332.18,332.18,0,0,0,608.56,568a160.73,160.73,0,0,0-5.38,29.93,116.41,116.41,0,0,0,.19,20.62c.24,2.42.48,4.29.7,5.54.08.61.16,1.09.2,1.43a1.47,1.47,0,0,1,0,.49,75,75,0,0,1-1.18-7.45,113,113,0,0,1-.35-20.56A158.91,158.91,0,0,1,608,567.93a326.06,326.06,0,0,1,12.29-35.3q1.86-4.61,3.68-9.09c1.21-3,2.42-5.93,3.78-8.75A161.51,161.51,0,0,1,636.52,499c3-4.88,6.1-9.4,9-13.61s5.73-8.08,8.37-11.46a132.91,132.91,0,0,1,13.84-15.21c1.78-1.66,3.2-2.86,4.17-3.73l1.1-.95Z" fill="#e0e0e0"/>
<path d="M627.91,514.69a8.33,8.33,0,0,1-.37-1.55c-.22-1-.47-2.45-.78-4.3-.6-3.6-1.26-8.59-2-14.12s-1.43-10.49-2.14-14.07c-.32-1.79-.61-3.24-.83-4.3a13.37,13.37,0,0,1-.27-1.56,7.49,7.49,0,0,1,.49,1.52c.27,1,.61,2.42,1,4.2.77,3.58,1.58,8.59,2.29,14.09s1.35,10.41,1.82,14.13c.24,1.73.45,3.16.59,4.3A10.15,10.15,0,0,1,627.91,514.69Z" fill="#e0e0e0"/>
<path d="M675,504.83a1.94,1.94,0,0,1-.48.09l-1.43.16c-1.22.13-3,.3-5.13.6-4.3.56-10.27,1.53-16.77,2.86s-12.33,2.87-16.52,4.1c-2.09.6-3.77,1.13-4.94,1.43l-1.35.4-.47.12a2.29,2.29,0,0,1,.44-.22l1.3-.5c1.15-.43,2.87-1,4.92-1.66,4.15-1.3,10-2.86,16.51-4.3a156.75,156.75,0,0,1,16.82-2.75c2.18-.24,3.94-.37,5.16-.43h1.43A1.78,1.78,0,0,1,675,504.83Z" fill="#e0e0e0"/>
<path d="M608.58,567a3.11,3.11,0,0,1-.32-.56c-.23-.43-.5-1-.84-1.68-.73-1.43-1.72-3.58-2.87-6.23-2.39-5.3-5.48-12.71-8.79-20.93s-6.34-15.65-8.59-21c-1.14-2.62-2.08-4.75-2.76-6.3-.3-.7-.55-1.28-.75-1.72a4.16,4.16,0,0,1-.23-.62,2.23,2.23,0,0,1,.33.58l.85,1.67c.71,1.43,1.72,3.58,2.86,6.23,2.39,5.3,5.49,12.7,8.79,20.94s6.35,15.65,8.6,21l2.76,6.3.74,1.71A2.23,2.23,0,0,1,608.58,567Z" fill="#e0e0e0"/>
<path d="M670.91,545.52a2.31,2.31,0,0,1-.61.25l-1.82.65-6.69,2.29c-5.63,1.93-13.39,4.73-21.95,7.8s-16.34,5.83-22,7.68c-2.86.92-5.14,1.65-6.75,2.12l-1.84.54a2.53,2.53,0,0,1-.66.15,4.35,4.35,0,0,1,.63-.25l1.8-.64,6.69-2.29c5.64-2,13.39-4.73,21.95-7.82s16.36-5.82,22-7.66c2.86-.93,5.14-1.65,6.73-2.12l1.84-.55Z" fill="#e0e0e0"/>
<path d="M756,422.25a11.45,11.45,0,0,1-3.66,6.16c-1.32,1.1-5.51,3.34-6,.17a24.41,24.41,0,0,1,1.17-5.73c1-2.46,2.14-.85,3.8-.53S754.61,421,756,422.25Z" fill="#2f2e41" data-secondary="true"/>
<path d="M744.56,166.53c.6,2.12,1,4.2,1.43,6.16-1.62,2.42-4.81,1.52-7.16,2.87-1.12.6-1.43,2.86-2.49,3.16s-1.53-.9-2.35-.89c-2.09,0-3.12,4.3-5.73,3.17-1.43,1.06,0,5.11-1.76,5.45-1.29.25-2-1.76-2.78-3-.94-1.43-2.3-2.31-2.33-3.51s2.09-3.35,2.76-4.29,2.48-3.07,3.52-3.36c2-.51,3.93.23,5.42-.51s1.43-3.08,2-3.7,1.26-.38,1.76-.7a7.05,7.05,0,0,0,2-7c-.48-2-3.19-4.11-1.43-6.5a8.58,8.58,0,0,1,6.45,6.5c.15,1.21-.4,2.43-.3,3.69A18.5,18.5,0,0,0,744.56,166.53Z" fill="#2f2e41" data-secondary="true"/>
<path d="M745.13,147.43c-.33.9-1,.72-1.6,1.23s-1.31,2.12-2,2.29c-1.18.28-2.49-1.43-3.67-1s-.57,1.65-1,3.15a4.7,4.7,0,0,1-3.23-3.51c0-1,1.06-1.63,1.32-2.86.43-2-.69-3-1.32-4.93,0-.27.15-.3.15-.51,1.43-.38,4.29,2.86,7.46,3.5C743.28,145.14,745,144.91,745.13,147.43Z" fill="#2f2e41" data-secondary="true"/>
<path d="M739.73,325.88c.16,1.43-2,1.29-2.19.35C737.58,325.09,739.47,324.74,739.73,325.88Z" fill="#2f2e41" data-secondary="true"/>
<path d="M729.48,132.6c1.43.91,5,3,2.49,4.92A4.64,4.64,0,0,1,729.48,132.6Z" fill="#2f2e41" data-secondary="true"/>
<path d="M722.75,318.15c1.67-1.1,3.51-3.51,6.44-2.29-.64,2.19-2.86,2.13-4.29,3.16s-2.61,2.78-4.4,3a1.39,1.39,0,0,0-.59-.7C720,319.34,721.59,318.89,722.75,318.15Z" fill="#2f2e41" data-secondary="true"/>
<path d="M718.81,285.07c1.7,0,3.34-.63,4.53.19-.23,4.39-5.9,1-9.66,1.76-.8.14-1,.89-1.9.51a3.49,3.49,0,0,1,2.78-3.16C715.63,284.24,717.24,285.07,718.81,285.07Z" fill="#2f2e41" data-secondary="true"/>
<path d="M720.26,290.53c.17,2.43-2.59,2.7-3.37,4.58,1.22,2.23,1.69,5.35,3.08,7.37,0,1.35.23,3.1-.44,3.7-2.87.67-4.53-5.73-5.73-7.91-2.26.51-.2,9.17-3.22,8.09-1.43-.53,0-3-.3-4.92-.28-1.69-1.65-2-1.75-3.35-.09-1.09,1-2.24,1.32-3.34.46-1.6.15-4.67,1.74-4.75.79,0,1.84,2,2.35,2.12C715.72,292.56,717.79,290,720.26,290.53Z" fill="#2f2e41" data-secondary="true"/>
<path d="M714.84,316.73c-.53,1.33-3.55.69-3.79-.53C711.57,314.81,714.6,315.23,714.84,316.73Z" fill="#2f2e41" data-secondary="true"/>
<path d="M712.07,321a5.61,5.61,0,0,1-.59.7c-1.1-.43-2.29-.75-2.64-2.11C709.68,318.09,712,319.27,712.07,321Z" fill="#2f2e41" data-secondary="true"/>
<path d="M708.11,316.56c-.74,1.26-3.32-.11-4.29,1.22-1.53,0-3.07,0-3.37-1.58.43-1.29,1.82-.4,2.87-.53C705.19,315.49,707.64,314,708.11,316.56Z" fill="#2f2e41" data-secondary="true"/>
<path d="M687.48,383.92a41,41,0,0,0-1.06-4.51c0-.6.07-1.43,0-2.12a18.18,18.18,0,0,1-.44-2.64c.21-1.17,1.34-1.28,1.61-2.29.46-1.64-.55-1.9-.58-3.86,0-1.43.87-2.06,1.43-3.87.26-.84.27-2.4.57-3s2-1.43,2.64-1.76c2.24-1.32,4.05-3.78,6.3-4.23.57-.1,1.34.09,1.76,0,1.32-.27,3-1.6,4.82-2.1s3.36-.3,4.69-1.23a13.88,13.88,0,0,0,4.09-5.29c.68-1.92.47-3.55,1.76-4.21.63-.33,1.25,0,1.91-.17a8.53,8.53,0,0,0,2.63-1.59c1-1.1,1.19-2.86,2.34-4.05a20.23,20.23,0,0,1,3.36-2.62,5,5,0,0,1,2.35-.72c2.06.22,3,3.68,5.27,3,.8-.24,1.62-2.29,2.35-3.52,1-1.79,1.82-4.21,3.65-4.74,1.43-.44,3.14.69,4-.89.19-1.1-.68-1.76,0-2.46,1.71.13,4.58,2.87,7.16,3,1.43,0,4-1.81,4.3.71.13,1.11-1.05,2-1.32,3.16-.19.82.29,1.25-.14,2.12-1.19.56-2.45.86-2.49,2.46,0,2,2.36,2.87,3.8,4,1,.76,1.82,1.91,2.35,2.29s1.16.47,1.44.7c.94.75,1.61,2.42,2.86,2.47s3-2.24,3.81-4.4a42.21,42.21,0,0,0,1.43-8.28c.14-.88.67-1.74.89-2.63.56-2.41,1.32-5.73,3.06-6.5,1.75,2.22,2.35,6.54,2.05,10.21,1.17,1.06,3.24.7,3.51,3.16.1.85-.35,1.94-.29,2.87.1,1.43,1,2.77,1.18,4,.3,2.35-.33,4.3.58,6,1.13,2.15,3.38,2.08,4.83,4.4a9.63,9.63,0,0,0,.73,3.16c.14.53,0,1.43.16,1.76.46,1.18,1.73,1.29,2.19,2.28.23.49.16,1.43.44,2.29a20,20,0,0,0,2.05,3.52,16.43,16.43,0,0,1,1.89,3.53c.3,1.74-.76,2.95-1,4.38-.31,1.76,0,4-.58,5.81-.68,2.11-2.35,4.2-3.67,6.86a22.92,22.92,0,0,1-4.1,6.16c-.91.89-2,1.43-2.86,2.29a48.18,48.18,0,0,0-3.81,4.74c-1.32,1.67-2.86,2.95-3.95,4.39-1.5,2.1-2.25,5.47-4.83,5.8a13.05,13.05,0,0,0-4.29.72c-2.16,1-3.6,2.94-4.68,3s-2.18-1.59-3.23-1.76-2.09,1.07-3.79,1.06c-.7,0-1.06-.5-2-.88-2.09-.8-4.4-.77-4.68-3.52-.17-1.5.79-2.18.73-3.52s-1.16-1.68-1.62-2.87a3.32,3.32,0,0,0-.73-3.52,3.94,3.94,0,0,1,.59-2.46,18.28,18.28,0,0,0-2.87,1.43c-1.06.77-1.83,2.55-3.06,2.28-1.16-.49-.27-1.86-.44-3a16.42,16.42,0,0,0-2.5-5.11,19,19,0,0,0-5-2.29c-4.52-.85-7.4,2.06-11,2.47-.91.1-1.92-.18-2.78,0-2.93.62-6.21,3.43-8,5.27-3,.36-6.1-.74-9.24.36s-4.87,4.2-9.65,3.34c-1-1-2.62-1.43-2.64-3.17,0-1.34,1.66-2.2,2.21-3.16a14.07,14.07,0,0,0,1.6-4.93c0-1.17-.66-2.56-.58-4C687,386.28,687.48,385.05,687.48,383.92Z" fill="#2f2e41" data-secondary="true"/>
<path d="M685,310.57c.8-.12,1.43-.84,2.19-.87,1.72-.08,3.39,1.52,5.41,1.23.45.56.15,1,.16,1.94,1.7,1.1,4.52.9,5.41,3-1.29,1.63-3.19.46-4.84.17s-3.06-.13-4.68-.36c-2-.28-3.9-1.64-5.84-1.93-1.19-.17-2.41.21-3.53,0s-6.21-2.46-6.28-4,2.2-2.08,4.29-1.76C679.86,308.36,681.61,311.15,685,310.57Z" fill="#2f2e41" data-secondary="true"/>
<path d="M688.94,298.45c-1.1-.38-2.15-.18-2.63-.53-1-.75-.85-2.87-1.18-4.06s-1.53-1.86-2.19-3.5c-.94-2.41-1.43-7.78,1.17-8.27,1-.21,2.07.73,2.78.52,1.43-.42,1.16-2.61,2.34-3.52.66-.51,1.86-.29,2.79-.71a6.65,6.65,0,0,0,2.33-2.44c.62-.89,1.11-2.37,1.91-3s1.76-.74,2.49-1.43c1.92-1.76,2-4.21,3.51-6.34,1.3-1.79,3.35,1.73,3.52,3.16.72,1.13,2.15,1.43,2.78,2.65-.86,3.09-3.3,3.37-2.78,7.73a14.93,14.93,0,0,0,.87,3c.42,1,1.66,2.14,1.61,2.86-.09,1.32-2.29,1.26-2.78,2.65s0,1.43-.14,3.34c-.62,1.43-2.28,1.77-2.87,3.52-.61,2.09.1,4.8-1.3,6.33-1,0-2,1-3.22.87s-2.51-2.25-4.54-2.29c-.78,0-1.69.6-2.49.53S689.86,298.75,688.94,298.45Z" fill="#2f2e41" data-secondary="true"/>
<path d="M679.46,294.52c3.72,0,3.72,7,0,7S675.74,294.52,679.46,294.52Z" fill="#2f2e41" data-secondary="true"/>
<path d="M674,293.69a7.41,7.41,0,0,1,2,3.52c0,1.24-1.59,1.18-2,2.87-.68,2.53.32,5.4-.87,6.69a5.59,5.59,0,0,1-2.86.35,46.46,46.46,0,0,1-7-7.92,17.76,17.76,0,0,1-2.35-3.16c-.76-1.69-1-3.54-1.89-5.1s-2.18-2.37-2.87-3.86c-.61-1.25-.67-2.87-1.31-4.06s-1.62-1.57-2.35-2.46c-.46-.59-.73-1.43-1.16-2.12-1.85-2.63-5.39-4-5.56-7.9.75-1,1.52.38,2.87.7.9.2,2-.09,2.63.17,1.33.54,2.25,3,3.65,4.4.8.77,1.84,1.29,2.64,2.12a32.34,32.34,0,0,0,2.19,2.63c1,.7,2.28,1.16,3.52,2.11,1.69,1.3,4.71,2.64,5.13,5.28.1.66-.26,1.76-.16,2.28.21.93,1.17,1.33,1.76,2.12s.87,2.44,1.91,2.63S672.89,293.49,674,293.69Z" fill="#2f2e41" data-secondary="true"/>
<path d="M604.93,256.76c1.26.49,5.45,6.63,4.29,10a3.23,3.23,0,0,1-3.22,1.93c-2.86-.56-2.35-8.31-1.43-11.46A.86.86,0,0,1,604.93,256.76Z" fill="#2f2e41" data-secondary="true"/>
<path d="M507.58,345.76a8.7,8.7,0,0,1,1.91-4.58c1.34-1.21,3.18-1.08,4.54-1.94a11.88,11.88,0,0,0,3.5-3.16c.71-1.1.75-2.35,1.32-3.17.4-.57,1.29-.71,1.76-1.43s.33-1.77,1-2.46c2-1,2.62,3.42,2.94,6.5.08,1,.5,2,.43,2.46-.21,1.43-1.44,1.69-1.9,2.65A32.58,32.58,0,0,1,520.61,351c-1,2.73-1.54,5.73-2.35,8.09-.28.86-.9,1.53-1.16,2.28-1.05,3-1.43,7.7-3.37,9a13.42,13.42,0,0,1-4.1,1.24,4.4,4.4,0,0,1-3.81-3.51c-.24-1,0-2.05-.14-3.18a17.69,17.69,0,0,1-.73-4.21c.33-3.58,3.22-5.33,3.36-8.28C508.43,350.21,507.42,348,507.58,345.76Z" fill="#2f2e41" data-secondary="true"/>
<path d="M437,95.48c.17,3-3.75,2.58-4.3,5.11-.23,1.13.45,2.67.29,3.68-.3,1.85-1.78,1.32-3.65,2.29-1,.5-1.89,2.34-2.87,2.47s-1.54-.68-2.19-.53c-1,.21-.64,1.63-2,1.93-1.13.24-3.1-1.2-3.23.53-.08,1.12,1.77,1.72,2.87,1.57.91-.1,1.59-.85,2.49-.87,1.73,0,2.86,1.55,4,1.59,2.51.09,5-2.79,7.62-2.46,1.19.14,1.89,1.16,2.78,1.06,1.43-.17,2.6-2.12,3.65-2.87-.44-3,0-6.87,2.35-7,1.57-.11,3.95,3.25,4.29,0a2.57,2.57,0,0,0-2.19-2.65c-.84,0-1.94,2-2.63.36,0-1.6,1.43-1.19,2.35-1.59.61-.28,1.06-1.1,1.74-1.43,3.48-1.43,8.31,1.43,9.67-2.11-3.09-3.16-8.35,1.15-11.86.88a4.86,4.86,0,0,1-3.95-3.17c-.16-.54,0-1.27-.14-2.27a24.83,24.83,0,0,1-.59-3c.14-3.17,6.73-3.78,6.73-7.74-1.26-1.43-4.94-1.21-6.14.36-.45.55-.42,1.68-1,2.86-1.32,2.4-5.56,2.69-6.88,5.63a7.3,7.3,0,0,0-.58,3.52C433.87,93.27,436.93,93.73,437,95.48Zm-34.84,172c-4.21-.75-8.59,1.3-11.46,2.86-1.67.87-3.36,2.22-4.84,2.29s-2.74-.89-4.09-1a18.08,18.08,0,0,0-5.73.34c-1.69.36-3.21,1.8-4.68,1.93-2.87.26-5.54-3.08-7.32-4.75-1.1-1-2.2-1.85-3.22-2.86s-2.52-1.65-3.37-2.64c-1.16-1.35-1.16-3.68-1.76-5.46-.71-2.09-2.86-3.63-4.54-5.62-1.24-1.43-4.08-3.71-4.39-5.63-.16-1,.36-2.11.3-3.16-.09-1.55-1-2.42-1-3.53,0-1.54,1.54-2.73,1.9-4,.19-.67.1-1.6.29-2.46.41-1.79,1.43-2.86,1.17-5.45a32.13,32.13,0,0,1-.87-3.34c0-.93.5-1.43.44-2.29-.11-1.51-1.73-1.79-1.9-3.51s1.43-3.27,2.33-5.28c.43-.91.65-2.3,1-3,.82-1.43,2.17-2.22,2.78-3.69.46-1.09.62-2.69,1-3.51.53-1.06,1.61-1.62,2.64-3,.83-1.13,1.17-2.49,1.74-3a15.85,15.85,0,0,1,2.64-1.23,12.53,12.53,0,0,0,6-6.5,8.49,8.49,0,0,1,1.17-6c.91-1.81,1.55-3.54,3.08-4.57,1.83-1.25,3.55-1.36,4.83-3.7a12.13,12.13,0,0,0,1.62-4.39c0-1.75-1.44-4-2.8-4.23s-3.35,1.21-4.09-.53c-.23-.54.08-1.84,0-2.46-.17-1.14-1-2-1-2.86-.07-1.66,1.35-3.38,1.75-5.29.56-2.59,0-4.57-.14-7.56,2-3.88,6.6-2,11.12-1.59.67,0,1.43-.18,2.19-.17,2.69.09,4.81,1.06,5.73-1.75a22.23,22.23,0,0,0,.44-6,13.84,13.84,0,0,0-3.07-4.93c-1.44-1.1-3.57-.63-4.4-2.63.67-3.48,3.92-.59,5.86-1.43,1-.43.87-2.5,1.76-2.87.6-.23,1.36.73,2.19.7a13.77,13.77,0,0,0,3.95-2.1c.93-.76,1.23-2.35,2.05-3,.56-.45,1.3-.39,1.9-.71a11.61,11.61,0,0,0,3.67-3.16c1.2-1.75,1.75-3.91,3.21-4.3,2-.43,6.41.48,6.74-2.12s-1.8-4.38-1-7c.62-2.09,2.18-1.72,4.4-3,1.07.92.75,3.52.87,5.11,1.36,0,4.12-.48,4.4-1.93.32-1.82-2-3.67-2.5-4.75s-.66-3.27-1.76-3.53c-2.22-.51-4.38,3.7-7.16,3.7A5,5,0,0,1,408,97.57a17.14,17.14,0,0,1-.15-2.86,14.6,14.6,0,0,1-.58-4.92c1.11-2.31,3.71-2.69,5.55-3.88.72-.44,1.28-1.43,2.05-1.76,1.32-.57,3.26,0,4.54-.87.82-.56.59-1.52,1.17-2.64.38-.71,1.26-1.11,1.76-1.93.35-.57.39-1.43.74-1.93,1.27-1.91,3.59-2.61,4.53-4.58.42-.86-.73-1.19-.44-2.47s2.31-.31,3.37-.53c1.43-.25,2.86-2.39,4.39-2.86s3.44-.17,5-.87c.91-.43,1.76-1.44,2.63-1.59.3,0,1.16.2,1.6.17s1.16-.43,1.91-.53c1.07-.13,2.4.33,3.81.36,2.3,0,4.51-.83,6.43.17,1,.53.9,1.9,2.2,2.46.65.29,1.52-.11,2.48,0,1.43.17,2.86,1.43,4.84,1.59.67.09,1.43-.1,2.05,0a31.57,31.57,0,0,1,6.44,2.46c1.7.69,5.34,1.56,5.41,3.51.08,2.32-3.16,3-4.54,3-2.3,0-5.35-1.61-7.76-.7a6.5,6.5,0,0,0,6.46,6.52l.43,0c.29-1.86-1.85-.83-1.62-2.63,1.43-1.32,3.21.89,5.27.53.8-.26.68-1.66.88-2.64,1.74-1.27,3.92-3.13,6.58-1.76a1.55,1.55,0,0,1,.59-.7c.19-1.93-1.75-2.86-.73-4.75.52-1.25,3.24-.82,3.67.18.21,1.19-.68,1.06-.59,2.11a2.3,2.3,0,0,0,2.33,1.59c1.43-.1,1.74-1.65,3.08-2.46.55-.35,1.35-.38,2-.71s1.53-1.2,2.2-1.43,1.22,0,1.89-.17,1.79-1.06,2.5-1.06,1.51,1.23,2.63,1.43c.62.09,1.3-.43,2.21-.53s1.43.1,2,0c1.44-.24,2.35-1.13,3.51-1.06.82,0,2.22,1.43,2.78.7.94-1.13-1.26-2-.57-3,2.23.2,4.62.14,6.87.53,3.35.57,6.49,2.56,9.51,2.64-.29-2.44-2.61-1.74-3.65-2.87a10.69,10.69,0,0,1-1.62-3.69,22.93,22.93,0,0,1,2-4.23c1.29-1.43,5.52-1.43,6.73.53.83,1.35.56,3.38,1.76,3.34s1.59-3.08,2.78-3.17,1.5,2,2.49,1.95c1.22,0,2.06-2.75,3.66-2.86.86,0,1.15.53,2.48.7.92-.7-.3-1.65.16-2.63,1.63-1.44,5.37-.35,7.46-1.24.59-.84-.75-1.43-.14-2.29,1.8-1.52,4.82-1.64,7.9-2.27,1.88-.39,3.65-2,5.11-2.12s3,1.08,4.4,1.06a6.91,6.91,0,0,0,2.63-.71c.83-.38,1.44-1.34,2.21-1.58,1.27-.38,2.86.18,4.38,0s3-.92,4.1-.71,1.91,1.58,2.86,1.76c3.08.58,6.26-.55,9.08.35.5.17,1,.8,1.6,1.06,1.88.83,3.17.57,3.52,3.33,1.44.63,2.34,2.27,4.1,2.87,1.16.37,2.33-.17,3.65-.17a33.75,33.75,0,0,1,5.41.34c.85.16,1.54.9,2.35,1.06a12.75,12.75,0,0,0,2.05,0,23.45,23.45,0,0,0,2.49.53c1.53,0,2.69-1.7,3.95-1.93a8.62,8.62,0,0,1,2.2.34c2.46.26,5.31-.39,7.31.19a14.08,14.08,0,0,1,4.1,2.86c.86.79,1.43,2.05,2.2,2.64a7.25,7.25,0,0,0,3.51,1.43c.93-.17,1-1.43,1.91-1.92,2.86-.79,8.06,1.1,10.39-.19.9-.5.72-1.64,1.43-2.29,4.4-.26,8.77.23,12.89.36a26.86,26.86,0,0,1,4.3-.17c1.43.3,2.5,2,4,2.63,1,.39,2.65.19,4.1.53,1,.23,1.76.93,2.49,1a16.49,16.49,0,0,0,4.54-.35c3.35-.33,7.67-.54,11,1.06,1.75.85,2.49,2.57,4.38,2.87,2.71.36,6.89-.27,9.67,0a16.77,16.77,0,0,0,1.74.36c.93-.09,1.44-1,2.64-1.06,1.43,0,3.76,2.72,5.87,2.29.9-.75-.73-1.76.13-2.47s2,0,3.22,0c.7,0,1.55-.43,2.21-.35,1.6.17,3.13,1.9,5.11,2.46a15.36,15.36,0,0,0,5.73.36,12.86,12.86,0,0,1,4-.53c.64.1,1.23.67,1.9.87s1.23,0,1.76.17,1,.72,1.44.89c2.72.93,6.34,1.43,9.22,2.46,1.69.63,3.42,1.89,4.82,1.94.7,0,1.32-.36,2.21-.36,4.42,0,9.62,2.25,9.21,7.16-5,1.67-9.33-4-14.77-2.36a2.7,2.7,0,0,0-1.72,2.46c.2,3.06,6.63,2.86,7.16,5.73-1.06.94-2.2,0-3.08.17A10.17,10.17,0,0,0,762,90.18c-1,1.12-1.86,4-2.86,4.23-1.3.3-3.31-1.56-5.27-1.06-.72.18-1.43,1.26-2,1.43-1.62.37-3.66-1.06-4.68,1.23.54,1.6.21,3.85,1.32,4.75.71.59,1.61.13,2.49.53s1.59,2,2.48,2.87,1.51.71,1.91,1.59c.09,1.29-.43,1.43-.3,2.27.23,1.44,2.15,1.82,2.19,2.87.08,1.26-1.2,1-1.43,2.27-.08.84.79,1,.89,2.12,0,.72-.49,1.44-.44,2.28.07,1.17.83,2,.73,3a2.69,2.69,0,0,1-1.32,1.94c-2.86-2.17-5.33-5.14-8.35-7.91s-8-6.34-8.49-12.31c0-.92,1.62-1.64,1.9-3a18.51,18.51,0,0,0-.14-2.1c.1-2.06,1.53-4,1.43-5.27a7,7,0,0,0-3.23-4.3c-.85.53,0,1.59-.15,2.47a3.2,3.2,0,0,1-2.19,2.46c-2.76.29-3.08-4.3-7.47-3a4.6,4.6,0,0,0-2.47,4.91c.13.76,1.88,1.59,1.77,2.63s-4,1.31-4.84,1.24c-2.37-.23-3.58-2.35-5.73-2.3-1.05,0-2,1.06-2.79,1.24-4.61,1-11.46-2.73-13,2.1-.23.69-.1,1.58-.3,2.29-.29,1-1,1.82-1.16,2.46s-.16,1.62-.45,2.47-3,3.76-.58,4.58c.58.19.86-.32,1.62-.19,1.24.2,3.33,2.64,4.82,2.64.88,0,2.11-1.19,2.78-1.23,1.43-.07,2.33,1,3.36,1.59s2.5,1.8,3.23,1.76c1.43-.09.71-1.25,2-1.76,2.54.9,3.73,4.12,6.15,6.68.89.92,2.19,1.72,3.36,3,.68.72,2.71,2.62,2.79,3.52s-.57,1.21-.74,1.94c-.23,1.07.33,1.86-.29,2.63-2.33-1-2.86-3.79-4.54-6.14-.61-.89-1.24-1.92-2.19-3.18-.43-.56-2-2.53-2.86-2.1-1.83.84,1,4.19,1.43,4.92a13.21,13.21,0,0,1,2.34,5.29c0,1-.56,3-.59,4.74,0,1.21.26,2.32.16,3.33a29.49,29.49,0,0,1-1,3.35c-.35,1.29-.42,2.87-.74,3.7-.57,1.57-2.47,3.45-3.8,3.51s-1.74-1.12-2.87-1c-1.8.1-2.13,2.09-3.22,3.68.09,1.73.54,2.33.29,3.52-.39,1.86-2.55,2.19-2.48,4.06s2,2,2.86,2.86a26.61,26.61,0,0,1,4.83,5.28,10.86,10.86,0,0,1,1.9,4.91c-.1,1.75-4.29,4.17-6,3.53s-1.07-2.49-1.43-4.23c-.3-1.33-1.17-1.9-1.6-3-.25-.57-.13-1.43-.45-2.11-.88-1.79-2.43-.81-4.29-1.94-1.19-.73-.85-2.29-1.32-3.69-.63-1.89-3.28-2.78-5.41-2.28-1.56.36-2,1.93-3.51,2.28-2.15-1.53.44-5.3-2.19-5.63-2-.26-3.37,3.48-4.54,4.58-.8.73-2.25.88-2.35,1.92-.17,2,1.7,1.55,3.22,2.29s1.53,2.55,2.78,2.64,1.75-1.29,2.78-1.43a6.47,6.47,0,0,1,4.39,1.58c-.73,2.14-4.66,3.7-4.68,6.51,0,1.63,1.58,1.91,2.78,3s2.36,3.48,3.81,5.27c.61.77,1.62,1.29,1.9,1.76.68,1.16.58,2.58,1.32,3.35.12,1-.37,1.2-.3,2.11.37,1.26,2,1,2.35,2.29-.3,3,.74,5.88-1.32,7-1,5.44-2,9.69-5.13,12.66-2.77,2.66-6.45,3.45-9.8,4.75-.88.33-1.56,1.43-2.34,1.76-2,.79-5.41.3-5.55,3.17-.09,1.43,1.43,2.24,1.6,3.69.19,2.19-1.43,4.41-2.64,4.57a2.67,2.67,0,0,1-2.86-2.45h0c-.11-2.11,2.18-2.95,2.35-4.23a3.72,3.72,0,0,0-3.2-4.18,3.12,3.12,0,0,0-.61,0c-1.93.17-6.33,4.83-6.43,7.38-.09,1.9,3.14,5.87,4.3,7,4.11,4.3,8.47,7,7.76,17.59-1,2.69-3.65,3.26-5.73,4.74-1.56,1.13-2.35,4.63-5,4.92-1.05-.43-.43-2.42-.73-3.34-.4-1.26-2.49-1.87-3.8-3.16-1.07-1.06-1.53-2.72-2.35-3.69-1-1.22-2.55-1.44-3.81-2.3-.78-.51-1.43-2.32-2.19-2.27-1.29,0-.84,1.54-1.17,4s-1.8,4.29-1.32,7.16c.22,1.17,1.43,2.13,2,3.33,1,2,1.16,4.3,2.19,5.46.69.74,1.86.91,2.64,1.57,1.56,1.33,4.29,4.3,4.84,5.82.63,1.84,0,4,.44,6,.49,2.26,2.86,3.86,1.43,6.16a11.46,11.46,0,0,1-3.69-2.32,13.27,13.27,0,0,1-4.3-5.29,15.4,15.4,0,0,1-1.17-2.1c-.52-1.58-.4-3.37-.88-5.29a16.69,16.69,0,0,0-3.23-5.62c-1-1.16-2.87-1.85-2.87-3.53-.1-2.35.68-5.12.59-7.9,0-.6-.36-1.2-.43-1.94-.16-1.43.1-3-.16-4.29a21.37,21.37,0,0,0-1.31-3.17,34.71,34.71,0,0,1-1.16-3.35c-.61-2-1.26-5.94-2.64-6.14s-2.86,3.29-4.84,3.34a2.78,2.78,0,0,1-2.49-2.12c-.17-1.08.47-2.16.44-3.34,0-2.35-1.43-3.26-2.49-4.92-.41-.68-.53-1.61-.87-2.11-.67-1-1.93-1.43-2.78-2.46a14,14,0,0,1-2.06-3.17c-.56-1.43-.75-3.16-1.61-3.35s-1.77,1.26-2.63,1.59a21.49,21.49,0,0,1-4,.89c-2.87.24-5.33-.7-5,3.51-.46,1.89-2.12,1.92-3.22,2.86-1.44,1.15-2.44,3.44-4,5.27-.74.9-1.81,1.43-2.49,2.29s-.73,1.81-1.31,2.47c-1.57,1.77-3.91,1.91-5,4.39-.07,2.87,1.14,5.13.87,7.91-.13,1.27-.92,2.39-1,3.69a29.62,29.62,0,0,1,.16,3.52c-.13.65-.73,1-1.18,1.76s-.57,1.64-.87,2.11c-.5.76-1.32,1.29-1.78,1.93-.73,1.06-.88,1.82-1.6,1.95-3.21.54-4-6.79-5.41-9.85-.66-1.43-2-2.69-2.64-4.4a68.76,68.76,0,0,0-2-6.69,44.18,44.18,0,0,1-2.77-5.81c-.53-1.66-1-3.77-1.44-5.61a36.85,36.85,0,0,1-1.16-6c-.12-2.27.36-3.69-1.17-4.57-1.43.4-2,2.11-3.67,2.11s-5.72-3.25-4.52-6.16c-1-1.75-3.61-2.69-5.57-4.75-1.13-1.18-2.15-4-4.1-4.21a9,9,0,0,0-1.76.34c-1.23.13-3.43-.13-4.82,0a26.48,26.48,0,0,1-6.16.36c-1.43-.19-3.21-.52-4.68-.7-1.86-.23-4.3-.78-5.42-1.94-.64-.73-.9-3-2-3.35s-2.11.89-3.37,1.23c-2.68.75-4.92-.65-6.73-2.1-1.29-1-2.46-1.56-3.36-2.29-2.24-1.79-2.64-7.16-6-7.16a3.25,3.25,0,0,0-3.21,2.46,9.56,9.56,0,0,0,1.61,4c1.64,2.78,4.65,3.82,5.57,7.56.6.29,1.83-.64,2.48.19.57,1.59,0,4.56,1.31,5.27,6.09,1.2,7.82-2.8,10.54-5.63,1.59,1.24,1.06,2.32,1.62,3.69a5.45,5.45,0,0,0,2.48,3c.74.33,1.69,0,2.79.51.69.32,3.58,3.61,3.67,4.76s-1.91,4.55-2.51,5.45-1.43,1.32-1.75,2.11a17.83,17.83,0,0,0-.3,2.29c-.27.7-1.57,1.62-2.33,2.46a33.64,33.64,0,0,1-2.49,2.28c-.93.86-1.44,2-2.5,2.47-1.94.86-3.79.49-5.41,1.75-1.06.83-1.06,2.69-2.33,3.7s-3.64,1.06-5.57,2.12c-1.25.67-2,2-3.07,2.46-.44.18-1,0-1.43.17-1,.3-1.86,1.13-2.78,1.43s-1.43.12-2.19.36c-2.26.77-4.29,3.54-6.59,1.93-1.07-3-1.24-6.7-2.49-9.32-.64-1.34-1.89-1.76-2.35-3.16,0-1.13,1.08-.83,1.18-1.76-.37-1.91-1.86-2.87-2.78-4.4-.44-.79-.66-1.91-1.17-2.86-1.75-3.05-5.19-4.63-5.86-8.44-.19-1,0-1.85-.14-2.63a10.61,10.61,0,0,0-1.76-3.7c-.56-.79-1.71-1.32-2.34-2.46-.43-.76-.51-1.83-.89-2.65a28.08,28.08,0,0,0-5.84-8.43c-1.2.2-2.48.3-3.08,1.23a30.14,30.14,0,0,0,2.49,6.15,38.23,38.23,0,0,1,2.78,5.63c.23.73.19,1.69.45,2.47.91,2.79,3.81,3.63,4.38,6.85.38,2.15-.09,3.66.44,5.8s3.05,3.3,4.1,5.27c.86,1.64.87,3.93,1.43,5.46.89,2.26,3.34,3.24,5.13,4.75a48.17,48.17,0,0,1,4.09,4.93c.79.84,1.86,1,2.05,1.93.26,1.19-.42,1.59-.59,2.64,1.13,1.43,2.22,4,4.11,4.22.77.09,1.75-.84,2.87-1.06.6-.1,1.26.12,1.76,0,.77-.17,1.43-1,2.34-1.23,1.44-.39,3.23-.23,5.12-.53s3-2.09,4.39-1.57c1.51,2,.43,4.29,0,6.15-.15.68-.15,1.43-.28,1.94-.81,3.13-2.87,5.45-3.81,8.26-.3.86-.25,1.92-.59,2.86A35.24,35.24,0,0,1,516.8,277a32.31,32.31,0,0,1-2.86,3.52c-1.06,1-2.33,1.61-3.52,2.64a35.28,35.28,0,0,0-6.45,7.75c-.63,1-.94,2.26-1.6,3.16-1,1.27-2.43,1.9-3.22,3.16a36.19,36.19,0,0,0-1.76,4.57c-.81,2-2.48,3.37-2.19,6.16.11,1.06.9,1.73,1.17,2.86a14.48,14.48,0,0,1-.14,5.45c.81,2.4,1.43,5.09,2.86,6.68.19,3.55-.24,7,0,10,.16,1.92.77,3.33.14,5.09a15.4,15.4,0,0,1-4,5.27c-1.43,1.08-3.49,1.44-5,2.65-1,.9-1.89,2.47-2.93,3.53-1.72,1.73-4.08,3.33-4.3,5.09a14.69,14.69,0,0,0,.88,3.51c.57,2.61,1.13,6.35.14,9.15-1.06,3-6.42,2.41-7,5.63-.18,1,.36,1.76.29,2.86a27.6,27.6,0,0,1-1.43,5.12c-.65,1.43-2.12,2.1-3.08,3.33-1.19,1.56-1.81,3.81-3.07,5.46a49,49,0,0,1-6.3,6.5,16.6,16.6,0,0,1-8.49,3.69c-1.77.16-3.68-.5-5.56-.17-.68.12-1.43.87-2.34,1.05-.53.11-1.06-.1-1.61,0-.91.18-1.77,1.07-2.63,1.06-1.89,0-4.3-2.74-4.4-5.45,0-1,.75-2,.73-3s-1.16-2.53-2.05-4.58-1.18-4.18-2-5.73-2.11-2.52-2.78-3.86c-1.35-2.71-1.43-5.92-1.91-9.15-.14-1.06-.74-2.21-.87-3.53-.16-1.6.16-3.41-.14-4.74a28.9,28.9,0,0,0-1.76-3.35c-1-2.27-1.77-5.25-2.64-7s-2.49-3.39-2.63-5.27a31.1,31.1,0,0,1,.28-4.92c.16-1.24.93-2.22,1.18-3.51.17-.88,0-1.86.14-2.87.74-4,4.44-5.48,3.95-10.38-.2-2.07-1.43-3.09-1.6-5.45-.09-1.11.46-2.07.44-3.17a18.38,18.38,0,0,0-1.62-5.1c-1.43-3.88-2.39-7.43-4.53-10.36-1.16-1.62-2.7-2.75-3.66-4.23a12.51,12.51,0,0,1-1.76-4.39c0-1,.65-1.64.88-2.65.31-1.29.33-3.76.73-5.73a18.35,18.35,0,0,0,.88-4.76c-.14-1.43-2-4.29-3.52-4.74-2-.61-4.14.79-6.73.53C405.24,272.48,405.41,268.05,402.19,267.49Zm80.95,63c.67-1.29,1.53-4.92,0-5.8h-.29c-.66,1.42-1.36,4.94.23,5.76Zm-2.05-36.76c.49-1.21,1.65-2.5,1.43-4-.43-3.4-5.72-1.72-6.28.7-.42,1.63.23,2.86-.3,4.57.57,1.3,2,1.56,3.81,1.43,1-.59.88-1.59,1.34-2.71Zm-8.93,18.12c.58-1.29-.92-2.13-1.16-3.52-.3-1.62.31-3.53-.89-4.4h-.43c-1.08,2.85.43,7.6,2.48,7.88ZM572,137.15c-.56-1.33-2.13.39-1.43,1.59,1,.1,1.3-.6,1.43-1.58Zm-34.11,7.16c2.38-.56,0-5.11-1.76-4.58-2.33.77.14,5,1.76,4.65ZM527.06,167c.73-6.1-3.24-6.56-4-10.91.33,0,.16-.5.43-.52,1-.55,2.42.89,2.87-.52a3,3,0,0,0-3-3,2.94,2.94,0,0,0-1.33.33c-.65-.53-.72-1.72-.88-2.86-1.66-1.19-5.72-3.78-5.72-6.16,0-1.95,2.14-3,4.53-3,1-.93.36-3.75-.58-4.41-3.78-1-5.8-.32-8.21,1.76-1.14,1-2.42,1.69-3.06,2.29a4.78,4.78,0,0,0-1.32,2.87c.09,1.08,1.43,1.73,1.91,3.16.25.75.2,1.68.42,2.29.65,1.71,2.28,2.87,3.53,4.3.87,1,3.32,3.19,3.36,4.39s-.76,1.24-1,2.3a15.43,15.43,0,0,0-.45,4.39c.32,1.93,2,2,3.51,2.87s3,2.24,4.54,2.29a5.65,5.65,0,0,0,4.47-1.84Zm-34.37-12.66c4-.86,2.16-4.89.14-6.33-1.51-1.1-3.33-2-5.11-3.35-1-.76-5-2.17-5-3.69s2.86-2.19,1.76-5.1c-2-.59-6.77.34-6.44,3,.18,1.54,1.7.69,2,2.3-1.43.6-3.18,2.21-4.68,1.93-1.79-.35-2.25-3-3.22-4.58-1.43,0-2.31-1.62-3.95-1.44s-2.64,3.23-3.51,4.76c-.47.8-1.22,1.22-1.43,1.93-.16.43,0,1.13-.15,1.76-.5,2-1.92,2.67-1.76,4.4s1.52,2.2,1.61,3.51-1.89.66-1.75,2.29c2.62,2.59,2.76-1.23,4.09-1.76,1.08-.43,3.18.35,4.54,0,1.09-.29,2-1.55,3.21-2.11a7.75,7.75,0,0,1,2.79-.7c4.66-.24,7.66,3.41,11.72,3.51a26.57,26.57,0,0,0,5-.24Zm-9.36,20.75c.08-1.89-.61-3.31-.74-6-2.7-2-4.72,1.81-7.46,1.43-1.69-.25-2.86-2.62-4.68-2.29-1,.19-1.43,1.72-2.49,1.94-2.09.45-3-2-5.27-1.05-3.14-2.86-4.54-7.55-5.27-12.89-1.7-2.69-4.29-.5-5.57,1.23-.76,0-1.72-.51-1.89.53-.59,3.25,3.82,3.6,3.8,5.8,0,1.43-1.72,1.31-2.48,2.28s-.29,2-1.32,2.65c-2.86.41-3.85-1.43-3.81-4.57-1.24-2.28-2.86-3.94-3.95-5.81a7.86,7.86,0,0,1-1.18-2.87c-.1-.83.33-1.87.15-2.86-.32-1.68-2.87-2.94-4.54-3.87a24.45,24.45,0,0,1-5.11-3.16c-.88-.88-1.29-2.41-2-3s-1.43-.39-2.06-.88-.66-1.8-1.75-2.12c-.56-.24-1.43.66-1.76,1.23-.72,3.84,1.89,4.11,3.08,5.73.81,1.18,1.21,2.87,2,3.71s2.07.66,3.22,1.22c.77.38,1.29,1.56,2,2.12,1.44,1,3.64,1.19,3.81,3.16-.87.72-2.86-1-3.52.7-.17,1.15.76,1.74.75,2.87,0,1.72-1.65,3.62-3.08,3.33-.15-1,.76-1.87.73-3-.07-2.23-3.81-5.73-5.73-6.67-.89-.49-2-.52-2.78-1.06a22,22,0,0,1-4.82-4.76c-1.06-1.66-1.95-4.74-4.3-4.56-.93,0-1.72,1.1-2.49,1.59a18.28,18.28,0,0,0-2.19,1.43c-.85.69-1.55,1.43-2.35,1.43-1.83.09-3.39-1.65-5-1.23-.53.14-1,.71-1.6,1.43a25.6,25.6,0,0,1,.14,2.86c-.47,1-1.89.92-2.94,1.58a22.2,22.2,0,0,0-4.09,4.4,6.06,6.06,0,0,0-1.61,2.46c-.08.59.41,1.69.29,2.46a8.1,8.1,0,0,1-2.33,3.35c-.53.42-1.22.48-1.76.88-1.16.81-1.68,1.89-2.64,2.1-2.56.57-7.16-.61-7.16,2.64,0,2.17,2.46,2.19,4,2.12,2.08-.11,3.84.52,5,.17.78-.25,1.64-1.31,2.47-1.76.53-.28,1.08-.29,1.44-.53.88-.52,1.43-1.44,2.06-1.75a15.29,15.29,0,0,1,5.27-1.43c2-.13,4,.24,6.58,0,.91-.09,1.81-.79,2.78-.88,1.59-.15,3.7.76,5,.7.9,0,1.89-1.07,2.94-1a3,3,0,0,1,2.63,1.94c.12.52-.24,1.33-.14,2.11.16,1.27,1.07,1.8,1,2.63-.08,1.11-2.37,2.58-2.05,3.87.2.84,1.84,1.7,2.63,2.29a8.66,8.66,0,0,0,3.22,1.58c.83.11,1.57-.28,2.35-.18a10.56,10.56,0,0,1,4.1,1.76c1.43,1.16,1.17,3,2.78,3.7.67.29,1.9.13,2.77.36,2.14.54,3.71,2.67,5.27,2.46,2.45-.34,1.34-3.12,1.62-5.1.62-4.49,7.92-4.29,9.37-1.24,1.06.34,2,0,3.22.53.7.27,1.22,1.2,1.9,1.43s1.25-.1,1.89,0c2.87.37,5.36,2.86,7.76,2.45,1.54-.28,2.65-2,4.1-2.11,2.86-.21,4.6,2.51,7.62,1.23,2.22-.94,1.73-3.71,2.49-6.5.56-1.87,1.57-3.19,1.63-4.67Zm157.74-59.9a7.16,7.16,0,0,0-1.43-6c-1.69.36-.47,2.46-.59,3.69-.16,1.75-1.7,3-1.6,4.76-.56.78-1.54,1.1-1.62,2.46.93.77,1.34-.62,2-1.43C639,117.43,640.68,116.69,641.07,115.18Zm-38.35-61a5.09,5.09,0,0,0-3.22,1.44c-.54.35-1.66.54-1.32,1.58C599.6,56.93,602.39,56.17,602.72,54.15ZM541,75.83c3.44,1,5.06-3.71,2.78-6.34-.53-.6-2.33-.85-3.08-2.28-.89-1.72-.76-4-2.86-3.52,0,.22,0,.5-.16.53-.2,3.85,4.47,4.81,4.4,7.92C542,73.71,540.52,73.89,541,75.83Z" fill="#2f2e41" data-secondary="true"/>
<path d="M492.79,69.1c-.41-1.9,2.58-1.59,2.06.17a1.43,1.43,0,0,1-2-.12Z" fill="#2f2e41" data-secondary="true"/>
<path d="M474.79,174.28c.07-1.43,2.86-2,3.37-.7C478,175,475.36,176,474.79,174.28Z" fill="#2f2e41" data-secondary="true"/>
<path d="M424.59,164.79c1.53-1.44,4.92-.49,7-.53-.4,1.34-.46,3.08-1.32,3.86C427.89,167.59,425.66,166.89,424.59,164.79Z" fill="#2f2e41" data-secondary="true"/>
<path d="M413.9,155.46c2-2.53,4.13-1.2,3.37,3.68-.47,1.44-2.58,3.41-3.51,1.24A21.89,21.89,0,0,0,413.9,155.46Z" fill="#2f2e41" data-secondary="true"/>
<path d="M416.82,149.84a2.48,2.48,0,0,1-1,2.63C413.87,152.06,415.35,147.9,416.82,149.84Z" fill="#2f2e41" data-secondary="true"/>
<path d="M388.43,114.12a3.08,3.08,0,0,0-1.32-2.86c-.47-.33-1.22-.17-1.75-.53-1.43-.94-1.94-2.86-2.77-3.35.1-1.92-.45-3.32,0-4.57a9.23,9.23,0,0,1,3.2-3.34c1.29-.54,2.62,0,3.38-1.23a.84.84,0,0,1,.73.18c0,1.1-.78,1.28-.88,2.29.18,1.59,2.53.6,2.77,2.1-.21,1.65-1.43,2-1.43,3.17s1.78,3,2.64,4.39c.64,1,1.77,1.78,2.35,2.87s.61,2,1,2.46c.78.87,2.51,1,2.64,2.28.17,1.69-1.74,2.34-1.44,4.29-2,1.89-5.35.92-8.59,1.43-1.43.23-3.12,2-4.68.53-.36-1.17,1.3-1.33,1.43-2.46-.11-1-1.2-.89-1.43-1.75.43-1.43,1.75-1.64,1.6-3.69C386.61,115.17,388.19,115.57,388.43,114.12Z" fill="#2f2e41" data-secondary="true"/>
<path d="M377.46,109.9c2-1.43,5.37-.33,5.56,1.43.14,1.32-1,1.43-1.44,3s0,3-.44,3.88-1.66.75-2.49,1c-1.83.65-5.39,3.26-6.87.35.21-1.56,1.43-1.87,1.9-3.16,0-1-.87-1.56-.73-2.64.17-1.33,1-.87,2.19-1.43C376,112,376.34,110.72,377.46,109.9Z" fill="#2f2e41" data-secondary="true"/>
<path d="M277.48,71.74c.32,1.56-3.85,3.61-4.3,1.59C272.93,71.71,276.42,69.69,277.48,71.74Z" fill="#2f2e41" data-secondary="true"/>
<path d="M272.65,468.19h-2.2A2.89,2.89,0,0,1,272.65,468.19Z" fill="#2f2e41" data-secondary="true"/>
<path d="M266.07,59.25a.62.62,0,0,1,.87,0h0c-.14.42-.26.86-.87.7Z" fill="#2f2e41" data-secondary="true"/>
<path d="M253,87.29c0,1-2.87,2.58-3.22.7a1.41,1.41,0,0,1,.58-1.43C251.19,85.94,253,86.27,253,87.29Z" fill="#2f2e41" data-secondary="true"/>
<path d="M192.15,250.6c-.09.26-.21.45-.3.71C190.3,251.23,191.71,248.86,192.15,250.6Z" fill="#2f2e41" data-secondary="true"/>
<path d="M132.72,127.67c1-.72,2,1.09,1.32,1.93C132.91,129.86,132.62,128.31,132.72,127.67Z" fill="#2f2e41" data-secondary="true"/>
<path d="M292.26,134.17c-.67-.2-1.61-.16-2.48-.34s-1.63-.43-2.35-.53c-1.8-.26-3.75.37-4.82-.89a53.27,53.27,0,0,1,6.3-7.9c.66-.72,2.09-1.21,1.74-2.64-1.24-1.32-2.77,0-3.95.87a12.91,12.91,0,0,1-4.09,2.3c-2.42.43-5.63-.86-7.62.7-.27,1.31,2.26.8,1.9,2.86a2.5,2.5,0,0,1-2.63-.53c-.67-.73-.29-1.83-.73-2.28-.75-.74-3.57-1-4.83-.7a3.65,3.65,0,0,0-3.08,3c1.85,1.05,4.9-1.06,5.57,1.59-1,2.19-3.4,3.39-3.07,6.33a3.8,3.8,0,0,0,2,2.86c.82.18,1.26-.8,2-.71s.65,1.23,1.62,1.06c1.43-.72,2.18-3.1,3.79-3,1.95,2.87-1.74,4.21-3.79,5.12-2.35,1-5.4,1.56-7.16,2.46-.95.47-4.48,4.58-5,1.43-.36-2.29,1.76-1.63,2.2-3.52-2.28-.53-4.38,1.17-6.44,2.12-2.95,1.33-7.94,2.18-8.59,6.16-.15.78.28,2.27-.15,2.86s-2.46.5-3.38.87c-1.43.59-2.63,1.84-3.51,2.12s-1.63.15-2,.35c-1.16.54-1.59,2.43-2.94,3.69-.54.52-1.75.89-2.19,1.43-.76.92-.86,3.18-2.19,3.53-.86.08-1.55-.78-2.35-.18-.1,2.24.66,5.29-.14,7.56a41.14,41.14,0,0,1-5.86,4.4c-1.23.83-2.32,1.05-3.81,1.93-1,.63-2,2.14-3.22,3-2.79,2-6.16,4.29-6.14,9.32,0,1.09.47,2.25.58,3.52.08.75-.07,1.43,0,2.28.18,1.85,1.29,4.18,0,5.45-2-1-4.48-1.3-5.85-3-.37-1.73.76-3.16.58-4.74-.14-1.27-1.61-3.54-2.49-3.71s-1.7,1-2.63.89-2.11-1.92-3.51-2.1c-2.06-.31-3.58.55-5.86.17-2.2,1.43-2.86,3.93-5.55,3.69-1-.08-1.84-1-2.94-1.23a15.28,15.28,0,0,0-4.29-.7c-2.5.2-4.3,2.35-6.45,3.69-1.89,1.18-4.55,2.65-5.12,5.1-.3,1.32,0,3.18-.43,4.4a21.22,21.22,0,0,1-1.18,2.27A20.74,20.74,0,0,0,164,220.39a34.42,34.42,0,0,0,2.49,6,7.72,7.72,0,0,0,4.3,2.46,16.81,16.81,0,0,0,3.36-.89,25.81,25.81,0,0,0,3.81-.7c3.17-1.22,2.55-6.36,5.73-8.09a12.74,12.74,0,0,1,5.41-1,4.41,4.41,0,0,1,1,3.34,24.7,24.7,0,0,1-1.17,3c-.33,1.12-.4,2.44-.73,3.34-.44,1.19-1.43,2.05-1.76,3.16-.23.73-.1,1.64-.29,2.29-.34,1.16-1.63,2-1,3.17,3.14,1.43,6.93-.43,9.67.17,1.14.26,3.53,1.92,3.5,4.05,0,1.59-1,2.65-1.17,4.4-.17,2.2-.94,4.9-1,6.67-.12,2.87,3.57,8,6.15,7.92s4.41-3.32,7.76-1.57c1.1.57,2.29,2.73,3.51,2.63s2.55-2.22,3.22-3.69c.83-1.81.89-3.33,2.33-4.23s2.87-.5,4.84-1.43a11.21,11.21,0,0,0,2.49-1.76c.71-.59,1.44-2.12,2.34-1.06,1.17,1.43-1.43,2.19-.43,3.69,2,1.29,3.06-2.4,4.54-2.46a10,10,0,0,1,2.86,1.76c1.15.9,1.53,2.16,2.78,2.46.8.19,2.09-.37,3.22-.17,1.43.26,2.38,1.79,3.51,1.75,1.43,0,2.05-1.85,3.22-2.1,2.59-.58,3.55.34,4.68,2.29,1.28.25,1.32-1.78,2.5-1.06-.65,1.53.21,2.24.73,3.52.33.82.27,1.43.58,1.76.71.8,2.05.8,3.08,1.58a20.49,20.49,0,0,1,2.87,4.05c1.27,1.75,3.42,3.55,5.12,3.68s2.87-.55,4.3-.35c3,.45,4.91,2.27,7,4.3,1.19,1.09,2.25,1.85,2.63,3.17.26.91.13,2.13.45,3.16.64,2.19,3.29,3.25,2.33,7,.45,1.12,1.43,1.52,2.49,2.29s1.56,1.94,2.5,2.11c.58.11,1.23-.22,1.74-.17a11.88,11.88,0,0,1,4.3,1.58,14.61,14.61,0,0,1,2.63,1.06c.75.61.85,2.62,1.76,3.15.59.36,1.92-.12,2.87,0,1.57.23,3.71,1.44,5.12,1.44.86,0,1.58-.43,2.34-.36,3.59.33,5.63,5.48,9.08,7,1.07.49,2.78.16,3.51.53,1.3.67,2.39,5.44,2.49,7.56.3,6.39-3.78,8.45-6.15,12.67-.5.88-.77,2.28-1.43,3.51-1.43,2.49-3,3-2.78,7.56,0,1.26.58,2.48.58,3.88a30.87,30.87,0,0,1-.43,5.44c-.25,1.18-1.05,2.12-1.18,3.18s.26,1.89.15,2.87a18.64,18.64,0,0,1-1.61,3.86c-1.36,3-1.66,6.53-4.39,7.74-1.62.71-3.8.31-5.56,1.06-.72.3-1.62,1.08-2.49,1.58-2.55,1.44-6.19,3.34-6.89,6.51-.61,2.86.87,5.05.45,8.26a29,29,0,0,1-1.77,3c-.63,1-.94,2.18-1.6,3.17-.89,1.33-2.25,1.91-2.78,3.69-.18.62-.07,1.33-.3,2.29-.08.36-.61.9-.87,1.58s-.23,1.43-.45,1.94c-.67,1.62-2.65,5.32-4.09,5.8-3,1-6.24-1.54-8.35-1.06.3,1.77,1.43,1.58,2.06,2.87a20.3,20.3,0,0,0,1.16,2.45c.66.91,1.25,1.26,1.32,2.29a6.65,6.65,0,0,1-2.19,5.1,11.27,11.27,0,0,1-4.3,1.43c-1.07.23-3.86.24-4.38,1.07-.76,1.22.4,4.3-.14,5.44-1.1,2.58-4-.07-5.57.7a3.71,3.71,0,0,0,1.17,3.34c.92.66,2.32-.19,2.87,1.06-.29,1.75-1.87,2-2.2,3.69,0,1.69.48,2.12.31,3.17-.39,2.26-3.31,2.16-3.23,4.58.12,3.6,5.73,2.12,5.86,5.63,0,2.12-1.62,2.15-2.2,4.21-.32,1.12.18,1.43,0,2.29-.25,1.25-1.44,1.6-1.44,3,0,1.68,2.05,3.54,3.07,4.93a18.23,18.23,0,0,0,3.66,4.22c2.07,1.36,5.12,1.05,6,3.51-.27,1.43-1.43,1.88-2.63,2.29h-.29a2.89,2.89,0,0,0-2.2,0h-2.05c-1.95-1.09-4.3-1.79-6.73-2.86-.86-.36-1.83-1.25-2.78-1.75-.7-.38-1.5-.54-2.05-.89-1.26-.78-2.67-3.36-4-4.39-.77-.62-2-.95-2.49-1.59a25.84,25.84,0,0,1-1.17-2.64c-.48-.8-1.34-1.43-1.91-2.27-1.22-1.95-2.76-4.56-2.78-6s1.12-2.36.73-3.69-2.6-1-2.86-2.47c-.2-.9.64-2.4.59-3.69,0-.73-1.19-1.75-.73-2.86s1.43.1,2.33-.53c-.62-2.54,0-6.63-2.05-7.39-1.07,1.09,1.1,3.55-.73,4.22C240,428.83,240.35,426,240,424a25.4,25.4,0,0,1-.87-4.05,22.54,22.54,0,0,0,.14-2.46c-.31-2.36-2.51-4.3-2.63-6.69a21.41,21.41,0,0,1,.73-3.34c.1-.83-.1-1.76,0-2.63.12-1.12.64-2.15.73-3.17a33.4,33.4,0,0,0-.29-6.85c-.36-2-1.7-3.77-1.9-6-.08-.8.22-2.13.14-3.16s-.5-1.91-.57-3a20.85,20.85,0,0,1,.28-3.16c.16-2.21-.36-4.67-.28-6.86,0-.65.28-1.13.28-1.76,0-1.81-.51-3.64-.58-5.44a78.46,78.46,0,0,0-.15-8.81,36.25,36.25,0,0,0-1.43-7.37,20.4,20.4,0,0,0-5.43-5.83c-1-.69-2.25-.92-3.36-1.59-2.38-1.43-7-4.37-8.05-7.16-.3-.82-.26-1.91-.59-2.87a37.91,37.91,0,0,0-2.86-5.09c-1.82-3.33-3.28-7.48-5.13-10.9a44.92,44.92,0,0,0-2.78-5.1c-.6-.83-2.53-1.59-2.77-2.86-.33-1.64-1.34-3.87-1.18-5.1.2-1.69,2.87-3.05,2.87-4.57s-1.44-2.06-1.75-3.16c-.75-2.7.43-4.3,1.32-6.52.28-.73.57-1.92.87-2.46.53-1,1.63-1.25,2.33-2.29.41-.59.66-1.81,1.18-2.64,1.12-1.77,2.86-2.43,3.36-4a40,40,0,0,0,.15-10,34.91,34.91,0,0,0-1.61-3.52c-.66-2.12-.81-4.44-2.63-4.4-1.12,0-1.92,1.52-2.64,2.46-.17,1.25-.08,2.61-1.17,3-1.66.6-2.31-2.1-4.3-2.86-.77-.29-2-.27-2.49-.53-1.43-.76-1.87-3.25-3.36-4.23-1.25-.8-2.32-.51-3.08-1.76a17.08,17.08,0,0,1-.15-3.5c-1.6-1.14-3-5.35-4.82-6.33-1.25-.66-3.14-.61-4.68-1.24a15.63,15.63,0,0,0-2.07-.87,10.38,10.38,0,0,1-2.62-.71c-2.86-1.74-4.46-7.34-8.06-7.16-1.52,0-3,1.76-4.38,1.76s-3.69-1.34-5.43-2.29-3.78-1.55-5.25-2.47c-1.21-.73-2-2.07-3.08-2.63-.8-.43-2-.52-2.64-.89a30.84,30.84,0,0,1-3.07-2.63,5.93,5.93,0,0,1-2.34-3.51c0-1.44,1-2.55,1.16-3.88.39-4.19-2.19-7.16-3.79-9.67-1.21-1.85-2.61-3.41-3.81-5.1a14.43,14.43,0,0,0,0-2.46,34.67,34.67,0,0,1-2.64-4.22c-.87-1.44-2.56-3-2.78-4.57-.27-2,.62-3.73,0-5.64-1-3.18-4.72-1.75-4.29,2.46.13,1.16,1.43,2.72,1.9,3.88s.35,2.63.73,4,1.52,2.52,1.91,4c.63,2.41.6,5,1.17,6.5s2.35,2.61,1.32,4.3c-1.43.34-1.92-1.32-2.78-2.29-.49-.55-2.22-1.57-2.49-2.87s.54-2.43.29-3.69c-.5-2.49-4.67-2.55-4.69-5.1,0-1.6,1.75-1.8,1.77-3.35s-1.92-3.14-2.35-4.57a31.25,31.25,0,0,1-.58-5.28,39.44,39.44,0,0,0-.3-5.1,7.93,7.93,0,0,0-2.77-3.52c-1.29-.85-2.31-.5-2.94-1.75a16.75,16.75,0,0,1-.9-4.6c-.22-2.1,0-4.42-.15-6.67a39.29,39.29,0,0,1,0-6.86c.72-1.7,2-2.55,2.78-4.3.52-1.17.59-2.62,1.16-3.86,1.08-2.31,3.41-4.43,5-6.69a31.93,31.93,0,0,0,4.29-7.56,12.89,12.89,0,0,0,1.18-4.4c-.19-1.69-2.87-3.09-2.64-5.09.14-1.26,1.62-1.23,2.06-2.47a14.58,14.58,0,0,0,.43-3.16c0-1.71-.71-3.47-.43-5.28.23-1.55,2.15-2.17,1.16-3.87s-2.72.9-3.81-.17.2-2.21.3-4.06c0-.73-.35-1.56-.3-2.1.1-.79,1.44-2.11,1-2.64-.78-1.2-1.67-4.29-3.36-5.28-2.15-1.29-4.48-.41-7.46-1.06-1.83-.39-2.71-2.45-4.4-2.28-1,.1-1.64,1.54-3.08,2.28s-3.26.5-4.68.89-2.06,1.55-3.51,1.43c-1.2-.11-1.21-1.43-2.63-1.57a16.22,16.22,0,0,0-2.49.53,28.76,28.76,0,0,1-8.59-.19,22.75,22.75,0,0,1-5.73-2.64c-1.74-1-5-2.16-4.83-3.69.09-1,3.07-2,4.3-2.46,1.92-.7,3.09-1.82,4.54-1.94a16.1,16.1,0,0,0,2,.36c.75-.06,1.68-.9,2.64-1.06,2.05-.34,4.93.12,4.68-2.29-1.54-1.43-7.87,1.09-8-2.1-.1-1.94,2.41-2.52,4.3-3A24.24,24.24,0,0,1,96.54,76c1.67.1,3.88,2.35,4.84-.17.46-1.79-.57-3.29-.89-4.75,1.25-2.06,3.54-1.81,5.27-2.11a18.47,18.47,0,0,0,5.57-1.76,19,19,0,0,1,5.56-1.76c2-.3,3.92-1.2,5.72-1.43a30.92,30.92,0,0,0,4.3-.36,14.58,14.58,0,0,1,4-1c.93,0,1.72.85,2.64,1s1.86,0,2.86.19c.7.17,1.33.74,2,.87,1.1.2,2.29-.19,3.36,0s1.82.92,2.78,1.06c2.25.34,4.84-.14,7,.36.83.18,1.58.67,2.48.87s1.8,0,2.63.17c1.18.29,2.15,1.61,3.38,1.76,2.27.29,4.8-1.18,7.16-1.43a33.11,33.11,0,0,0,5.27-.36A29.15,29.15,0,0,1,177.19,66a15.21,15.21,0,0,0,2.2.19c.77-.12,1.66-1.22,2.48-1.06,1.1.2.9,1.86,2.06,2.29,1.28-.8,2.55,0,3.95,0s2.59-.82,4.1-.53c2.66.5,6.38,3.64,8.49,1.93.53-.43.4-1.17.87-2.29C202,65,203.26,63.19,203,61c-2.86,0-5.73,1.79-9.08,1.93-3.38-2.53.9-4.11,3.37-5.27,2-1,3.64-3.09,6.14-3.52,2.05-.35,4.3.54,6.73.89a30,30,0,0,1,3.67.17c1.43.51,2.17,2.23,3.36,2.63.52.19,1.36.16,2,.36,1.32.36,2.49,1.2,3.81,0,1,.22,1.14,1.55,2.19,1.76,1-.63,1.73-2.23,3.22-2.63.66-.19,1.33.13,2.05,0,1.2-.25,2.79-2.18,3.52-.36-.3,1.26-1.9,1.43-2.79,2.46a7.67,7.67,0,0,0-1.89,3.87c.17,1.67,2.26,1,2.33,3.16-.31,1.23-1.5.69-2.49,1.23s-1.23,1.55-2.19,1.77c-2.66.6-4.87-.81-7.16-.71-.1,1.21,1.15,1.89,1.76,2.28,2.09,1.32,3.78,1.15,6.73,1.06,1.51,0,3.24.54,4.54-.53.82-.67.78-2.16,1.43-3a5.12,5.12,0,0,1,4-1.75,2.35,2.35,0,0,1,1.6,1.75c0,1.6-1.88,1.09-1.89,2.86,1.23.89,4.5-1,4.68-2.46.12-1.09-1.07-1.71-1-2.87.07-1.84,2.16-1.81,1.91-3.69-1-1-2.05.2-3.08,0-1.43-.3-2.74-2.36-3.37-3.71.63-.94,2-.31,2.94-.17,1.07-1.79,3.08-2.48,5.84-2.86,1-.12,2.31-.59,2.86.53.23,1.66-2,2.66-1.61,4.56,2,.59,2.62-2.6,4.29-3.86a14.06,14.06,0,0,1,2.78-1.43c.9-.42,1.89-1.44,2.63-1.44s1,.83,1.77,1.23,1.66-.24,1.9.89c-1.7,3.53-8,1.43-9.67,5.1.36,2.41-1,4.71.15,6.33.81,1.16,2.65.37,3.08,1.57.57,1.64-1.78,1.64-1.18,3.53,1.55,1.11,3.4-1.06,4.83-1.94s3.48-2,3.66-4.29c-.77-1.78-3.66-.4-4.09-2.28a7.14,7.14,0,0,1,1.16-3.69c1.53-2.06,6.86-5,10.7-4.59.71.09,1.43.62,2.19.72,2.52.3,5.48-1.32,7.46,0,1.59-1.12,3.49.14,5.72-.19,1.71,1.22,1.24,3.78,3.81,4.93.7.32,1.56.09,2.48.36.69.18,1.43,1.14,2.21,1.57,1.1.62,2,.48,2.19,1.44s-.81,1.51-.73,2.47c.63.62.1,1.56.44,2.45.63,1.63,2.22,1.52,3.8,2.29,1.11.55,3.47,2.22,3.36,3.53,0,.85-2.22,2.39-2.86,2.86s-3,1.73-3.81,1.59c-1.43-.24-1.92-3.61-3.8-3.52a1.72,1.72,0,0,0-1.62,1.83v.1c0,2.32,2.15,2.4,2.2,4.4,0,2.39-1.09,2.56-2.78,4.05a10.4,10.4,0,0,0-3.81-1.59c-.93,1.34,1.54,1.82.73,3.52-2.35.6-4.14-.8-6.29-1.59-.67-.24-1.63-.14-2.19-.51-.83-.59-1.07-2.3-1.76-3.18S273.64,81,272.35,81c-1.8,0-4.42,2.69-5.85.17,1-4,5.73-1,8.79-2.46,1.15-.53,1.55-2,2.49-2.64,1.89-1.3,5-1.43,4.68-4-.14-1.29-1.64-1.27-2.49-1.93-1.14-.91-2-4.07-3.65-4.3-.84,0-1.43.77-2.35.89-1.89.2-4-.92-5.73,0-.78.54-.25,1.43-.87,2.45s-1.72,1.1-2.19,1.94-.46,2.22-1.17,3c-1.21,1.29-3.76,1.44-5.27,2.12-.69.27-1.54,1.23-2.19,1.23-1.22,0-1.74-2-3.08-1.23-.12,1.88,1.64,2.65,2.77,3.51a6.9,6.9,0,0,1,2.87,3.52c-1.19,3-3.08-.15-5-.17s-5.11,4.76-6.87.88c.43-2.05,2.32-2.37,2.77-4.4-2.07.43-3.86,2.52-6.3,3.16-1,.28-2,.22-2.86.53-1.76.62-3,2.18-4.83,3-.73.31-1.59.23-2.34.53A34.73,34.73,0,0,0,228,89.88a30,30,0,0,0-5.11,3.7,9.61,9.61,0,0,0-2.21,3.69c0,1,1.72,1.43,1.76,2.46,0,.65-.94,2-.3,3s1.81.17,3.08.36c2.23.33,3.69,2.55,5.41,3.69a13.52,13.52,0,0,0,4.69,2.11c2,.3,4.29-.7,4.53,1.23s-1.89,2.53-2,3.69c1.09,1.72-.73,2.55-.73,4.06,0,1.21,1.24,3.05,2.33,3.16,1.43.14,3.64-1.75,4.3-3.52.73-2.11.41-5,1.76-6.5,6.81.21,12.58-3.73,12.14-12.15A14.45,14.45,0,0,1,257.3,96c.22-1.43,2.15-2.5,1.89-4.29C261.11,91,261,87.3,263,86.76c1.66-.44,3.54,1.43,5.73,1.23.7,0,1.63-.82,2.34-.7,1.43.24,2.3,2.36,3.37,3.34s1.95.6,2.2,1.76c-.29,2-1.44,2-1.32,3.86a3.59,3.59,0,0,0,1.56,3.45,6,6,0,0,0,3.67-1.06c1.94-1.11,3.63-4.46,5.26-4,1.29.33,2.3,5.25,2.5,7s-.22,3.35-.16,5.1c.2,3,3.31,2.67,4.84,4.29.46.47.63,1.68,1,2.29.74,1.19,1.64,1.19,1.76,2.47.27,3-2.29,3.29-2,6.67-.53,1.32-1.86,1.24-1.76,3,.17,2.78,3.49.65,4.39,2.86.49,1.16-.08,2-.44,3.7,1.13,1.62,1.13,4.21-.87,4.21C293.83,136.1,293.49,134.54,292.26,134.17ZM134,129.6c.69-.84-.3-2.65-1.32-1.93C132.62,128.31,132.91,129.86,134,129.6Zm102.17,16c-.61-.71-2.6-.51-4-.36-.95.12-2.1.36-2.2,1.24C231.57,147.33,235.72,147.93,236.21,145.61Zm-7.62-3a2.34,2.34,0,0,0-.07-3.32,2.29,2.29,0,0,0-.51-.37c-.48-.16-1.12.43-1.91.35s-1.64-1-2.33-1.06a3.22,3.22,0,0,0-2.87,1.24c0,1,.65,1.21.59,2.27-1.43,1.23-.66,5.31.75,5.46s2.24-4.51,4.29-4.93C227.26,142.12,227.63,142.76,228.59,142.62Zm-2,7c-2.08-.89-4,.6-5.73.89-1,.16-2.87-.26-2.64,1.57.19,1.44,2.11.95,3.23.53A13.21,13.21,0,0,0,226.55,149.65Zm-6.45-13.36c2.87-1.43-.57-6.1-1.9-6.51-2.37-.75-5.73,2.09-8.49,3-1.55.5-3,.54-3.37,2.12,1.43,2.75,4.12-.62,6.14-.19,1,.22,1.64,1.91,2.65,2.11A26.7,26.7,0,0,0,220.1,136.29Zm-2,2.86c-.6-.85-3.89.1-4.82.89a17.26,17.26,0,0,0-1.76,2.87c-.69,1-1.43,1.77-2.05,2.65s-3.49,5.91-1.17,6.5c1,.24,3-2.22,3.22-3.17a10.8,10.8,0,0,1,3.95-7c1.2-1,2.43-.88,2.63-2.75Zm-18.3-19.68c1.64-.08,2.75-5.88,0-5.12-1.83.46-2.27,5.16,0,5.06Zm-7.9,131.89c.09-.25.21-.44.3-.7-.44-1.8-1.85.57-.3.65ZM129.93,104.1c0-.33-.16-.39-.14-.7-.45,0-1-.1-.88.53S129.69,104.47,129.93,104.1ZM283.78,76.49c.72.1,1.12-.17,1-1.06C284.15,74.89,283.21,75.6,283.78,76.49ZM266.94,59.31a.62.62,0,0,0-.87,0h0V60c.61.07.79-.34.87-.76ZM211.32,72.85c.49-.37,1.24-.88.88-1.76-1.62-.9-4.3-.21-6.73-.53-1.35-2.29-3.61-2.65-3.81,1.06,2.72,2.61,6.84-1.29,9.66,1.18ZM185.12,91c.83-.34,2-.17,2.19-1.23-.67-.66-1.43-1.55-2.19-1.59-1.06,0-1.58,1.09-2.64,1.76s-2.95,1-3.07,2.29c2.27.47,4.31-.72,5.71-1.29Zm-.73-12.66c.93-.2,1.89.32,2.49-.7-.7-3.88-5.15-1.52-7.76-1.23a9.64,9.64,0,0,0-1.43,3.51c2,.55,4.42-1.19,6.7-1.64Zm43.92,179.74c1.14-.23.81-3.42-.59-2.65-1.06.55-.52,2.81.59,2.59Z" fill="#2f2e41" data-secondary="true"/>
<path d="M129.79,103.4c0,.31.18.37.14.7s-.8.33-1-.17S129.39,103.4,129.79,103.4Z" fill="#2f2e41" data-secondary="true"/>
<path d="M125.41,113.78a3.38,3.38,0,0,1-2.07,2.15,5.17,5.17,0,0,1-.73-.88C122.69,113.34,124.66,112.1,125.41,113.78Z" fill="#2f2e41" data-secondary="true"/>
<g opacity="0.3">
<path d="M756,422.25a11.45,11.45,0,0,1-3.66,6.16c-1.32,1.1-5.51,3.34-6,.17a24.41,24.41,0,0,1,1.17-5.73c1-2.46,2.14-.85,3.8-.53S754.61,421,756,422.25Z"/>
<path d="M744.56,166.53c.6,2.12,1,4.2,1.43,6.16-1.62,2.42-4.81,1.52-7.16,2.87-1.12.6-1.43,2.86-2.49,3.16s-1.53-.9-2.35-.89c-2.09,0-3.12,4.3-5.73,3.17-1.43,1.06,0,5.11-1.76,5.45-1.29.25-2-1.76-2.78-3-.94-1.43-2.3-2.31-2.33-3.51s2.09-3.35,2.76-4.29,2.48-3.07,3.52-3.36c2-.51,3.93.23,5.42-.51s1.43-3.08,2-3.7,1.26-.38,1.76-.7a7.05,7.05,0,0,0,2-7c-.48-2-3.19-4.11-1.43-6.5a8.58,8.58,0,0,1,6.45,6.5c.15,1.21-.4,2.43-.3,3.69A18.5,18.5,0,0,0,744.56,166.53Z"/>
<path d="M745.13,147.43c-.33.9-1,.72-1.6,1.23s-1.31,2.12-2,2.29c-1.18.28-2.49-1.43-3.67-1s-.57,1.65-1,3.15a4.7,4.7,0,0,1-3.23-3.51c0-1,1.06-1.63,1.32-2.86.43-2-.69-3-1.32-4.93,0-.27.15-.3.15-.51,1.43-.38,4.29,2.86,7.46,3.5C743.28,145.14,745,144.91,745.13,147.43Z"/>
<path d="M739.73,325.88c.16,1.43-2,1.29-2.19.35C737.58,325.09,739.47,324.74,739.73,325.88Z"/>
<path d="M729.48,132.6c1.43.91,5,3,2.49,4.92A4.64,4.64,0,0,1,729.48,132.6Z"/>
<path d="M722.75,318.15c1.67-1.1,3.51-3.51,6.44-2.29-.64,2.19-2.86,2.13-4.29,3.16s-2.61,2.78-4.4,3a1.39,1.39,0,0,0-.59-.7C720,319.34,721.59,318.89,722.75,318.15Z"/>
<path d="M718.81,285.07c1.7,0,3.34-.63,4.53.19-.23,4.39-5.9,1-9.66,1.76-.8.14-1,.89-1.9.51a3.49,3.49,0,0,1,2.78-3.16C715.63,284.24,717.24,285.07,718.81,285.07Z"/>
<path d="M720.26,290.53c.17,2.43-2.59,2.7-3.37,4.58,1.22,2.23,1.69,5.35,3.08,7.37,0,1.35.23,3.1-.44,3.7-2.87.67-4.53-5.73-5.73-7.91-2.26.51-.2,9.17-3.22,8.09-1.43-.53,0-3-.3-4.92-.28-1.69-1.65-2-1.75-3.35-.09-1.09,1-2.24,1.32-3.34.46-1.6.15-4.67,1.74-4.75.79,0,1.84,2,2.35,2.12C715.72,292.56,717.79,290,720.26,290.53Z"/>
<path d="M714.84,316.73c-.53,1.33-3.55.69-3.79-.53C711.57,314.81,714.6,315.23,714.84,316.73Z"/>
<path d="M712.07,321a5.61,5.61,0,0,1-.59.7c-1.1-.43-2.29-.75-2.64-2.11C709.68,318.09,712,319.27,712.07,321Z"/>
<path d="M708.11,316.56c-.74,1.26-3.32-.11-4.29,1.22-1.53,0-3.07,0-3.37-1.58.43-1.29,1.82-.4,2.87-.53C705.19,315.49,707.64,314,708.11,316.56Z"/>
<path d="M687.48,383.92a41,41,0,0,0-1.06-4.51c0-.6.07-1.43,0-2.12a18.18,18.18,0,0,1-.44-2.64c.21-1.17,1.34-1.28,1.61-2.29.46-1.64-.55-1.9-.58-3.86,0-1.43.87-2.06,1.43-3.87.26-.84.27-2.4.57-3s2-1.43,2.64-1.76c2.24-1.32,4.05-3.78,6.3-4.23.57-.1,1.34.09,1.76,0,1.32-.27,3-1.6,4.82-2.1s3.36-.3,4.69-1.23a13.88,13.88,0,0,0,4.09-5.29c.68-1.92.47-3.55,1.76-4.21.63-.33,1.25,0,1.91-.17a8.53,8.53,0,0,0,2.63-1.59c1-1.1,1.19-2.86,2.34-4.05a20.23,20.23,0,0,1,3.36-2.62,5,5,0,0,1,2.35-.72c2.06.22,3,3.68,5.27,3,.8-.24,1.62-2.29,2.35-3.52,1-1.79,1.82-4.21,3.65-4.74,1.43-.44,3.14.69,4-.89.19-1.1-.68-1.76,0-2.46,1.71.13,4.58,2.87,7.16,3,1.43,0,4-1.81,4.3.71.13,1.11-1.05,2-1.32,3.16-.19.82.29,1.25-.14,2.12-1.19.56-2.45.86-2.49,2.46,0,2,2.36,2.87,3.8,4,1,.76,1.82,1.91,2.35,2.29s1.16.47,1.44.7c.94.75,1.61,2.42,2.86,2.47s3-2.24,3.81-4.4a42.21,42.21,0,0,0,1.43-8.28c.14-.88.67-1.74.89-2.63.56-2.41,1.32-5.73,3.06-6.5,1.75,2.22,2.35,6.54,2.05,10.21,1.17,1.06,3.24.7,3.51,3.16.1.85-.35,1.94-.29,2.87.1,1.43,1,2.77,1.18,4,.3,2.35-.33,4.3.58,6,1.13,2.15,3.38,2.08,4.83,4.4a9.63,9.63,0,0,0,.73,3.16c.14.53,0,1.43.16,1.76.46,1.18,1.73,1.29,2.19,2.28.23.49.16,1.43.44,2.29a20,20,0,0,0,2.05,3.52,16.43,16.43,0,0,1,1.89,3.53c.3,1.74-.76,2.95-1,4.38-.31,1.76,0,4-.58,5.81-.68,2.11-2.35,4.2-3.67,6.86a22.92,22.92,0,0,1-4.1,6.16c-.91.89-2,1.43-2.86,2.29a48.18,48.18,0,0,0-3.81,4.74c-1.32,1.67-2.86,2.95-3.95,4.39-1.5,2.1-2.25,5.47-4.83,5.8a13.05,13.05,0,0,0-4.29.72c-2.16,1-3.6,2.94-4.68,3s-2.18-1.59-3.23-1.76-2.09,1.07-3.79,1.06c-.7,0-1.06-.5-2-.88-2.09-.8-4.4-.77-4.68-3.52-.17-1.5.79-2.18.73-3.52s-1.16-1.68-1.62-2.87a3.32,3.32,0,0,0-.73-3.52,3.94,3.94,0,0,1,.59-2.46,18.28,18.28,0,0,0-2.87,1.43c-1.06.77-1.83,2.55-3.06,2.28-1.16-.49-.27-1.86-.44-3a16.42,16.42,0,0,0-2.5-5.11,19,19,0,0,0-5-2.29c-4.52-.85-7.4,2.06-11,2.47-.91.1-1.92-.18-2.78,0-2.93.62-6.21,3.43-8,5.27-3,.36-6.1-.74-9.24.36s-4.87,4.2-9.65,3.34c-1-1-2.62-1.43-2.64-3.17,0-1.34,1.66-2.2,2.21-3.16a14.07,14.07,0,0,0,1.6-4.93c0-1.17-.66-2.56-.58-4C687,386.28,687.48,385.05,687.48,383.92Z"/>
<path d="M685,310.57c.8-.12,1.43-.84,2.19-.87,1.72-.08,3.39,1.52,5.41,1.23.45.56.15,1,.16,1.94,1.7,1.1,4.52.9,5.41,3-1.29,1.63-3.19.46-4.84.17s-3.06-.13-4.68-.36c-2-.28-3.9-1.64-5.84-1.93-1.19-.17-2.41.21-3.53,0s-6.21-2.46-6.28-4,2.2-2.08,4.29-1.76C679.86,308.36,681.61,311.15,685,310.57Z"/>
<path d="M688.94,298.45c-1.1-.38-2.15-.18-2.63-.53-1-.75-.85-2.87-1.18-4.06s-1.53-1.86-2.19-3.5c-.94-2.41-1.43-7.78,1.17-8.27,1-.21,2.07.73,2.78.52,1.43-.42,1.16-2.61,2.34-3.52.66-.51,1.86-.29,2.79-.71a6.65,6.65,0,0,0,2.33-2.44c.62-.89,1.11-2.37,1.91-3s1.76-.74,2.49-1.43c1.92-1.76,2-4.21,3.51-6.34,1.3-1.79,3.35,1.73,3.52,3.16.72,1.13,2.15,1.43,2.78,2.65-.86,3.09-3.3,3.37-2.78,7.73a14.93,14.93,0,0,0,.87,3c.42,1,1.66,2.14,1.61,2.86-.09,1.32-2.29,1.26-2.78,2.65s0,1.43-.14,3.34c-.62,1.43-2.28,1.77-2.87,3.52-.61,2.09.1,4.8-1.3,6.33-1,0-2,1-3.22.87s-2.51-2.25-4.54-2.29c-.78,0-1.69.6-2.49.53S689.86,298.75,688.94,298.45Z"/>
<path d="M679.46,294.52c3.72,0,3.72,7,0,7S675.74,294.52,679.46,294.52Z"/>
<path d="M674,293.69a7.41,7.41,0,0,1,2,3.52c0,1.24-1.59,1.18-2,2.87-.68,2.53.32,5.4-.87,6.69a5.59,5.59,0,0,1-2.86.35,46.46,46.46,0,0,1-7-7.92,17.76,17.76,0,0,1-2.35-3.16c-.76-1.69-1-3.54-1.89-5.1s-2.18-2.37-2.87-3.86c-.61-1.25-.67-2.87-1.31-4.06s-1.62-1.57-2.35-2.46c-.46-.59-.73-1.43-1.16-2.12-1.85-2.63-5.39-4-5.56-7.9.75-1,1.52.38,2.87.7.9.2,2-.09,2.63.17,1.33.54,2.25,3,3.65,4.4.8.77,1.84,1.29,2.64,2.12a32.34,32.34,0,0,0,2.19,2.63c1,.7,2.28,1.16,3.52,2.11,1.69,1.3,4.71,2.64,5.13,5.28.1.66-.26,1.76-.16,2.28.21.93,1.17,1.33,1.76,2.12s.87,2.44,1.91,2.63S672.89,293.49,674,293.69Z"/>
<path d="M604.93,256.76c1.26.49,5.45,6.63,4.29,10a3.23,3.23,0,0,1-3.22,1.93c-2.86-.56-2.35-8.31-1.43-11.46A.86.86,0,0,1,604.93,256.76Z"/>
<path d="M507.58,345.76a8.7,8.7,0,0,1,1.91-4.58c1.34-1.21,3.18-1.08,4.54-1.94a11.88,11.88,0,0,0,3.5-3.16c.71-1.1.75-2.35,1.32-3.17.4-.57,1.29-.71,1.76-1.43s.33-1.77,1-2.46c2-1,2.62,3.42,2.94,6.5.08,1,.5,2,.43,2.46-.21,1.43-1.44,1.69-1.9,2.65A32.58,32.58,0,0,1,520.61,351c-1,2.73-1.54,5.73-2.35,8.09-.28.86-.9,1.53-1.16,2.28-1.05,3-1.43,7.7-3.37,9a13.42,13.42,0,0,1-4.1,1.24,4.4,4.4,0,0,1-3.81-3.51c-.24-1,0-2.05-.14-3.18a17.69,17.69,0,0,1-.73-4.21c.33-3.58,3.22-5.33,3.36-8.28C508.43,350.21,507.42,348,507.58,345.76Z"/>
<path d="M437,95.48c.17,3-3.75,2.58-4.3,5.11-.23,1.13.45,2.67.29,3.68-.3,1.85-1.78,1.32-3.65,2.29-1,.5-1.89,2.34-2.87,2.47s-1.54-.68-2.19-.53c-1,.21-.64,1.63-2,1.93-1.13.24-3.1-1.2-3.23.53-.08,1.12,1.77,1.72,2.87,1.57.91-.1,1.59-.85,2.49-.87,1.73,0,2.86,1.55,4,1.59,2.51.09,5-2.79,7.62-2.46,1.19.14,1.89,1.16,2.78,1.06,1.43-.17,2.6-2.12,3.65-2.87-.44-3,0-6.87,2.35-7,1.57-.11,3.95,3.25,4.29,0a2.57,2.57,0,0,0-2.19-2.65c-.84,0-1.94,2-2.63.36,0-1.6,1.43-1.19,2.35-1.59.61-.28,1.06-1.1,1.74-1.43,3.48-1.43,8.31,1.43,9.67-2.11-3.09-3.16-8.35,1.15-11.86.88a4.86,4.86,0,0,1-3.95-3.17c-.16-.54,0-1.27-.14-2.27a24.83,24.83,0,0,1-.59-3c.14-3.17,6.73-3.78,6.73-7.74-1.26-1.43-4.94-1.21-6.14.36-.45.55-.42,1.68-1,2.86-1.32,2.4-5.56,2.69-6.88,5.63a7.3,7.3,0,0,0-.58,3.52C433.87,93.27,436.93,93.73,437,95.48Zm-34.84,172c-4.21-.75-8.59,1.3-11.46,2.86-1.67.87-3.36,2.22-4.84,2.29s-2.74-.89-4.09-1a18.08,18.08,0,0,0-5.73.34c-1.69.36-3.21,1.8-4.68,1.93-2.87.26-5.54-3.08-7.32-4.75-1.1-1-2.2-1.85-3.22-2.86s-2.52-1.65-3.37-2.64c-1.16-1.35-1.16-3.68-1.76-5.46-.71-2.09-2.86-3.63-4.54-5.62-1.24-1.43-4.08-3.71-4.39-5.63-.16-1,.36-2.11.3-3.16-.09-1.55-1-2.42-1-3.53,0-1.54,1.54-2.73,1.9-4,.19-.67.1-1.6.29-2.46.41-1.79,1.43-2.86,1.17-5.45a32.13,32.13,0,0,1-.87-3.34c0-.93.5-1.43.44-2.29-.11-1.51-1.73-1.79-1.9-3.51s1.43-3.27,2.33-5.28c.43-.91.65-2.3,1-3,.82-1.43,2.17-2.22,2.78-3.69.46-1.09.62-2.69,1-3.51.53-1.06,1.61-1.62,2.64-3,.83-1.13,1.17-2.49,1.74-3a15.85,15.85,0,0,1,2.64-1.23,12.53,12.53,0,0,0,6-6.5,8.49,8.49,0,0,1,1.17-6c.91-1.81,1.55-3.54,3.08-4.57,1.83-1.25,3.55-1.36,4.83-3.7a12.13,12.13,0,0,0,1.62-4.39c0-1.75-1.44-4-2.8-4.23s-3.35,1.21-4.09-.53c-.23-.54.08-1.84,0-2.46-.17-1.14-1-2-1-2.86-.07-1.66,1.35-3.38,1.75-5.29.56-2.59,0-4.57-.14-7.56,2-3.88,6.6-2,11.12-1.59.67,0,1.43-.18,2.19-.17,2.69.09,4.81,1.06,5.73-1.75a22.23,22.23,0,0,0,.44-6,13.84,13.84,0,0,0-3.07-4.93c-1.44-1.1-3.57-.63-4.4-2.63.67-3.48,3.92-.59,5.86-1.43,1-.43.87-2.5,1.76-2.87.6-.23,1.36.73,2.19.7a13.77,13.77,0,0,0,3.95-2.1c.93-.76,1.23-2.35,2.05-3,.56-.45,1.3-.39,1.9-.71a11.61,11.61,0,0,0,3.67-3.16c1.2-1.75,1.75-3.91,3.21-4.3,2-.43,6.41.48,6.74-2.12s-1.8-4.38-1-7c.62-2.09,2.18-1.72,4.4-3,1.07.92.75,3.52.87,5.11,1.36,0,4.12-.48,4.4-1.93.32-1.82-2-3.67-2.5-4.75s-.66-3.27-1.76-3.53c-2.22-.51-4.38,3.7-7.16,3.7A5,5,0,0,1,408,97.57a17.14,17.14,0,0,1-.15-2.86,14.6,14.6,0,0,1-.58-4.92c1.11-2.31,3.71-2.69,5.55-3.88.72-.44,1.28-1.43,2.05-1.76,1.32-.57,3.26,0,4.54-.87.82-.56.59-1.52,1.17-2.64.38-.71,1.26-1.11,1.76-1.93.35-.57.39-1.43.74-1.93,1.27-1.91,3.59-2.61,4.53-4.58.42-.86-.73-1.19-.44-2.47s2.31-.31,3.37-.53c1.43-.25,2.86-2.39,4.39-2.86s3.44-.17,5-.87c.91-.43,1.76-1.44,2.63-1.59.3,0,1.16.2,1.6.17s1.16-.43,1.91-.53c1.07-.13,2.4.33,3.81.36,2.3,0,4.51-.83,6.43.17,1,.53.9,1.9,2.2,2.46.65.29,1.52-.11,2.48,0,1.43.17,2.86,1.43,4.84,1.59.67.09,1.43-.1,2.05,0a31.57,31.57,0,0,1,6.44,2.46c1.7.69,5.34,1.56,5.41,3.51.08,2.32-3.16,3-4.54,3-2.3,0-5.35-1.61-7.76-.7a6.5,6.5,0,0,0,6.46,6.52l.43,0c.29-1.86-1.85-.83-1.62-2.63,1.43-1.32,3.21.89,5.27.53.8-.26.68-1.66.88-2.64,1.74-1.27,3.92-3.13,6.58-1.76a1.55,1.55,0,0,1,.59-.7c.19-1.93-1.75-2.86-.73-4.75.52-1.25,3.24-.82,3.67.18.21,1.19-.68,1.06-.59,2.11a2.3,2.3,0,0,0,2.33,1.59c1.43-.1,1.74-1.65,3.08-2.46.55-.35,1.35-.38,2-.71s1.53-1.2,2.2-1.43,1.22,0,1.89-.17,1.79-1.06,2.5-1.06,1.51,1.23,2.63,1.43c.62.09,1.3-.43,2.21-.53s1.43.1,2,0c1.44-.24,2.35-1.13,3.51-1.06.82,0,2.22,1.43,2.78.7.94-1.13-1.26-2-.57-3,2.23.2,4.62.14,6.87.53,3.35.57,6.49,2.56,9.51,2.64-.29-2.44-2.61-1.74-3.65-2.87a10.69,10.69,0,0,1-1.62-3.69,22.93,22.93,0,0,1,2-4.23c1.29-1.43,5.52-1.43,6.73.53.83,1.35.56,3.38,1.76,3.34s1.59-3.08,2.78-3.17,1.5,2,2.49,1.95c1.22,0,2.06-2.75,3.66-2.86.86,0,1.15.53,2.48.7.92-.7-.3-1.65.16-2.63,1.63-1.44,5.37-.35,7.46-1.24.59-.84-.75-1.43-.14-2.29,1.8-1.52,4.82-1.64,7.9-2.27,1.88-.39,3.65-2,5.11-2.12s3,1.08,4.4,1.06a6.91,6.91,0,0,0,2.63-.71c.83-.38,1.44-1.34,2.21-1.58,1.27-.38,2.86.18,4.38,0s3-.92,4.1-.71,1.91,1.58,2.86,1.76c3.08.58,6.26-.55,9.08.35.5.17,1,.8,1.6,1.06,1.88.83,3.17.57,3.52,3.33,1.44.63,2.34,2.27,4.1,2.87,1.16.37,2.33-.17,3.65-.17a33.75,33.75,0,0,1,5.41.34c.85.16,1.54.9,2.35,1.06a12.75,12.75,0,0,0,2.05,0,23.45,23.45,0,0,0,2.49.53c1.53,0,2.69-1.7,3.95-1.93a8.62,8.62,0,0,1,2.2.34c2.46.26,5.31-.39,7.31.19a14.08,14.08,0,0,1,4.1,2.86c.86.79,1.43,2.05,2.2,2.64a7.25,7.25,0,0,0,3.51,1.43c.93-.17,1-1.43,1.91-1.92,2.86-.79,8.06,1.1,10.39-.19.9-.5.72-1.64,1.43-2.29,4.4-.26,8.77.23,12.89.36a26.86,26.86,0,0,1,4.3-.17c1.43.3,2.5,2,4,2.63,1,.39,2.65.19,4.1.53,1,.23,1.76.93,2.49,1a16.49,16.49,0,0,0,4.54-.35c3.35-.33,7.67-.54,11,1.06,1.75.85,2.49,2.57,4.38,2.87,2.71.36,6.89-.27,9.67,0a16.77,16.77,0,0,0,1.74.36c.93-.09,1.44-1,2.64-1.06,1.43,0,3.76,2.72,5.87,2.29.9-.75-.73-1.76.13-2.47s2,0,3.22,0c.7,0,1.55-.43,2.21-.35,1.6.17,3.13,1.9,5.11,2.46a15.36,15.36,0,0,0,5.73.36,12.86,12.86,0,0,1,4-.53c.64.1,1.23.67,1.9.87s1.23,0,1.76.17,1,.72,1.44.89c2.72.93,6.34,1.43,9.22,2.46,1.69.63,3.42,1.89,4.82,1.94.7,0,1.32-.36,2.21-.36,4.42,0,9.62,2.25,9.21,7.16-5,1.67-9.33-4-14.77-2.36a2.7,2.7,0,0,0-1.72,2.46c.2,3.06,6.63,2.86,7.16,5.73-1.06.94-2.2,0-3.08.17A10.17,10.17,0,0,0,762,90.18c-1,1.12-1.86,4-2.86,4.23-1.3.3-3.31-1.56-5.27-1.06-.72.18-1.43,1.26-2,1.43-1.62.37-3.66-1.06-4.68,1.23.54,1.6.21,3.85,1.32,4.75.71.59,1.61.13,2.49.53s1.59,2,2.48,2.87,1.51.71,1.91,1.59c.09,1.29-.43,1.43-.3,2.27.23,1.44,2.15,1.82,2.19,2.87.08,1.26-1.2,1-1.43,2.27-.08.84.79,1,.89,2.12,0,.72-.49,1.44-.44,2.28.07,1.17.83,2,.73,3a2.69,2.69,0,0,1-1.32,1.94c-2.86-2.17-5.33-5.14-8.35-7.91s-8-6.34-8.49-12.31c0-.92,1.62-1.64,1.9-3a18.51,18.51,0,0,0-.14-2.1c.1-2.06,1.53-4,1.43-5.27a7,7,0,0,0-3.23-4.3c-.85.53,0,1.59-.15,2.47a3.2,3.2,0,0,1-2.19,2.46c-2.76.29-3.08-4.3-7.47-3a4.6,4.6,0,0,0-2.47,4.91c.13.76,1.88,1.59,1.77,2.63s-4,1.31-4.84,1.24c-2.37-.23-3.58-2.35-5.73-2.3-1.05,0-2,1.06-2.79,1.24-4.61,1-11.46-2.73-13,2.1-.23.69-.1,1.58-.3,2.29-.29,1-1,1.82-1.16,2.46s-.16,1.62-.45,2.47-3,3.76-.58,4.58c.58.19.86-.32,1.62-.19,1.24.2,3.33,2.64,4.82,2.64.88,0,2.11-1.19,2.78-1.23,1.43-.07,2.33,1,3.36,1.59s2.5,1.8,3.23,1.76c1.43-.09.71-1.25,2-1.76,2.54.9,3.73,4.12,6.15,6.68.89.92,2.19,1.72,3.36,3,.68.72,2.71,2.62,2.79,3.52s-.57,1.21-.74,1.94c-.23,1.07.33,1.86-.29,2.63-2.33-1-2.86-3.79-4.54-6.14-.61-.89-1.24-1.92-2.19-3.18-.43-.56-2-2.53-2.86-2.1-1.83.84,1,4.19,1.43,4.92a13.21,13.21,0,0,1,2.34,5.29c0,1-.56,3-.59,4.74,0,1.21.26,2.32.16,3.33a29.49,29.49,0,0,1-1,3.35c-.35,1.29-.42,2.87-.74,3.7-.57,1.57-2.47,3.45-3.8,3.51s-1.74-1.12-2.87-1c-1.8.1-2.13,2.09-3.22,3.68.09,1.73.54,2.33.29,3.52-.39,1.86-2.55,2.19-2.48,4.06s2,2,2.86,2.86a26.61,26.61,0,0,1,4.83,5.28,10.86,10.86,0,0,1,1.9,4.91c-.1,1.75-4.29,4.17-6,3.53s-1.07-2.49-1.43-4.23c-.3-1.33-1.17-1.9-1.6-3-.25-.57-.13-1.43-.45-2.11-.88-1.79-2.43-.81-4.29-1.94-1.19-.73-.85-2.29-1.32-3.69-.63-1.89-3.28-2.78-5.41-2.28-1.56.36-2,1.93-3.51,2.28-2.15-1.53.44-5.3-2.19-5.63-2-.26-3.37,3.48-4.54,4.58-.8.73-2.25.88-2.35,1.92-.17,2,1.7,1.55,3.22,2.29s1.53,2.55,2.78,2.64,1.75-1.29,2.78-1.43a6.47,6.47,0,0,1,4.39,1.58c-.73,2.14-4.66,3.7-4.68,6.51,0,1.63,1.58,1.91,2.78,3s2.36,3.48,3.81,5.27c.61.77,1.62,1.29,1.9,1.76.68,1.16.58,2.58,1.32,3.35.12,1-.37,1.2-.3,2.11.37,1.26,2,1,2.35,2.29-.3,3,.74,5.88-1.32,7-1,5.44-2,9.69-5.13,12.66-2.77,2.66-6.45,3.45-9.8,4.75-.88.33-1.56,1.43-2.34,1.76-2,.79-5.41.3-5.55,3.17-.09,1.43,1.43,2.24,1.6,3.69.19,2.19-1.43,4.41-2.64,4.57a2.67,2.67,0,0,1-2.86-2.45h0c-.11-2.11,2.18-2.95,2.35-4.23a3.72,3.72,0,0,0-3.2-4.18,3.12,3.12,0,0,0-.61,0c-1.93.17-6.33,4.83-6.43,7.38-.09,1.9,3.14,5.87,4.3,7,4.11,4.3,8.47,7,7.76,17.59-1,2.69-3.65,3.26-5.73,4.74-1.56,1.13-2.35,4.63-5,4.92-1.05-.43-.43-2.42-.73-3.34-.4-1.26-2.49-1.87-3.8-3.16-1.07-1.06-1.53-2.72-2.35-3.69-1-1.22-2.55-1.44-3.81-2.3-.78-.51-1.43-2.32-2.19-2.27-1.29,0-.84,1.54-1.17,4s-1.8,4.29-1.32,7.16c.22,1.17,1.43,2.13,2,3.33,1,2,1.16,4.3,2.19,5.46.69.74,1.86.91,2.64,1.57,1.56,1.33,4.29,4.3,4.84,5.82.63,1.84,0,4,.44,6,.49,2.26,2.86,3.86,1.43,6.16a11.46,11.46,0,0,1-3.69-2.32,13.27,13.27,0,0,1-4.3-5.29,15.4,15.4,0,0,1-1.17-2.1c-.52-1.58-.4-3.37-.88-5.29a16.69,16.69,0,0,0-3.23-5.62c-1-1.16-2.87-1.85-2.87-3.53-.1-2.35.68-5.12.59-7.9,0-.6-.36-1.2-.43-1.94-.16-1.43.1-3-.16-4.29a21.37,21.37,0,0,0-1.31-3.17,34.71,34.71,0,0,1-1.16-3.35c-.61-2-1.26-5.94-2.64-6.14s-2.86,3.29-4.84,3.34a2.78,2.78,0,0,1-2.49-2.12c-.17-1.08.47-2.16.44-3.34,0-2.35-1.43-3.26-2.49-4.92-.41-.68-.53-1.61-.87-2.11-.67-1-1.93-1.43-2.78-2.46a14,14,0,0,1-2.06-3.17c-.56-1.43-.75-3.16-1.61-3.35s-1.77,1.26-2.63,1.59a21.49,21.49,0,0,1-4,.89c-2.87.24-5.33-.7-5,3.51-.46,1.89-2.12,1.92-3.22,2.86-1.44,1.15-2.44,3.44-4,5.27-.74.9-1.81,1.43-2.49,2.29s-.73,1.81-1.31,2.47c-1.57,1.77-3.91,1.91-5,4.39-.07,2.87,1.14,5.13.87,7.91-.13,1.27-.92,2.39-1,3.69a29.62,29.62,0,0,1,.16,3.52c-.13.65-.73,1-1.18,1.76s-.57,1.64-.87,2.11c-.5.76-1.32,1.29-1.78,1.93-.73,1.06-.88,1.82-1.6,1.95-3.21.54-4-6.79-5.41-9.85-.66-1.43-2-2.69-2.64-4.4a68.76,68.76,0,0,0-2-6.69,44.18,44.18,0,0,1-2.77-5.81c-.53-1.66-1-3.77-1.44-5.61a36.85,36.85,0,0,1-1.16-6c-.12-2.27.36-3.69-1.17-4.57-1.43.4-2,2.11-3.67,2.11s-5.72-3.25-4.52-6.16c-1-1.75-3.61-2.69-5.57-4.75-1.13-1.18-2.15-4-4.1-4.21a9,9,0,0,0-1.76.34c-1.23.13-3.43-.13-4.82,0a26.48,26.48,0,0,1-6.16.36c-1.43-.19-3.21-.52-4.68-.7-1.86-.23-4.3-.78-5.42-1.94-.64-.73-.9-3-2-3.35s-2.11.89-3.37,1.23c-2.68.75-4.92-.65-6.73-2.1-1.29-1-2.46-1.56-3.36-2.29-2.24-1.79-2.64-7.16-6-7.16a3.25,3.25,0,0,0-3.21,2.46,9.56,9.56,0,0,0,1.61,4c1.64,2.78,4.65,3.82,5.57,7.56.6.29,1.83-.64,2.48.19.57,1.59,0,4.56,1.31,5.27,6.09,1.2,7.82-2.8,10.54-5.63,1.59,1.24,1.06,2.32,1.62,3.69a5.45,5.45,0,0,0,2.48,3c.74.33,1.69,0,2.79.51.69.32,3.58,3.61,3.67,4.76s-1.91,4.55-2.51,5.45-1.43,1.32-1.75,2.11a17.83,17.83,0,0,0-.3,2.29c-.27.7-1.57,1.62-2.33,2.46a33.64,33.64,0,0,1-2.49,2.28c-.93.86-1.44,2-2.5,2.47-1.94.86-3.79.49-5.41,1.75-1.06.83-1.06,2.69-2.33,3.7s-3.64,1.06-5.57,2.12c-1.25.67-2,2-3.07,2.46-.44.18-1,0-1.43.17-1,.3-1.86,1.13-2.78,1.43s-1.43.12-2.19.36c-2.26.77-4.29,3.54-6.59,1.93-1.07-3-1.24-6.7-2.49-9.32-.64-1.34-1.89-1.76-2.35-3.16,0-1.13,1.08-.83,1.18-1.76-.37-1.91-1.86-2.87-2.78-4.4-.44-.79-.66-1.91-1.17-2.86-1.75-3.05-5.19-4.63-5.86-8.44-.19-1,0-1.85-.14-2.63a10.61,10.61,0,0,0-1.76-3.7c-.56-.79-1.71-1.32-2.34-2.46-.43-.76-.51-1.83-.89-2.65a28.08,28.08,0,0,0-5.84-8.43c-1.2.2-2.48.3-3.08,1.23a30.14,30.14,0,0,0,2.49,6.15,38.23,38.23,0,0,1,2.78,5.63c.23.73.19,1.69.45,2.47.91,2.79,3.81,3.63,4.38,6.85.38,2.15-.09,3.66.44,5.8s3.05,3.3,4.1,5.27c.86,1.64.87,3.93,1.43,5.46.89,2.26,3.34,3.24,5.13,4.75a48.17,48.17,0,0,1,4.09,4.93c.79.84,1.86,1,2.05,1.93.26,1.19-.42,1.59-.59,2.64,1.13,1.43,2.22,4,4.11,4.22.77.09,1.75-.84,2.87-1.06.6-.1,1.26.12,1.76,0,.77-.17,1.43-1,2.34-1.23,1.44-.39,3.23-.23,5.12-.53s3-2.09,4.39-1.57c1.51,2,.43,4.29,0,6.15-.15.68-.15,1.43-.28,1.94-.81,3.13-2.87,5.45-3.81,8.26-.3.86-.25,1.92-.59,2.86A35.24,35.24,0,0,1,516.8,277a32.31,32.31,0,0,1-2.86,3.52c-1.06,1-2.33,1.61-3.52,2.64a35.28,35.28,0,0,0-6.45,7.75c-.63,1-.94,2.26-1.6,3.16-1,1.27-2.43,1.9-3.22,3.16a36.19,36.19,0,0,0-1.76,4.57c-.81,2-2.48,3.37-2.19,6.16.11,1.06.9,1.73,1.17,2.86a14.48,14.48,0,0,1-.14,5.45c.81,2.4,1.43,5.09,2.86,6.68.19,3.55-.24,7,0,10,.16,1.92.77,3.33.14,5.09a15.4,15.4,0,0,1-4,5.27c-1.43,1.08-3.49,1.44-5,2.65-1,.9-1.89,2.47-2.93,3.53-1.72,1.73-4.08,3.33-4.3,5.09a14.69,14.69,0,0,0,.88,3.51c.57,2.61,1.13,6.35.14,9.15-1.06,3-6.42,2.41-7,5.63-.18,1,.36,1.76.29,2.86a27.6,27.6,0,0,1-1.43,5.12c-.65,1.43-2.12,2.1-3.08,3.33-1.19,1.56-1.81,3.81-3.07,5.46a49,49,0,0,1-6.3,6.5,16.6,16.6,0,0,1-8.49,3.69c-1.77.16-3.68-.5-5.56-.17-.68.12-1.43.87-2.34,1.05-.53.11-1.06-.1-1.61,0-.91.18-1.77,1.07-2.63,1.06-1.89,0-4.3-2.74-4.4-5.45,0-1,.75-2,.73-3s-1.16-2.53-2.05-4.58-1.18-4.18-2-5.73-2.11-2.52-2.78-3.86c-1.35-2.71-1.43-5.92-1.91-9.15-.14-1.06-.74-2.21-.87-3.53-.16-1.6.16-3.41-.14-4.74a28.9,28.9,0,0,0-1.76-3.35c-1-2.27-1.77-5.25-2.64-7s-2.49-3.39-2.63-5.27a31.1,31.1,0,0,1,.28-4.92c.16-1.24.93-2.22,1.18-3.51.17-.88,0-1.86.14-2.87.74-4,4.44-5.48,3.95-10.38-.2-2.07-1.43-3.09-1.6-5.45-.09-1.11.46-2.07.44-3.17a18.38,18.38,0,0,0-1.62-5.1c-1.43-3.88-2.39-7.43-4.53-10.36-1.16-1.62-2.7-2.75-3.66-4.23a12.51,12.51,0,0,1-1.76-4.39c0-1,.65-1.64.88-2.65.31-1.29.33-3.76.73-5.73a18.35,18.35,0,0,0,.88-4.76c-.14-1.43-2-4.29-3.52-4.74-2-.61-4.14.79-6.73.53C405.24,272.48,405.41,268.05,402.19,267.49Zm80.95,63c.67-1.29,1.53-4.92,0-5.8h-.29c-.66,1.42-1.36,4.94.23,5.76Zm-2.05-36.76c.49-1.21,1.65-2.5,1.43-4-.43-3.4-5.72-1.72-6.28.7-.42,1.63.23,2.86-.3,4.57.57,1.3,2,1.56,3.81,1.43,1-.59.88-1.59,1.34-2.71Zm-8.93,18.12c.58-1.29-.92-2.13-1.16-3.52-.3-1.62.31-3.53-.89-4.4h-.43c-1.08,2.85.43,7.6,2.48,7.88ZM572,137.15c-.56-1.33-2.13.39-1.43,1.59,1,.1,1.3-.6,1.43-1.58Zm-34.11,7.16c2.38-.56,0-5.11-1.76-4.58-2.33.77.14,5,1.76,4.65ZM527.06,167c.73-6.1-3.24-6.56-4-10.91.33,0,.16-.5.43-.52,1-.55,2.42.89,2.87-.52a3,3,0,0,0-3-3,2.94,2.94,0,0,0-1.33.33c-.65-.53-.72-1.72-.88-2.86-1.66-1.19-5.72-3.78-5.72-6.16,0-1.95,2.14-3,4.53-3,1-.93.36-3.75-.58-4.41-3.78-1-5.8-.32-8.21,1.76-1.14,1-2.42,1.69-3.06,2.29a4.78,4.78,0,0,0-1.32,2.87c.09,1.08,1.43,1.73,1.91,3.16.25.75.2,1.68.42,2.29.65,1.71,2.28,2.87,3.53,4.3.87,1,3.32,3.19,3.36,4.39s-.76,1.24-1,2.3a15.43,15.43,0,0,0-.45,4.39c.32,1.93,2,2,3.51,2.87s3,2.24,4.54,2.29a5.65,5.65,0,0,0,4.47-1.84Zm-34.37-12.66c4-.86,2.16-4.89.14-6.33-1.51-1.1-3.33-2-5.11-3.35-1-.76-5-2.17-5-3.69s2.86-2.19,1.76-5.1c-2-.59-6.77.34-6.44,3,.18,1.54,1.7.69,2,2.3-1.43.6-3.18,2.21-4.68,1.93-1.79-.35-2.25-3-3.22-4.58-1.43,0-2.31-1.62-3.95-1.44s-2.64,3.23-3.51,4.76c-.47.8-1.22,1.22-1.43,1.93-.16.43,0,1.13-.15,1.76-.5,2-1.92,2.67-1.76,4.4s1.52,2.2,1.61,3.51-1.89.66-1.75,2.29c2.62,2.59,2.76-1.23,4.09-1.76,1.08-.43,3.18.35,4.54,0,1.09-.29,2-1.55,3.21-2.11a7.75,7.75,0,0,1,2.79-.7c4.66-.24,7.66,3.41,11.72,3.51a26.57,26.57,0,0,0,5-.24Zm-9.36,20.75c.08-1.89-.61-3.31-.74-6-2.7-2-4.72,1.81-7.46,1.43-1.69-.25-2.86-2.62-4.68-2.29-1,.19-1.43,1.72-2.49,1.94-2.09.45-3-2-5.27-1.05-3.14-2.86-4.54-7.55-5.27-12.89-1.7-2.69-4.29-.5-5.57,1.23-.76,0-1.72-.51-1.89.53-.59,3.25,3.82,3.6,3.8,5.8,0,1.43-1.72,1.31-2.48,2.28s-.29,2-1.32,2.65c-2.86.41-3.85-1.43-3.81-4.57-1.24-2.28-2.86-3.94-3.95-5.81a7.86,7.86,0,0,1-1.18-2.87c-.1-.83.33-1.87.15-2.86-.32-1.68-2.87-2.94-4.54-3.87a24.45,24.45,0,0,1-5.11-3.16c-.88-.88-1.29-2.41-2-3s-1.43-.39-2.06-.88-.66-1.8-1.75-2.12c-.56-.24-1.43.66-1.76,1.23-.72,3.84,1.89,4.11,3.08,5.73.81,1.18,1.21,2.87,2,3.71s2.07.66,3.22,1.22c.77.38,1.29,1.56,2,2.12,1.44,1,3.64,1.19,3.81,3.16-.87.72-2.86-1-3.52.7-.17,1.15.76,1.74.75,2.87,0,1.72-1.65,3.62-3.08,3.33-.15-1,.76-1.87.73-3-.07-2.23-3.81-5.73-5.73-6.67-.89-.49-2-.52-2.78-1.06a22,22,0,0,1-4.82-4.76c-1.06-1.66-1.95-4.74-4.3-4.56-.93,0-1.72,1.1-2.49,1.59a18.28,18.28,0,0,0-2.19,1.43c-.85.69-1.55,1.43-2.35,1.43-1.83.09-3.39-1.65-5-1.23-.53.14-1,.71-1.6,1.43a25.6,25.6,0,0,1,.14,2.86c-.47,1-1.89.92-2.94,1.58a22.2,22.2,0,0,0-4.09,4.4,6.06,6.06,0,0,0-1.61,2.46c-.08.59.41,1.69.29,2.46a8.1,8.1,0,0,1-2.33,3.35c-.53.42-1.22.48-1.76.88-1.16.81-1.68,1.89-2.64,2.1-2.56.57-7.16-.61-7.16,2.64,0,2.17,2.46,2.19,4,2.12,2.08-.11,3.84.52,5,.17.78-.25,1.64-1.31,2.47-1.76.53-.28,1.08-.29,1.44-.53.88-.52,1.43-1.44,2.06-1.75a15.29,15.29,0,0,1,5.27-1.43c2-.13,4,.24,6.58,0,.91-.09,1.81-.79,2.78-.88,1.59-.15,3.7.76,5,.7.9,0,1.89-1.07,2.94-1a3,3,0,0,1,2.63,1.94c.12.52-.24,1.33-.14,2.11.16,1.27,1.07,1.8,1,2.63-.08,1.11-2.37,2.58-2.05,3.87.2.84,1.84,1.7,2.63,2.29a8.66,8.66,0,0,0,3.22,1.58c.83.11,1.57-.28,2.35-.18a10.56,10.56,0,0,1,4.1,1.76c1.43,1.16,1.17,3,2.78,3.7.67.29,1.9.13,2.77.36,2.14.54,3.71,2.67,5.27,2.46,2.45-.34,1.34-3.12,1.62-5.1.62-4.49,7.92-4.29,9.37-1.24,1.06.34,2,0,3.22.53.7.27,1.22,1.2,1.9,1.43s1.25-.1,1.89,0c2.87.37,5.36,2.86,7.76,2.45,1.54-.28,2.65-2,4.1-2.11,2.86-.21,4.6,2.51,7.62,1.23,2.22-.94,1.73-3.71,2.49-6.5.56-1.87,1.57-3.19,1.63-4.67Zm157.74-59.9a7.16,7.16,0,0,0-1.43-6c-1.69.36-.47,2.46-.59,3.69-.16,1.75-1.7,3-1.6,4.76-.56.78-1.54,1.1-1.62,2.46.93.77,1.34-.62,2-1.43C639,117.43,640.68,116.69,641.07,115.18Zm-38.35-61a5.09,5.09,0,0,0-3.22,1.44c-.54.35-1.66.54-1.32,1.58C599.6,56.93,602.39,56.17,602.72,54.15ZM541,75.83c3.44,1,5.06-3.71,2.78-6.34-.53-.6-2.33-.85-3.08-2.28-.89-1.72-.76-4-2.86-3.52,0,.22,0,.5-.16.53-.2,3.85,4.47,4.81,4.4,7.92C542,73.71,540.52,73.89,541,75.83Z"/>
<path d="M492.79,69.1c-.41-1.9,2.58-1.59,2.06.17a1.43,1.43,0,0,1-2-.12Z"/>
<path d="M474.79,174.28c.07-1.43,2.86-2,3.37-.7C478,175,475.36,176,474.79,174.28Z"/>
<path d="M424.59,164.79c1.53-1.44,4.92-.49,7-.53-.4,1.34-.46,3.08-1.32,3.86C427.89,167.59,425.66,166.89,424.59,164.79Z"/>
<path d="M413.9,155.46c2-2.53,4.13-1.2,3.37,3.68-.47,1.44-2.58,3.41-3.51,1.24A21.89,21.89,0,0,0,413.9,155.46Z"/>
<path d="M416.82,149.84a2.48,2.48,0,0,1-1,2.63C413.87,152.06,415.35,147.9,416.82,149.84Z"/>
<path d="M388.43,114.12a3.08,3.08,0,0,0-1.32-2.86c-.47-.33-1.22-.17-1.75-.53-1.43-.94-1.94-2.86-2.77-3.35.1-1.92-.45-3.32,0-4.57a9.23,9.23,0,0,1,3.2-3.34c1.29-.54,2.62,0,3.38-1.23a.84.84,0,0,1,.73.18c0,1.1-.78,1.28-.88,2.29.18,1.59,2.53.6,2.77,2.1-.21,1.65-1.43,2-1.43,3.17s1.78,3,2.64,4.39c.64,1,1.77,1.78,2.35,2.87s.61,2,1,2.46c.78.87,2.51,1,2.64,2.28.17,1.69-1.74,2.34-1.44,4.29-2,1.89-5.35.92-8.59,1.43-1.43.23-3.12,2-4.68.53-.36-1.17,1.3-1.33,1.43-2.46-.11-1-1.2-.89-1.43-1.75.43-1.43,1.75-1.64,1.6-3.69C386.61,115.17,388.19,115.57,388.43,114.12Z"/>
<path d="M377.46,109.9c2-1.43,5.37-.33,5.56,1.43.14,1.32-1,1.43-1.44,3s0,3-.44,3.88-1.66.75-2.49,1c-1.83.65-5.39,3.26-6.87.35.21-1.56,1.43-1.87,1.9-3.16,0-1-.87-1.56-.73-2.64.17-1.33,1-.87,2.19-1.43C376,112,376.34,110.72,377.46,109.9Z"/>
<path d="M277.48,71.74c.32,1.56-3.85,3.61-4.3,1.59C272.93,71.71,276.42,69.69,277.48,71.74Z"/>
<path d="M272.65,468.19h-2.2A2.89,2.89,0,0,1,272.65,468.19Z"/>
<path d="M266.07,59.25a.62.62,0,0,1,.87,0h0c-.14.42-.26.86-.87.7Z"/>
<path d="M253,87.29c0,1-2.87,2.58-3.22.7a1.41,1.41,0,0,1,.58-1.43C251.19,85.94,253,86.27,253,87.29Z"/>
<path d="M192.15,250.6c-.09.26-.21.45-.3.71C190.3,251.23,191.71,248.86,192.15,250.6Z"/>
<path d="M132.72,127.67c1-.72,2,1.09,1.32,1.93C132.91,129.86,132.62,128.31,132.72,127.67Z"/>
<path d="M292.26,134.17c-.67-.2-1.61-.16-2.48-.34s-1.63-.43-2.35-.53c-1.8-.26-3.75.37-4.82-.89a53.27,53.27,0,0,1,6.3-7.9c.66-.72,2.09-1.21,1.74-2.64-1.24-1.32-2.77,0-3.95.87a12.91,12.91,0,0,1-4.09,2.3c-2.42.43-5.63-.86-7.62.7-.27,1.31,2.26.8,1.9,2.86a2.5,2.5,0,0,1-2.63-.53c-.67-.73-.29-1.83-.73-2.28-.75-.74-3.57-1-4.83-.7a3.65,3.65,0,0,0-3.08,3c1.85,1.05,4.9-1.06,5.57,1.59-1,2.19-3.4,3.39-3.07,6.33a3.8,3.8,0,0,0,2,2.86c.82.18,1.26-.8,2-.71s.65,1.23,1.62,1.06c1.43-.72,2.18-3.1,3.79-3,1.95,2.87-1.74,4.21-3.79,5.12-2.35,1-5.4,1.56-7.16,2.46-.95.47-4.48,4.58-5,1.43-.36-2.29,1.76-1.63,2.2-3.52-2.28-.53-4.38,1.17-6.44,2.12-2.95,1.33-7.94,2.18-8.59,6.16-.15.78.28,2.27-.15,2.86s-2.46.5-3.38.87c-1.43.59-2.63,1.84-3.51,2.12s-1.63.15-2,.35c-1.16.54-1.59,2.43-2.94,3.69-.54.52-1.75.89-2.19,1.43-.76.92-.86,3.18-2.19,3.53-.86.08-1.55-.78-2.35-.18-.1,2.24.66,5.29-.14,7.56a41.14,41.14,0,0,1-5.86,4.4c-1.23.83-2.32,1.05-3.81,1.93-1,.63-2,2.14-3.22,3-2.79,2-6.16,4.29-6.14,9.32,0,1.09.47,2.25.58,3.52.08.75-.07,1.43,0,2.28.18,1.85,1.29,4.18,0,5.45-2-1-4.48-1.3-5.85-3-.37-1.73.76-3.16.58-4.74-.14-1.27-1.61-3.54-2.49-3.71s-1.7,1-2.63.89-2.11-1.92-3.51-2.1c-2.06-.31-3.58.55-5.86.17-2.2,1.43-2.86,3.93-5.55,3.69-1-.08-1.84-1-2.94-1.23a15.28,15.28,0,0,0-4.29-.7c-2.5.2-4.3,2.35-6.45,3.69-1.89,1.18-4.55,2.65-5.12,5.1-.3,1.32,0,3.18-.43,4.4a21.22,21.22,0,0,1-1.18,2.27A20.74,20.74,0,0,0,164,220.39a34.42,34.42,0,0,0,2.49,6,7.72,7.72,0,0,0,4.3,2.46,16.81,16.81,0,0,0,3.36-.89,25.81,25.81,0,0,0,3.81-.7c3.17-1.22,2.55-6.36,5.73-8.09a12.74,12.74,0,0,1,5.41-1,4.41,4.41,0,0,1,1,3.34,24.7,24.7,0,0,1-1.17,3c-.33,1.12-.4,2.44-.73,3.34-.44,1.19-1.43,2.05-1.76,3.16-.23.73-.1,1.64-.29,2.29-.34,1.16-1.63,2-1,3.17,3.14,1.43,6.93-.43,9.67.17,1.14.26,3.53,1.92,3.5,4.05,0,1.59-1,2.65-1.17,4.4-.17,2.2-.94,4.9-1,6.67-.12,2.87,3.57,8,6.15,7.92s4.41-3.32,7.76-1.57c1.1.57,2.29,2.73,3.51,2.63s2.55-2.22,3.22-3.69c.83-1.81.89-3.33,2.33-4.23s2.87-.5,4.84-1.43a11.21,11.21,0,0,0,2.49-1.76c.71-.59,1.44-2.12,2.34-1.06,1.17,1.43-1.43,2.19-.43,3.69,2,1.29,3.06-2.4,4.54-2.46a10,10,0,0,1,2.86,1.76c1.15.9,1.53,2.16,2.78,2.46.8.19,2.09-.37,3.22-.17,1.43.26,2.38,1.79,3.51,1.75,1.43,0,2.05-1.85,3.22-2.1,2.59-.58,3.55.34,4.68,2.29,1.28.25,1.32-1.78,2.5-1.06-.65,1.53.21,2.24.73,3.52.33.82.27,1.43.58,1.76.71.8,2.05.8,3.08,1.58a20.49,20.49,0,0,1,2.87,4.05c1.27,1.75,3.42,3.55,5.12,3.68s2.87-.55,4.3-.35c3,.45,4.91,2.27,7,4.3,1.19,1.09,2.25,1.85,2.63,3.17.26.91.13,2.13.45,3.16.64,2.19,3.29,3.25,2.33,7,.45,1.12,1.43,1.52,2.49,2.29s1.56,1.94,2.5,2.11c.58.11,1.23-.22,1.74-.17a11.88,11.88,0,0,1,4.3,1.58,14.61,14.61,0,0,1,2.63,1.06c.75.61.85,2.62,1.76,3.15.59.36,1.92-.12,2.87,0,1.57.23,3.71,1.44,5.12,1.44.86,0,1.58-.43,2.34-.36,3.59.33,5.63,5.48,9.08,7,1.07.49,2.78.16,3.51.53,1.3.67,2.39,5.44,2.49,7.56.3,6.39-3.78,8.45-6.15,12.67-.5.88-.77,2.28-1.43,3.51-1.43,2.49-3,3-2.78,7.56,0,1.26.58,2.48.58,3.88a30.87,30.87,0,0,1-.43,5.44c-.25,1.18-1.05,2.12-1.18,3.18s.26,1.89.15,2.87a18.64,18.64,0,0,1-1.61,3.86c-1.36,3-1.66,6.53-4.39,7.74-1.62.71-3.8.31-5.56,1.06-.72.3-1.62,1.08-2.49,1.58-2.55,1.44-6.19,3.34-6.89,6.51-.61,2.86.87,5.05.45,8.26a29,29,0,0,1-1.77,3c-.63,1-.94,2.18-1.6,3.17-.89,1.33-2.25,1.91-2.78,3.69-.18.62-.07,1.33-.3,2.29-.08.36-.61.9-.87,1.58s-.23,1.43-.45,1.94c-.67,1.62-2.65,5.32-4.09,5.8-3,1-6.24-1.54-8.35-1.06.3,1.77,1.43,1.58,2.06,2.87a20.3,20.3,0,0,0,1.16,2.45c.66.91,1.25,1.26,1.32,2.29a6.65,6.65,0,0,1-2.19,5.1,11.27,11.27,0,0,1-4.3,1.43c-1.07.23-3.86.24-4.38,1.07-.76,1.22.4,4.3-.14,5.44-1.1,2.58-4-.07-5.57.7a3.71,3.71,0,0,0,1.17,3.34c.92.66,2.32-.19,2.87,1.06-.29,1.75-1.87,2-2.2,3.69,0,1.69.48,2.12.31,3.17-.39,2.26-3.31,2.16-3.23,4.58.12,3.6,5.73,2.12,5.86,5.63,0,2.12-1.62,2.15-2.2,4.21-.32,1.12.18,1.43,0,2.29-.25,1.25-1.44,1.6-1.44,3,0,1.68,2.05,3.54,3.07,4.93a18.23,18.23,0,0,0,3.66,4.22c2.07,1.36,5.12,1.05,6,3.51-.27,1.43-1.43,1.88-2.63,2.29h-.29a2.89,2.89,0,0,0-2.2,0h-2.05c-1.95-1.09-4.3-1.79-6.73-2.86-.86-.36-1.83-1.25-2.78-1.75-.7-.38-1.5-.54-2.05-.89-1.26-.78-2.67-3.36-4-4.39-.77-.62-2-.95-2.49-1.59a25.84,25.84,0,0,1-1.17-2.64c-.48-.8-1.34-1.43-1.91-2.27-1.22-1.95-2.76-4.56-2.78-6s1.12-2.36.73-3.69-2.6-1-2.86-2.47c-.2-.9.64-2.4.59-3.69,0-.73-1.19-1.75-.73-2.86s1.43.1,2.33-.53c-.62-2.54,0-6.63-2.05-7.39-1.07,1.09,1.1,3.55-.73,4.22C240,428.83,240.35,426,240,424a25.4,25.4,0,0,1-.87-4.05,22.54,22.54,0,0,0,.14-2.46c-.31-2.36-2.51-4.3-2.63-6.69a21.41,21.41,0,0,1,.73-3.34c.1-.83-.1-1.76,0-2.63.12-1.12.64-2.15.73-3.17a33.4,33.4,0,0,0-.29-6.85c-.36-2-1.7-3.77-1.9-6-.08-.8.22-2.13.14-3.16s-.5-1.91-.57-3a20.85,20.85,0,0,1,.28-3.16c.16-2.21-.36-4.67-.28-6.86,0-.65.28-1.13.28-1.76,0-1.81-.51-3.64-.58-5.44a78.46,78.46,0,0,0-.15-8.81,36.25,36.25,0,0,0-1.43-7.37,20.4,20.4,0,0,0-5.43-5.83c-1-.69-2.25-.92-3.36-1.59-2.38-1.43-7-4.37-8.05-7.16-.3-.82-.26-1.91-.59-2.87a37.91,37.91,0,0,0-2.86-5.09c-1.82-3.33-3.28-7.48-5.13-10.9a44.92,44.92,0,0,0-2.78-5.1c-.6-.83-2.53-1.59-2.77-2.86-.33-1.64-1.34-3.87-1.18-5.1.2-1.69,2.87-3.05,2.87-4.57s-1.44-2.06-1.75-3.16c-.75-2.7.43-4.3,1.32-6.52.28-.73.57-1.92.87-2.46.53-1,1.63-1.25,2.33-2.29.41-.59.66-1.81,1.18-2.64,1.12-1.77,2.86-2.43,3.36-4a40,40,0,0,0,.15-10,34.91,34.91,0,0,0-1.61-3.52c-.66-2.12-.81-4.44-2.63-4.4-1.12,0-1.92,1.52-2.64,2.46-.17,1.25-.08,2.61-1.17,3-1.66.6-2.31-2.1-4.3-2.86-.77-.29-2-.27-2.49-.53-1.43-.76-1.87-3.25-3.36-4.23-1.25-.8-2.32-.51-3.08-1.76a17.08,17.08,0,0,1-.15-3.5c-1.6-1.14-3-5.35-4.82-6.33-1.25-.66-3.14-.61-4.68-1.24a15.63,15.63,0,0,0-2.07-.87,10.38,10.38,0,0,1-2.62-.71c-2.86-1.74-4.46-7.34-8.06-7.16-1.52,0-3,1.76-4.38,1.76s-3.69-1.34-5.43-2.29-3.78-1.55-5.25-2.47c-1.21-.73-2-2.07-3.08-2.63-.8-.43-2-.52-2.64-.89a30.84,30.84,0,0,1-3.07-2.63,5.93,5.93,0,0,1-2.34-3.51c0-1.44,1-2.55,1.16-3.88.39-4.19-2.19-7.16-3.79-9.67-1.21-1.85-2.61-3.41-3.81-5.1a14.43,14.43,0,0,0,0-2.46,34.67,34.67,0,0,1-2.64-4.22c-.87-1.44-2.56-3-2.78-4.57-.27-2,.62-3.73,0-5.64-1-3.18-4.72-1.75-4.29,2.46.13,1.16,1.43,2.72,1.9,3.88s.35,2.63.73,4,1.52,2.52,1.91,4c.63,2.41.6,5,1.17,6.5s2.35,2.61,1.32,4.3c-1.43.34-1.92-1.32-2.78-2.29-.49-.55-2.22-1.57-2.49-2.87s.54-2.43.29-3.69c-.5-2.49-4.67-2.55-4.69-5.1,0-1.6,1.75-1.8,1.77-3.35s-1.92-3.14-2.35-4.57a31.25,31.25,0,0,1-.58-5.28,39.44,39.44,0,0,0-.3-5.1,7.93,7.93,0,0,0-2.77-3.52c-1.29-.85-2.31-.5-2.94-1.75a16.75,16.75,0,0,1-.9-4.6c-.22-2.1,0-4.42-.15-6.67a39.29,39.29,0,0,1,0-6.86c.72-1.7,2-2.55,2.78-4.3.52-1.17.59-2.62,1.16-3.86,1.08-2.31,3.41-4.43,5-6.69a31.93,31.93,0,0,0,4.29-7.56,12.89,12.89,0,0,0,1.18-4.4c-.19-1.69-2.87-3.09-2.64-5.09.14-1.26,1.62-1.23,2.06-2.47a14.58,14.58,0,0,0,.43-3.16c0-1.71-.71-3.47-.43-5.28.23-1.55,2.15-2.17,1.16-3.87s-2.72.9-3.81-.17.2-2.21.3-4.06c0-.73-.35-1.56-.3-2.1.1-.79,1.44-2.11,1-2.64-.78-1.2-1.67-4.29-3.36-5.28-2.15-1.29-4.48-.41-7.46-1.06-1.83-.39-2.71-2.45-4.4-2.28-1,.1-1.64,1.54-3.08,2.28s-3.26.5-4.68.89-2.06,1.55-3.51,1.43c-1.2-.11-1.21-1.43-2.63-1.57a16.22,16.22,0,0,0-2.49.53,28.76,28.76,0,0,1-8.59-.19,22.75,22.75,0,0,1-5.73-2.64c-1.74-1-5-2.16-4.83-3.69.09-1,3.07-2,4.3-2.46,1.92-.7,3.09-1.82,4.54-1.94a16.1,16.1,0,0,0,2,.36c.75-.06,1.68-.9,2.64-1.06,2.05-.34,4.93.12,4.68-2.29-1.54-1.43-7.87,1.09-8-2.1-.1-1.94,2.41-2.52,4.3-3A24.24,24.24,0,0,1,96.54,76c1.67.1,3.88,2.35,4.84-.17.46-1.79-.57-3.29-.89-4.75,1.25-2.06,3.54-1.81,5.27-2.11a18.47,18.47,0,0,0,5.57-1.76,19,19,0,0,1,5.56-1.76c2-.3,3.92-1.2,5.72-1.43a30.92,30.92,0,0,0,4.3-.36,14.58,14.58,0,0,1,4-1c.93,0,1.72.85,2.64,1s1.86,0,2.86.19c.7.17,1.33.74,2,.87,1.1.2,2.29-.19,3.36,0s1.82.92,2.78,1.06c2.25.34,4.84-.14,7,.36.83.18,1.58.67,2.48.87s1.8,0,2.63.17c1.18.29,2.15,1.61,3.38,1.76,2.27.29,4.8-1.18,7.16-1.43a33.11,33.11,0,0,0,5.27-.36A29.15,29.15,0,0,1,177.19,66a15.21,15.21,0,0,0,2.2.19c.77-.12,1.66-1.22,2.48-1.06,1.1.2.9,1.86,2.06,2.29,1.28-.8,2.55,0,3.95,0s2.59-.82,4.1-.53c2.66.5,6.38,3.64,8.49,1.93.53-.43.4-1.17.87-2.29C202,65,203.26,63.19,203,61c-2.86,0-5.73,1.79-9.08,1.93-3.38-2.53.9-4.11,3.37-5.27,2-1,3.64-3.09,6.14-3.52,2.05-.35,4.3.54,6.73.89a30,30,0,0,1,3.67.17c1.43.51,2.17,2.23,3.36,2.63.52.19,1.36.16,2,.36,1.32.36,2.49,1.2,3.81,0,1,.22,1.14,1.55,2.19,1.76,1-.63,1.73-2.23,3.22-2.63.66-.19,1.33.13,2.05,0,1.2-.25,2.79-2.18,3.52-.36-.3,1.26-1.9,1.43-2.79,2.46a7.67,7.67,0,0,0-1.89,3.87c.17,1.67,2.26,1,2.33,3.16-.31,1.23-1.5.69-2.49,1.23s-1.23,1.55-2.19,1.77c-2.66.6-4.87-.81-7.16-.71-.1,1.21,1.15,1.89,1.76,2.28,2.09,1.32,3.78,1.15,6.73,1.06,1.51,0,3.24.54,4.54-.53.82-.67.78-2.16,1.43-3a5.12,5.12,0,0,1,4-1.75,2.35,2.35,0,0,1,1.6,1.75c0,1.6-1.88,1.09-1.89,2.86,1.23.89,4.5-1,4.68-2.46.12-1.09-1.07-1.71-1-2.87.07-1.84,2.16-1.81,1.91-3.69-1-1-2.05.2-3.08,0-1.43-.3-2.74-2.36-3.37-3.71.63-.94,2-.31,2.94-.17,1.07-1.79,3.08-2.48,5.84-2.86,1-.12,2.31-.59,2.86.53.23,1.66-2,2.66-1.61,4.56,2,.59,2.62-2.6,4.29-3.86a14.06,14.06,0,0,1,2.78-1.43c.9-.42,1.89-1.44,2.63-1.44s1,.83,1.77,1.23,1.66-.24,1.9.89c-1.7,3.53-8,1.43-9.67,5.1.36,2.41-1,4.71.15,6.33.81,1.16,2.65.37,3.08,1.57.57,1.64-1.78,1.64-1.18,3.53,1.55,1.11,3.4-1.06,4.83-1.94s3.48-2,3.66-4.29c-.77-1.78-3.66-.4-4.09-2.28a7.14,7.14,0,0,1,1.16-3.69c1.53-2.06,6.86-5,10.7-4.59.71.09,1.43.62,2.19.72,2.52.3,5.48-1.32,7.46,0,1.59-1.12,3.49.14,5.72-.19,1.71,1.22,1.24,3.78,3.81,4.93.7.32,1.56.09,2.48.36.69.18,1.43,1.14,2.21,1.57,1.1.62,2,.48,2.19,1.44s-.81,1.51-.73,2.47c.63.62.1,1.56.44,2.45.63,1.63,2.22,1.52,3.8,2.29,1.11.55,3.47,2.22,3.36,3.53,0,.85-2.22,2.39-2.86,2.86s-3,1.73-3.81,1.59c-1.43-.24-1.92-3.61-3.8-3.52a1.72,1.72,0,0,0-1.62,1.83v.1c0,2.32,2.15,2.4,2.2,4.4,0,2.39-1.09,2.56-2.78,4.05a10.4,10.4,0,0,0-3.81-1.59c-.93,1.34,1.54,1.82.73,3.52-2.35.6-4.14-.8-6.29-1.59-.67-.24-1.63-.14-2.19-.51-.83-.59-1.07-2.3-1.76-3.18S273.64,81,272.35,81c-1.8,0-4.42,2.69-5.85.17,1-4,5.73-1,8.79-2.46,1.15-.53,1.55-2,2.49-2.64,1.89-1.3,5-1.43,4.68-4-.14-1.29-1.64-1.27-2.49-1.93-1.14-.91-2-4.07-3.65-4.3-.84,0-1.43.77-2.35.89-1.89.2-4-.92-5.73,0-.78.54-.25,1.43-.87,2.45s-1.72,1.1-2.19,1.94-.46,2.22-1.17,3c-1.21,1.29-3.76,1.44-5.27,2.12-.69.27-1.54,1.23-2.19,1.23-1.22,0-1.74-2-3.08-1.23-.12,1.88,1.64,2.65,2.77,3.51a6.9,6.9,0,0,1,2.87,3.52c-1.19,3-3.08-.15-5-.17s-5.11,4.76-6.87.88c.43-2.05,2.32-2.37,2.77-4.4-2.07.43-3.86,2.52-6.3,3.16-1,.28-2,.22-2.86.53-1.76.62-3,2.18-4.83,3-.73.31-1.59.23-2.34.53A34.73,34.73,0,0,0,228,89.88a30,30,0,0,0-5.11,3.7,9.61,9.61,0,0,0-2.21,3.69c0,1,1.72,1.43,1.76,2.46,0,.65-.94,2-.3,3s1.81.17,3.08.36c2.23.33,3.69,2.55,5.41,3.69a13.52,13.52,0,0,0,4.69,2.11c2,.3,4.29-.7,4.53,1.23s-1.89,2.53-2,3.69c1.09,1.72-.73,2.55-.73,4.06,0,1.21,1.24,3.05,2.33,3.16,1.43.14,3.64-1.75,4.3-3.52.73-2.11.41-5,1.76-6.5,6.81.21,12.58-3.73,12.14-12.15A14.45,14.45,0,0,1,257.3,96c.22-1.43,2.15-2.5,1.89-4.29C261.11,91,261,87.3,263,86.76c1.66-.44,3.54,1.43,5.73,1.23.7,0,1.63-.82,2.34-.7,1.43.24,2.3,2.36,3.37,3.34s1.95.6,2.2,1.76c-.29,2-1.44,2-1.32,3.86a3.59,3.59,0,0,0,1.56,3.45,6,6,0,0,0,3.67-1.06c1.94-1.11,3.63-4.46,5.26-4,1.29.33,2.3,5.25,2.5,7s-.22,3.35-.16,5.1c.2,3,3.31,2.67,4.84,4.29.46.47.63,1.68,1,2.29.74,1.19,1.64,1.19,1.76,2.47.27,3-2.29,3.29-2,6.67-.53,1.32-1.86,1.24-1.76,3,.17,2.78,3.49.65,4.39,2.86.49,1.16-.08,2-.44,3.7,1.13,1.62,1.13,4.21-.87,4.21C293.83,136.1,293.49,134.54,292.26,134.17ZM134,129.6c.69-.84-.3-2.65-1.32-1.93C132.62,128.31,132.91,129.86,134,129.6Zm102.17,16c-.61-.71-2.6-.51-4-.36-.95.12-2.1.36-2.2,1.24C231.57,147.33,235.72,147.93,236.21,145.61Zm-7.62-3a2.34,2.34,0,0,0-.07-3.32,2.29,2.29,0,0,0-.51-.37c-.48-.16-1.12.43-1.91.35s-1.64-1-2.33-1.06a3.22,3.22,0,0,0-2.87,1.24c0,1,.65,1.21.59,2.27-1.43,1.23-.66,5.31.75,5.46s2.24-4.51,4.29-4.93C227.26,142.12,227.63,142.76,228.59,142.62Zm-2,7c-2.08-.89-4,.6-5.73.89-1,.16-2.87-.26-2.64,1.57.19,1.44,2.11.95,3.23.53A13.21,13.21,0,0,0,226.55,149.65Zm-6.45-13.36c2.87-1.43-.57-6.1-1.9-6.51-2.37-.75-5.73,2.09-8.49,3-1.55.5-3,.54-3.37,2.12,1.43,2.75,4.12-.62,6.14-.19,1,.22,1.64,1.91,2.65,2.11A26.7,26.7,0,0,0,220.1,136.29Zm-2,2.86c-.6-.85-3.89.1-4.82.89a17.26,17.26,0,0,0-1.76,2.87c-.69,1-1.43,1.77-2.05,2.65s-3.49,5.91-1.17,6.5c1,.24,3-2.22,3.22-3.17a10.8,10.8,0,0,1,3.95-7c1.2-1,2.43-.88,2.63-2.75Zm-18.3-19.68c1.64-.08,2.75-5.88,0-5.12-1.83.46-2.27,5.16,0,5.06Zm-7.9,131.89c.09-.25.21-.44.3-.7-.44-1.8-1.85.57-.3.65ZM129.93,104.1c0-.33-.16-.39-.14-.7-.45,0-1-.1-.88.53S129.69,104.47,129.93,104.1ZM283.78,76.49c.72.1,1.12-.17,1-1.06C284.15,74.89,283.21,75.6,283.78,76.49ZM266.94,59.31a.62.62,0,0,0-.87,0h0V60c.61.07.79-.34.87-.76ZM211.32,72.85c.49-.37,1.24-.88.88-1.76-1.62-.9-4.3-.21-6.73-.53-1.35-2.29-3.61-2.65-3.81,1.06,2.72,2.61,6.84-1.29,9.66,1.18ZM185.12,91c.83-.34,2-.17,2.19-1.23-.67-.66-1.43-1.55-2.19-1.59-1.06,0-1.58,1.09-2.64,1.76s-2.95,1-3.07,2.29c2.27.47,4.31-.72,5.71-1.29Zm-.73-12.66c.93-.2,1.89.32,2.49-.7-.7-3.88-5.15-1.52-7.76-1.23a9.64,9.64,0,0,0-1.43,3.51c2,.55,4.42-1.19,6.7-1.64Zm43.92,179.74c1.14-.23.81-3.42-.59-2.65-1.06.55-.52,2.81.59,2.59Z"/>
<path d="M129.79,103.4c0,.31.18.37.14.7s-.8.33-1-.17S129.39,103.4,129.79,103.4Z"/>
<path d="M125.41,113.78a3.38,3.38,0,0,1-2.07,2.15,5.17,5.17,0,0,1-.73-.88C122.69,113.34,124.66,112.1,125.41,113.78Z"/>
</g>
<path d="M599.57,82.86c0-9-9.48-14.72-19.13-10.2a11,11,0,0,0-5.09,4.87c-2.42,4.7-1.34,10,.85,14.53l7.52,19a3.24,3.24,0,0,0,6,0L597.12,92C599.67,86.11,599.57,82.86,599.57,82.86Zm-9.08,7.84c-6.49,3.77-13.06-3.2-9.51-10A5.43,5.43,0,0,1,583,78.49c6.49-3.78,13.08,3.19,9.51,10a5.24,5.24,0,0,1-2.06,2.19Z" fill="#0071f2" data-primary="true"/>
<path d="M270.31,291.72c0-9-9.47-14.72-19.13-10.2a11,11,0,0,0-5.08,4.87c-2.42,4.7-1.35,10,.85,14.54l7.51,19a3.24,3.24,0,0,0,6,0l7.36-19.14C270.41,295,270.31,291.72,270.31,291.72Zm-9.07,7.84c-6.49,3.77-13.06-3.2-9.51-10a5.43,5.43,0,0,1,2.06-2.19c6.49-3.78,13.07,3.19,9.51,10a5.31,5.31,0,0,1-2.06,2.19Z" fill="#0071f2" data-primary="true"/>
<path d="M199.88,298.13c14.56,19.38,26.63,34.31,33.35,28.27s.68-18.31.68-18.31l-8.82-.42s-20.25-37-25.21-37.8C199.88,269.87,185.32,278.75,199.88,298.13Z" fill="#0071f2" data-primary="true"/>
<g opacity="0.2" style="isolation:isolate">
<path d="M199.87,269.87c3.4.53,13.93,18,20.24,29,2.92,5.1,4.95,8.83,4.95,8.83h.4l8.42.4s6.06,12.27-.66,18.31c-4.43,4-11.19-1.16-19.45-10.67-4.26-4.92-9-11-13.9-17.6-.36-.47-.71-.95-1-1.41h0C186,278.3,199.87,269.87,199.87,269.87Z" fill="#fff"/>
</g>
<g opacity="0.2" style="isolation:isolate">
<path d="M220.12,298.86c2.93,5.1,5,8.83,5,8.83h.38c-.19,1.88-.38,3.2-.38,3.2l-1.65.75v5.49S220.22,311.64,220.12,298.86Z"/>
</g>
<g opacity="0.2" style="isolation:isolate">
<path d="M201.65,288.67a48,48,0,0,1,12.13,27c-4.26-4.92-8.94-11-13.9-17.6-.36-.47-.71-.95-1-1.41h0A13.87,13.87,0,0,1,201.65,288.67Z"/>
</g>
<path d="M122.36,586.43s-4,31.27-2.23,35.56,6.44,4.39,11.39-.44c0-5.9,6.26-28.14,7.91-36Z" fill="#f9b499"/>
<path d="M120.73,605.57l13.73,3.37a5.23,5.23,0,0,0,6.3-3.68C145.5,588.09,161.85,530,174.2,498.6c25.42-64.32,33-105.89,33-116.11l-58.62.35c-3.75,27-.63,59-9.36,116.42-12.09,37.23-20.09,85.35-22.43,100.44A5.23,5.23,0,0,0,120.73,605.57Z" fill="#2f2e41" data-secondary="true"/>
<g opacity="0.2" style="isolation:isolate">
<path d="M151.56,417.76c1.39,13.65,9.39,48,25.9,72.44q3.75-9.85,6.95-18.92c-2.36-29.68-5.56-55.88-5.56-55.88Z"/>
</g>
<path d="M155.37,633.4c-4.3,1.2-13.68,1.14-35.14.46l-1.65-2.05-1.47,2-4-.11L117.42,620a1.84,1.84,0,0,1,1.44-1.25l14-2.35.17,0a1.32,1.32,0,0,1,1.48,1.14c1.41,7.61,20.74,13.31,20.74,13.31S156.15,631.5,155.37,633.4Z" fill="#0071f2" data-primary="true"/>
<path d="M216.23,591.73s10.61,26.79,14.05,29.86,9.62,3,11.95-3.53c-2.54-5.35-9-26.93-11.06-34.67Z" fill="#f9b499"/>
<path d="M221.67,609.08l14.09-5.32a5.68,5.68,0,0,0,3.5-6.66c-4-16.4-17.08-70.17-22.5-100.69-6.46-36.32-27-113.92-27-113.92l-52.83.45c-.77,30.51,27.31,54.41,45.22,109.44,4.94,35.75,25.66,95.19,32.18,113.32A5.66,5.66,0,0,0,221.67,609.08Z" fill="#2f2e41" data-secondary="true"/>
<path d="M270.74,617.23c-3.3,2.91-11.64,6.95-31.37,15.87l-2.67-1-.2,2.26L232.87,636l-4-13.21a1.63,1.63,0,0,1,.56-1.65l11.26-8.13a1.56,1.56,0,0,1,2,.25c5.64,5.71,26.26,2,26.26,2S270.2,615.45,270.74,617.23Z" fill="#0071f2" data-primary="true"/>
<path d="M141.79,406.75c-5.25-10.42-10.95-41-4.26-41.28,5.35-.2,69.65,2.43,69.65,3.82a63.3,63.3,0,0,1,0,13.2C205.73,390.53,188.39,409.75,141.79,406.75Z" fill="#2f2e41" data-secondary="true"/>
<path d="M206.36,371.33v4.07a.91.91,0,0,1-1,.85c-40-2.64-63.52-3.2-68.05-3.3a.9.9,0,0,1-.89-.84,11.12,11.12,0,0,1,.46-4.14.92.92,0,0,1,.8-.62c12.86-.87,60.55,2,67.85,3.21A.93.93,0,0,1,206.36,371.33Z" fill="#3f4347"/>
<path d="M162.29,366.83c-.63,1.75-.1,8.35-.1,8.35l3.42.38s0-7.76.59-8.73A17,17,0,0,0,162.29,366.83Z" fill="#2e3135"/>
<path d="M203.37,369.14c.48,1.7-.51,7.95-.51,7.95l-3-.28a27.85,27.85,0,0,0,.14-8A6.68,6.68,0,0,1,203.37,369.14Z" fill="#2e3135"/>
<path d="M138.83,270.66a11.56,11.56,0,0,0-9.28,13.46c2.83,14.52,6.79,43.05,5.45,84.6l72.64,1.13s5.52-53-7.69-100c0,0-32.06-3.45-60.72.72Z" fill="#0071f2" data-primary="true"/>
<path d="M219.31,286.51c-1.86,4.84,1.66,9.33,1.66,9.33l3.5,15.8,8.68-3-5-14.66a20.8,20.8,0,0,0,3.73-2.87c1-1.24,2.71-10.83,2.71-12S228,277.1,228,277.1,221.18,281.67,219.31,286.51Z" fill="#f9b499"/>
<path d="M219.56,261.12a1.49,1.49,0,0,1,1.36-1.22l11.34.64h.05a1.14,1.14,0,0,1,.89,1.34l-3.8,22.21a1.32,1.32,0,0,1-1.34,1.07l-11.34-.64-.15,0a1,1,0,0,1-.8-1.17Z" fill="#0071f2" data-primary="true"/>
<g opacity="0.5" style="isolation:isolate">
<path d="M222,260l9.61.55c.68,0,1.75.61,1.65,1.24l-3.84,22.5c-.12.64-1.33.89-2,.89l-9.61-.55a.84.84,0,0,1-.27,0,.85.85,0,0,1-.55-1.08L220.83,261A1.17,1.17,0,0,1,222,260Z" fill="#fff"/>
</g>
<path d="M206,303l10.53-11s4.59-.54,5.91-1.78,3.32-14.53,2.14-14.59-12-2-12.82-.73-4.05,14.49-4.05,14.49l-9.46,7.37Z" fill="#f9b499"/>
<path d="M180.52,259.8c-4.57,6.3-6.62,11.19-.13,11.85,0,0-2.89,7.31-9.2,7.31-9.94-.08-17.42-10.31-17.42-10.31,8.72-3.49,13.59-20.71,15.44-30.41Z" fill="#f9b499"/>
<path d="M167.26,251.64c-1.17,4.18,4.13,13.77,10.39,12.78a30,30,0,0,1,2.85-4.62L173.82,247C172.79,248.47,167.67,249.92,167.26,251.64Z" fill="#f7a48b"/>
<path d="M201,220.16c3.54,3.6,1.21,15.86-4.49,21.64-10.91-11.11-12.61-17.55-6.82-20.52C194.72,218.71,197.44,216.56,201,220.16Z" fill="#2f2e41" data-secondary="true"/>
<path d="M165.4,228.43a17.95,17.95,0,0,1,27-14.33c12,7,11.1,26.55,6.69,37.84-4.94,12.58-21.84,16.29-30.33,4.87-5.58-7.61-4.32-15.17-3.3-28.38Z" fill="#f9b499"/>
<path d="M185.93,233.05c.7.1,1.13,1.12,1,2.1s-.81,1.73-1.5,1.65-1.14-1-1-2.08S185.24,233,185.93,233.05Z" fill="#2f2e41" data-secondary="true"/>
<path d="M198,234.67c.69.08,1.13,1,1,2.08s-.83,1.83-1.52,1.75-1.14-1-1-2.08S197.29,234.59,198,234.67Z" fill="#2f2e41" data-secondary="true"/>
<path d="M182.17,230.28a5,5,0,0,1,4.28-1.52h0a.69.69,0,0,0,.74-.5h0a.61.61,0,0,0-.5-.71,6.26,6.26,0,0,0-5.43,1.87.64.64,0,0,0,0,.89.55.55,0,0,0,.38.15A.68.68,0,0,0,182.17,230.28Z" fill="#2f2e41" data-secondary="true"/>
<path d="M202.79,233.09h0a.64.64,0,0,0,.4-.8,6.3,6.3,0,0,0-4-4.14h0a.63.63,0,1,0-.33,1.22,5,5,0,0,1,3.12,3.3.65.65,0,0,0,.51.45A1.33,1.33,0,0,0,202.79,233.09Z" fill="#2f2e41" data-secondary="true"/>
<path d="M160.94,216.54c-3.52,3.59-1.14,15.85,4.59,21.6,10.86-11.13,12.53-17.59,6.72-20.52C167.18,215.12,164.45,213,160.94,216.54Z" fill="#2f2e41" data-secondary="true"/>
<path d="M164.47,231.37c4.16,1,5.66,6.82,5.37,10.56-.33,4.13-3.64,6.92-7.17,4.31A12.45,12.45,0,0,1,157.8,238C157.24,234,160.31,230.41,164.47,231.37Z" fill="#f9b499"/>
<path d="M186.79,220.89l-2.89,1.23a34.77,34.77,0,0,0,14.86,1.27l-1.17,1.74c4.65-.65,15.62-10.35,5.43-16.51s-25.23-9.05-34-3.44-7.14,10.57-7.14,10.57C167.92,219,186.79,220.89,186.79,220.89Z" fill="#2f2e41" data-secondary="true"/>
<path d="M187.88,249.08A17.64,17.64,0,0,1,181,246a5.29,5.29,0,0,0-.3,3.57c.48,1.52,1.92,3.12,5.6,3.94l.83.19a29.39,29.39,0,0,1,2-4.28S188.64,249.28,187.88,249.08Z" fill="#2f2e41" data-secondary="true"/>
<path d="M181,246a5,5,0,0,0-.4,1.26c.8,1.3,3.14,2.31,6.61,3.1l.64-1.24A17.78,17.78,0,0,1,181,246Z" fill="#fff"/>
<path d="M184.6,251.18a12.44,12.44,0,0,0-3.92-1.65c.48,1.52,1.92,3.12,5.6,3.94A4.58,4.58,0,0,0,184.6,251.18Z" fill="#a24e3f"/>
<path d="M130.18,290.41c4.26,8.41,30,30.17,46.79,28.39s34.6-20.34,34.6-20.34l-8.95-9.41s-22.38,18.39-31.36,14S144,272.25,137.15,271.25C128.86,270.1,125.92,282,130.18,290.41Z" fill="#0071f2" data-primary="true"/>
<g opacity="0.2" style="isolation:isolate">
<path d="M130.18,290.41c4.26,8.41,30,30.17,46.79,28.39s34.6-20.34,34.6-20.34l-8.95-9.41s-22.38,18.39-31.36,14S144,272.25,137.15,271.25C128.86,270.1,125.92,282,130.18,290.41Z" fill="#fff"/>
</g>
<path d="M192.24,376.78l-8.25-.33a1.75,1.75,0,0,1-1.66-1.75v-4.95a1.79,1.79,0,0,1,.55-1.27,1.66,1.66,0,0,1,1.32-.47l8.54.55a1.77,1.77,0,0,1,1.65,1.83h0l-.27,4.67a1.74,1.74,0,0,1-1.75,1.65Zm.63-6.54h0a.17.17,0,0,0-.15-.18l-8.54-.54v-.8l-.23,1v4.95a.19.19,0,0,0,.17.19l8.25.31a.16.16,0,0,0,.18-.16l.25-4.66Z" fill="#fff"/>
<path d="M194.85,246.74h-.1l-4.4-.92a.51.51,0,0,1-.39-.6.49.49,0,0,1,.59-.38l3.55.74-2.39-7.26a.51.51,0,0,1,.32-.63.49.49,0,0,1,.63.32l2.66,8.08a.49.49,0,0,1-.1.49A.48.48,0,0,1,194.85,246.74Z" fill="#2f2e41" data-secondary="true"/>
<rect x="538.31" y="125.16" width="117.71" height="76.7" rx="3.62" fill="#0071f2" data-primary="true"/>
<rect x="552.81" y="201.86" width="3.5" height="3" fill="#2f2e41" data-secondary="true"/>
<rect x="562.82" y="201.86" width="3.5" height="3" fill="#2f2e41" data-secondary="true"/>
<g opacity="0.2">
<rect x="548.48" y="133.33" width="86.87" height="56.02" rx="2.35"/>
</g>
<circle cx="562.7" cy="176.35" r="9.18" fill="#f1f2f2"/>
<path d="M567.49,170.35H557.9a.26.26,0,0,1-.25-.25.25.25,0,0,1,.25-.25h9.59a.25.25,0,0,1,.25.25A.25.25,0,0,1,567.49,170.35Z" fill="#2f2e41" data-secondary="true"/>
<path d="M567.49,182.56H557.9a.25.25,0,0,1,0-.5h9.59a.25.25,0,0,1,0,.5Z" fill="#2f2e41" data-secondary="true"/>
<path d="M569.22,172.74H556.17a.25.25,0,0,1,0-.5h13.05a.25.25,0,0,1,0,.5Z" fill="#2f2e41" data-secondary="true"/>
<path d="M569.22,180.57H556.17a.25.25,0,0,1,0-.5h13.05a.25.25,0,0,1,0,.5Z" fill="#2f2e41" data-secondary="true"/>
<path d="M570.19,174.78h-15a.25.25,0,0,1,0-.5h15a.25.25,0,0,1,0,.5Z" fill="#2f2e41" data-secondary="true"/>
<path d="M570.19,178.72h-15a.25.25,0,0,1-.25-.25.25.25,0,0,1,.25-.25h15a.25.25,0,0,1,.25.25A.25.25,0,0,1,570.19,178.72Z" fill="#2f2e41" data-secondary="true"/>
<path d="M570.83,176.81H554.57a.25.25,0,0,1-.25-.25.25.25,0,0,1,.25-.25h16.26a.26.26,0,0,1,.25.25A.25.25,0,0,1,570.83,176.81Z" fill="#2f2e41" data-secondary="true"/>
<rect x="605.25" y="137" width="7.38" height="5.14" fill="#f1f2f2"/>
<rect x="614.65" y="137" width="7.38" height="5.14" fill="#f1f2f2"/>
<rect x="624.13" y="137" width="7.38" height="5.14" fill="#f1f2f2"/>
<rect x="605.25" y="143.78" width="7.38" height="5.14" fill="#f1f2f2"/>
<rect x="614.65" y="143.78" width="7.38" height="5.14" fill="#f1f2f2"/>
<rect x="624.13" y="143.78" width="7.38" height="5.14" fill="#f1f2f2"/>
<rect x="605.25" y="150.32" width="7.38" height="5.14" fill="#f1f2f2"/>
<rect x="614.65" y="150.32" width="7.38" height="5.14" fill="#f1f2f2"/>
<rect x="624.13" y="150.32" width="7.38" height="5.14" fill="#f1f2f2"/>
<rect x="605.25" y="156.96" width="7.38" height="5.14" fill="#f1f2f2"/>
<rect x="614.65" y="156.96" width="7.38" height="5.14" fill="#f1f2f2"/>
<rect x="624.13" y="156.96" width="7.38" height="5.14" fill="#f1f2f2"/>
<rect x="605.25" y="163.5" width="7.38" height="5.14" fill="#f1f2f2"/>
<rect x="614.65" y="163.5" width="7.38" height="5.14" fill="#f1f2f2"/>
<rect x="624.13" y="163.5" width="7.38" height="5.14" fill="#f1f2f2"/>
<g opacity="0.2">
<rect x="635.22" y="139.13" width="20.85" height="1"/>
</g>
<g opacity="0.2">
<rect x="635.22" y="180.12" width="20.85" height="1"/>
</g>
<g opacity="0.2">
<rect x="635.22" y="184.21" width="20.85" height="1"/>
</g>
<circle cx="572.03" cy="160.58" r="0.84" fill="#0071f2" data-primary="true"/>
<circle cx="576.52" cy="160.58" r="0.84" fill="#2f2e41" data-secondary="true"/>
<circle cx="581.21" cy="160.58" r="0.84" fill="#f1f2f2"/>
<circle cx="614.74" cy="185.32" r="0.84" fill="#f1f2f2"/>
<circle cx="619.23" cy="185.32" r="0.84" fill="#f1f2f2"/>
<circle cx="623.92" cy="185.32" r="0.84" fill="#f1f2f2"/>
<rect x="552.05" y="136.82" width="48.32" height="19.43" rx="1.45" fill="#f1f2f2"/>
<rect x="554.04" y="139.35" width="44.19" height="14.51" fill="#e6e7e8"/>
<path d="M584.69,147l-1.33.24,1,.25.19.06a.42.42,0,0,1,.14.11.29.29,0,0,1,.07.18c0,.23-.17.41-.5.54l-.94-1,.33,1.37a.72.72,0,0,1-.44.19.51.51,0,0,1-.3-.08.26.26,0,0,1-.1-.23,1,1,0,0,1,.07-.34l.31-.92-.9,1.05a1,1,0,0,1-.35-.21.42.42,0,0,1-.15-.31.28.28,0,0,1,.11-.25,1.27,1.27,0,0,1,.34-.13l.87-.24-1.3-.24a1.14,1.14,0,0,1,0-.28.62.62,0,0,1,.09-.32.29.29,0,0,1,.27-.15.29.29,0,0,1,.2.07l.2.17.66.64-.32-1.28a.79.79,0,0,1,.44-.19.51.51,0,0,1,.3.08.28.28,0,0,1,.1.23,1.33,1.33,0,0,1-.09.41l-.29.75.65-.64a.64.64,0,0,1,.41-.24.31.31,0,0,1,.27.14.54.54,0,0,1,.09.31A1.26,1.26,0,0,1,584.69,147Z" fill="#0071f2" data-primary="true"/>
<path d="M588.55,147l-1.33.24,1,.25.18.06a.29.29,0,0,1,.14.11.24.24,0,0,1,.07.18c0,.23-.16.41-.49.54l-.94-1,.32,1.37a.7.7,0,0,1-.43.19.51.51,0,0,1-.3-.08.26.26,0,0,1-.1-.23,1.22,1.22,0,0,1,.06-.34l.31-.92-.9,1.05a1.13,1.13,0,0,1-.35-.21.42.42,0,0,1-.15-.31.27.27,0,0,1,.12-.25,1.15,1.15,0,0,1,.34-.13l.86-.24-1.29-.24a1.14,1.14,0,0,1,0-.28.62.62,0,0,1,.09-.32.29.29,0,0,1,.27-.15.26.26,0,0,1,.19.07l.21.17.66.64-.32-1.28a.76.76,0,0,1,.44-.19.46.46,0,0,1,.29.08.28.28,0,0,1,.11.23,1.4,1.4,0,0,1-.1.41l-.28.75.65-.64a.62.62,0,0,1,.41-.24.31.31,0,0,1,.27.14.54.54,0,0,1,.09.31A1.26,1.26,0,0,1,588.55,147Z" fill="#0071f2" data-primary="true"/>
<path d="M592.4,147l-1.33.24,1,.25.19.06a.34.34,0,0,1,.14.11.29.29,0,0,1,.07.18c0,.23-.17.41-.5.54l-.94-1,.33,1.37a.72.72,0,0,1-.44.19.51.51,0,0,1-.3-.08.26.26,0,0,1-.1-.23,1,1,0,0,1,.07-.34l.31-.92-.9,1.05a1.13,1.13,0,0,1-.35-.21.42.42,0,0,1-.15-.31.28.28,0,0,1,.11-.25,1.27,1.27,0,0,1,.34-.13l.87-.24-1.3-.24a1.14,1.14,0,0,1,0-.28.55.55,0,0,1,.1-.32.28.28,0,0,1,.26-.15.29.29,0,0,1,.2.07l.2.17.66.64-.32-1.28a.79.79,0,0,1,.44-.19.51.51,0,0,1,.3.08.28.28,0,0,1,.1.23,1.33,1.33,0,0,1-.09.41l-.29.75.65-.64a.64.64,0,0,1,.41-.24.31.31,0,0,1,.27.14.54.54,0,0,1,.09.31A1.26,1.26,0,0,1,592.4,147Z" fill="#0071f2" data-primary="true"/>
<path d="M596.26,147l-1.33.24,1,.25.18.06a.29.29,0,0,1,.14.11.24.24,0,0,1,.07.18c0,.23-.16.41-.49.54l-.94-1,.32,1.37a.7.7,0,0,1-.43.19.51.51,0,0,1-.3-.08.26.26,0,0,1-.1-.23,1.22,1.22,0,0,1,.06-.34l.32-.92-.91,1.05a1.08,1.08,0,0,1-.34-.21.42.42,0,0,1-.15-.31.26.26,0,0,1,.11-.25,1.15,1.15,0,0,1,.34-.13l.87-.24-1.3-.24a1.14,1.14,0,0,1,0-.28.62.62,0,0,1,.09-.32.29.29,0,0,1,.27-.15.26.26,0,0,1,.19.07l.21.17.66.64-.32-1.28a.79.79,0,0,1,.44-.19.51.51,0,0,1,.3.08.31.31,0,0,1,.1.23,1.14,1.14,0,0,1-.1.41l-.28.75.65-.64a.62.62,0,0,1,.41-.24.31.31,0,0,1,.27.14.54.54,0,0,1,.09.31A1.26,1.26,0,0,1,596.26,147Z" fill="#0071f2" data-primary="true"/>
<path d="M258.56,275.5l-1,0s.07-2.21.42-6l1,.09C258.63,273.33,258.56,275.48,258.56,275.5Z" fill="#d1d3d4"/>
<path d="M260.47,257.43l-1-.15c.6-4,1.34-8.06,2.17-12.11l1,.21C261.81,249.41,261.08,253.46,260.47,257.43Zm4.92-24-1-.25c1-4,2.14-7.94,3.35-11.83l1,.3C267.53,225.54,266.41,229.5,265.39,233.45Zm7.26-23.37-.94-.35c1.42-3.85,2.94-7.7,4.53-11.42l.92.39C275.58,202.41,274.06,206.24,272.65,210.08Zm9.62-22.49-.89-.44c1.81-3.68,3.75-7.33,5.75-10.86l.87.5C286,180.29,284.08,183.93,282.27,187.59Zm12.07-21.25-.84-.54c2.23-3.44,4.59-6.84,7-10.09l.8.59C298.9,159.54,296.56,162.92,294.34,166.34Zm14.55-19.61-.77-.65c2.65-3.12,5.42-6.18,8.24-9.1l.72.7C314.28,140.58,311.52,143.62,308.89,146.73Zm17-17.53-.67-.74c3-2.74,6.19-5.4,9.39-7.91l.62.79C332,123.84,328.87,126.48,325.86,129.2ZM345,114.13l-.56-.82c3.36-2.29,6.85-4.5,10.37-6.56l.5.86C351.85,109.66,348.38,111.86,345,114.13Zm21-12.34-.45-.9c3.62-1.81,7.36-3.54,11.13-5.15l.4.92C373.39,98.26,369.67,100,366.07,101.79Zm22.45-9.56-.34-.94c3.79-1.34,7.72-2.61,11.67-3.77l.28,1C396.2,89.63,392.29,90.89,388.52,92.23Zm23.41-6.85-.23-1c3.93-.93,8-1.76,12-2.5l.18,1C419.87,83.63,415.85,84.46,411.93,85.38Zm133.61-.59c-4.06-.69-8.12-1.33-12.09-1.91l.15-1c4,.58,8,1.22,12.11,1.92Zm-24.22-3.51c-4.08-.48-8.17-.91-12.17-1.26l.09-1c4,.36,8.11.79,12.2,1.27ZM436,81l-.13-1c4-.53,8.06-1,12.18-1.35l.09,1C444,80,439.9,80.48,436,81Zm61-1.89c-4.1-.24-8.21-.42-12.22-.52l0-1c4,.11,8.14.28,12.25.52Zm-36.67-.28,0-1c4-.19,8.14-.3,12.26-.34v1C468.39,78.53,464.28,78.64,460.28,78.83Z" fill="#d1d3d4"/>
<path d="M563.58,88.19q-3-.61-5.88-1.18l.19-1c2,.38,3.92.77,5.89,1.18Z" fill="#d1d3d4"/>
</svg>